<?xml version="1.0" encoding="UTF-8" standalone="no"?><!DOCTYPE svg PUBLIC "-//W3C//DTD SVG 1.1//EN" "http://www.w3.org/Graphics/SVG/1.1/DTD/svg11.dtd"><svg width="681px" height="304px" version="1.1" xmlns="http://www.w3.org/2000/svg" xmlns:xlink="http://www.w3.org/1999/xlink" xml:space="preserve" xmlns:serif="http://www.serif.com/" style="fill-rule:evenodd;clip-rule:evenodd;stroke-linecap:round;stroke-linejoin:round;stroke-miterlimit:1.5;"><g transform="matrix(1,0,0,1,-14,-8)"><g transform="matrix(1.09649,0,0,1.18947,-763.486,0)"><g id="Mid-Lip" serif:id="Mid Lip" transform="matrix(0.912,0,0,0.840708,-1363.9,-255.257)"><g id="Case-Border" serif:id="Case Border" transform="matrix(1.0084,0,0,1.01905,-21.9607,-8.8339)"><path d="M2950.64,328.869C2950.64,321.193 2944.35,314.961 2936.59,314.961L2290.05,314.961C2282.3,314.961 2276,321.193 2276,328.869L2276,598.69C2276,606.366 2282.3,612.598 2290.05,612.598L2936.59,612.598C2944.35,612.598 2950.64,606.366 2950.64,598.69L2950.64,328.869Z" style="fill:none;stroke:rgb(0,0,255);stroke-width:0.03px;"/></g><g id="Plate-Border" serif:id="Plate Border" transform="matrix(0.957983,0,0,0.904762,109.803,44.1695)"><path d="M2950.64,318.094C2950.64,316.364 2949.32,314.961 2947.69,314.961L2278.96,314.961C2277.33,314.961 2276,316.364 2276,318.094L2276,609.465C2276,611.195 2277.33,612.598 2278.96,612.598L2947.69,612.598C2949.32,612.598 2950.64,611.195 2950.64,609.465L2950.64,318.094Z" style="fill:none;stroke:rgb(0,0,255);stroke-width:0.03px;"/></g><g id="Standoff-Holes" serif:id="Standoff Holes"><g transform="matrix(1.59747,0,0,1.59747,-1362.95,-84.5833)"><circle cx="2281.5" cy="343.27" r="2.839" style="fill:none;stroke:rgb(0,0,255);stroke-width:0.02px;"/></g><g transform="matrix(1.59747,0,0,1.59747,-699.642,-84.5833)"><circle cx="2281.5" cy="343.27" r="2.839" style="fill:none;stroke:rgb(0,0,255);stroke-width:0.02px;"/></g><g transform="matrix(1.59747,0,0,1.59747,-1340.27,-227.733)"><circle cx="2281.5" cy="343.27" r="2.839" style="fill:none;stroke:rgb(0,0,255);stroke-width:0.02px;"/></g><g transform="matrix(1.59747,0,0,1.59747,-1276.49,-227.733)"><circle cx="2281.5" cy="343.27" r="2.839" style="fill:none;stroke:rgb(0,0,255);stroke-width:0.02px;"/></g><g transform="matrix(1.59747,0,0,1.59747,-1216.97,-227.733)"><circle cx="2281.5" cy="343.27" r="2.839" style="fill:none;stroke:rgb(0,0,255);stroke-width:0.02px;"/></g><g transform="matrix(1.59747,0,0,1.59747,-1031.3,-227.733)"><circle cx="2281.5" cy="343.27" r="2.839" style="fill:none;stroke:rgb(0,0,255);stroke-width:0.02px;"/></g><g transform="matrix(1.59747,0,0,1.59747,-1031.3,58.5664)"><circle cx="2281.5" cy="343.27" r="2.839" style="fill:none;stroke:rgb(0,0,255);stroke-width:0.02px;"/></g><g transform="matrix(1.59747,0,0,1.59747,-1340.27,58.5664)"><circle cx="2281.5" cy="343.27" r="2.839" style="fill:none;stroke:rgb(0,0,255);stroke-width:0.02px;"/></g><g transform="matrix(1.59747,0,0,1.59747,-722.319,-227.733)"><circle cx="2281.5" cy="343.27" r="2.839" style="fill:none;stroke:rgb(0,0,255);stroke-width:0.02px;"/></g><g transform="matrix(1.59747,0,0,1.59747,-722.319,58.5664)"><circle cx="2281.5" cy="343.27" r="2.839" style="fill:none;stroke:rgb(0,0,255);stroke-width:0.02px;"/></g></g></g></g></g></svg>