<?xml version="1.0" encoding="UTF-8" standalone="no"?><!DOCTYPE svg PUBLIC "-//W3C//DTD SVG 1.1//EN" "http://www.w3.org/Graphics/SVG/1.1/DTD/svg11.dtd"><svg width="681px" height="304px" version="1.1" xmlns="http://www.w3.org/2000/svg" xmlns:xlink="http://www.w3.org/1999/xlink" xml:space="preserve" xmlns:serif="http://www.serif.com/" style="fill-rule:evenodd;clip-rule:evenodd;stroke-linecap:round;stroke-linejoin:round;stroke-miterlimit:1.5;"><g transform="matrix(1,0,0,1,-14,-680)"><g transform="matrix(0.651042,0,0,1.4401,-741.214,360)"><g id="Mid-Ledge---Port" serif:id="Mid Ledge + Port" transform="matrix(1.536,0,0,0.694394,-2331.31,5.68638)"><path id="Mid-Port-Cutout" serif:id="Mid Port Cutout" d="M2376.63,312.126L2287.34,312.126C2279.52,312.126 2273.16,318.477 2273.16,326.299L2273.16,601.26C2273.16,609.082 2279.52,615.433 2287.34,615.433L2939.31,615.433C2947.13,615.433 2953.48,609.082 2953.48,601.26L2953.48,326.299C2953.48,318.477 2947.13,312.126 2939.31,312.126L2419.15,312.126L2419.15,329.134L2922.3,329.134C2930.12,329.134 2936.47,335.485 2936.47,343.307L2936.47,584.252C2936.47,592.074 2930.12,598.425 2922.3,598.425L2304.35,598.425C2296.52,598.425 2290.17,592.074 2290.17,584.252L2290.17,343.307C2290.17,335.485 2296.52,329.134 2304.35,329.134L2376.63,329.134L2376.63,312.126Z" style="fill:none;stroke:rgb(0,0,255);stroke-width:0.03px;"/><g id="Standoff-Holes" serif:id="Standoff Holes"><g transform="matrix(1.59747,0,0,1.59747,-1362.95,-84.5833)"><circle cx="2281.5" cy="343.27" r="2.839" style="fill:none;stroke:rgb(0,0,255);stroke-width:0.02px;"/></g><g transform="matrix(1.59747,0,0,1.59747,-699.642,-84.5833)"><circle cx="2281.5" cy="343.27" r="2.839" style="fill:none;stroke:rgb(0,0,255);stroke-width:0.02px;"/></g><g transform="matrix(1.59747,0,0,1.59747,-1340.27,-227.733)"><circle cx="2281.5" cy="343.27" r="2.839" style="fill:none;stroke:rgb(0,0,255);stroke-width:0.02px;"/></g><g transform="matrix(1.59747,0,0,1.59747,-1276.49,-227.733)"><circle cx="2281.5" cy="343.27" r="2.839" style="fill:none;stroke:rgb(0,0,255);stroke-width:0.02px;"/></g><g transform="matrix(1.59747,0,0,1.59747,-1216.97,-227.733)"><circle cx="2281.5" cy="343.27" r="2.839" style="fill:none;stroke:rgb(0,0,255);stroke-width:0.02px;"/></g><g transform="matrix(1.59747,0,0,1.59747,-1031.3,-227.733)"><circle cx="2281.5" cy="343.27" r="2.839" style="fill:none;stroke:rgb(0,0,255);stroke-width:0.02px;"/></g><g transform="matrix(1.59747,0,0,1.59747,-1031.3,58.5664)"><circle cx="2281.5" cy="343.27" r="2.839" style="fill:none;stroke:rgb(0,0,255);stroke-width:0.02px;"/></g><g transform="matrix(1.59747,0,0,1.59747,-1340.27,58.5664)"><circle cx="2281.5" cy="343.27" r="2.839" style="fill:none;stroke:rgb(0,0,255);stroke-width:0.02px;"/></g><g transform="matrix(1.59747,0,0,1.59747,-722.319,-227.733)"><circle cx="2281.5" cy="343.27" r="2.839" style="fill:none;stroke:rgb(0,0,255);stroke-width:0.02px;"/></g><g transform="matrix(1.59747,0,0,1.59747,-722.319,58.5664)"><circle cx="2281.5" cy="343.27" r="2.839" style="fill:none;stroke:rgb(0,0,255);stroke-width:0.02px;"/></g></g></g></g></g></svg>