<?xml version="1.0" encoding="UTF-8" standalone="no"?><!DOCTYPE svg PUBLIC "-//W3C//DTD SVG 1.1//EN" "http://www.w3.org/Graphics/SVG/1.1/DTD/svg11.dtd"><svg width="681px" height="304px" version="1.1" xmlns="http://www.w3.org/2000/svg" xmlns:xlink="http://www.w3.org/1999/xlink" xml:space="preserve" xmlns:serif="http://www.serif.com/" style="fill-rule:evenodd;clip-rule:evenodd;stroke-linecap:round;stroke-linejoin:round;stroke-miterlimit:1.5;"><g transform="matrix(1,0,0,1,-14,-8)"><g transform="matrix(1.09649,0,0,1.18947,-763.486,0)"><g id="Mid-Ledge" serif:id="Mid Ledge" transform="matrix(0.912,0,0,0.840708,-1363.9,-255.257)"><g id="Case-Border" serif:id="Case Border" transform="matrix(1.0084,0,0,1.01905,-21.9607,-8.8339)"><path d="M2950.64,328.869C2950.64,321.193 2944.35,314.961 2936.59,314.961L2290.05,314.961C2282.3,314.961 2276,321.193 2276,328.869L2276,598.69C2276,606.366 2282.3,612.598 2290.05,612.598L2936.59,612.598C2944.35,612.598 2950.64,606.366 2950.64,598.69L2950.64,328.869Z" style="fill:none;stroke:rgb(0,0,255);stroke-width:0.03px;"/></g><path id="Inner-Ledge" serif:id="Inner Ledge" d="M2936.47,343.307C2936.47,335.485 2930.12,329.134 2922.3,329.134L2304.35,329.134C2296.52,329.134 2290.17,335.485 2290.17,343.307L2290.17,584.252C2290.17,592.074 2296.52,598.425 2304.35,598.425L2922.3,598.425C2930.12,598.425 2936.47,592.074 2936.47,584.252L2936.47,343.307Z" style="fill:none;stroke:rgb(0,0,255);stroke-width:0.03px;"/><g id="Standoff-Holes" serif:id="Standoff Holes"><g transform="matrix(1.59747,0,0,1.59747,-1362.95,-84.5833)"><circle cx="2281.5" cy="343.27" r="2.839" style="fill:none;stroke:rgb(0,0,255);stroke-width:0.02px;"/></g><g transform="matrix(1.59747,0,0,1.59747,-699.642,-84.5833)"><circle cx="2281.5" cy="343.27" r="2.839" style="fill:none;stroke:rgb(0,0,255);stroke-width:0.02px;"/></g><g transform="matrix(1.59747,0,0,1.59747,-1340.27,-227.733)"><circle cx="2281.5" cy="343.27" r="2.839" style="fill:none;stroke:rgb(0,0,255);stroke-width:0.02px;"/></g><g transform="matrix(1.59747,0,0,1.59747,-1276.49,-227.733)"><circle cx="2281.5" cy="343.27" r="2.839" style="fill:none;stroke:rgb(0,0,255);stroke-width:0.02px;"/></g><g transform="matrix(1.59747,0,0,1.59747,-1216.97,-227.733)"><circle cx="2281.5" cy="343.27" r="2.839" style="fill:none;stroke:rgb(0,0,255);stroke-width:0.02px;"/></g><g transform="matrix(1.59747,0,0,1.59747,-1031.3,-227.733)"><circle cx="2281.5" cy="343.27" r="2.839" style="fill:none;stroke:rgb(0,0,255);stroke-width:0.02px;"/></g><g transform="matrix(1.59747,0,0,1.59747,-1031.3,58.5664)"><circle cx="2281.5" cy="343.27" r="2.839" style="fill:none;stroke:rgb(0,0,255);stroke-width:0.02px;"/></g><g transform="matrix(1.59747,0,0,1.59747,-1340.27,58.5664)"><circle cx="2281.5" cy="343.27" r="2.839" style="fill:none;stroke:rgb(0,0,255);stroke-width:0.02px;"/></g><g transform="matrix(1.59747,0,0,1.59747,-722.319,-227.733)"><circle cx="2281.5" cy="343.27" r="2.839" style="fill:none;stroke:rgb(0,0,255);stroke-width:0.02px;"/></g><g transform="matrix(1.59747,0,0,1.59747,-722.319,58.5664)"><circle cx="2281.5" cy="343.27" r="2.839" style="fill:none;stroke:rgb(0,0,255);stroke-width:0.02px;"/></g></g></g></g></g></svg>