<?xml version="1.0" encoding="UTF-8" standalone="no"?><!DOCTYPE svg PUBLIC "-//W3C//DTD SVG 1.1//EN" "http://www.w3.org/Graphics/SVG/1.1/DTD/svg11.dtd"><svg width="681px" height="304px" version="1.1" xmlns="http://www.w3.org/2000/svg" xmlns:xlink="http://www.w3.org/1999/xlink" xml:space="preserve" xmlns:serif="http://www.serif.com/" style="fill-rule:evenodd;clip-rule:evenodd;stroke-linecap:round;stroke-linejoin:round;stroke-miterlimit:1.5;"><g transform="matrix(1,0,0,1,-14,-368)"><g transform="matrix(0.651042,0,0,1.4401,-741.214,360)"><g id="Bottom" transform="matrix(1.536,0,0,0.694394,-2331.31,-210.833)"><g id="Case-Border" serif:id="Case Border" transform="matrix(1.0084,0,0,1.01905,-21.9607,-8.8339)"><path d="M2950.64,328.869C2950.64,321.193 2944.35,314.961 2936.59,314.961L2290.05,314.961C2282.3,314.961 2276,321.193 2276,328.869L2276,598.69C2276,606.366 2282.3,612.598 2290.05,612.598L2936.59,612.598C2944.35,612.598 2950.64,606.366 2950.64,598.69L2950.64,328.869Z" style="fill:none;stroke:rgb(0,0,255);stroke-width:0.03px;"/></g><g id="Case-Holes" serif:id="Case Holes" transform="matrix(-1,0,0,1,5226.64,4.9738e-14)"><g transform="matrix(0.998417,0,0,0.998417,3.78276,121.053)"><circle cx="2281.5" cy="343.27" r="2.839" style="fill:none;stroke:rgb(0,0,255);stroke-width:0.03px;"/></g><g transform="matrix(0.998417,0,0,0.998417,667.09,121.053)"><circle cx="2281.5" cy="343.27" r="2.839" style="fill:none;stroke:rgb(0,0,255);stroke-width:0.03px;"/></g><g transform="matrix(0.998417,0,0,0.998417,26.4599,-22.0968)"><circle cx="2281.5" cy="343.27" r="2.839" style="fill:none;stroke:rgb(0,0,255);stroke-width:0.03px;"/></g><g transform="matrix(0.998417,0,0,0.998417,90.2366,-22.0968)"><circle cx="2281.5" cy="343.27" r="2.839" style="fill:none;stroke:rgb(0,0,255);stroke-width:0.03px;"/></g><g transform="matrix(0.998417,0,0,0.998417,149.764,-22.0968)"><circle cx="2281.5" cy="343.27" r="2.839" style="fill:none;stroke:rgb(0,0,255);stroke-width:0.03px;"/></g><g transform="matrix(0.998417,0,0,0.998417,335.431,-22.0968)"><circle cx="2281.5" cy="343.27" r="2.839" style="fill:none;stroke:rgb(0,0,255);stroke-width:0.03px;"/></g><g transform="matrix(0.998417,0,0,0.998417,335.431,264.202)"><circle cx="2281.5" cy="343.27" r="2.839" style="fill:none;stroke:rgb(0,0,255);stroke-width:0.03px;"/></g><g transform="matrix(0.998417,0,0,0.998417,26.4599,264.202)"><circle cx="2281.5" cy="343.27" r="2.839" style="fill:none;stroke:rgb(0,0,255);stroke-width:0.03px;"/></g><g transform="matrix(0.998417,0,0,0.998417,644.413,-22.0968)"><circle cx="2281.5" cy="343.27" r="2.839" style="fill:none;stroke:rgb(0,0,255);stroke-width:0.03px;"/></g><g transform="matrix(0.998417,0,0,0.998417,644.413,264.202)"><circle cx="2281.5" cy="343.27" r="2.839" style="fill:none;stroke:rgb(0,0,255);stroke-width:0.03px;"/></g></g><g id="Mounting-Holes" serif:id="Mounting Holes" transform="matrix(-1,0,0,1,5226.64,1.06581e-13)"><g transform="matrix(0.800416,0,0,0.800416,1017.73,501.451)"><circle cx="2329.89" cy="53.858" r="3.541" style="fill:none;stroke:rgb(0,0,255);stroke-width:0.04px;"/></g><g transform="matrix(0.800416,0,0,0.800416,479.18,501.451)"><circle cx="2329.89" cy="53.858" r="3.541" style="fill:none;stroke:rgb(0,0,255);stroke-width:0.04px;"/></g><g transform="matrix(0.800416,0,0,0.800416,748.439,393.741)"><circle cx="2329.89" cy="53.858" r="3.541" style="fill:none;stroke:rgb(0,0,255);stroke-width:0.04px;"/></g><g transform="matrix(0.800416,0,0,0.800416,1017.73,339.883)"><circle cx="2329.89" cy="53.858" r="3.541" style="fill:none;stroke:rgb(0,0,255);stroke-width:0.04px;"/></g><g transform="matrix(0.800416,0,0,0.800416,479.18,339.883)"><circle cx="2329.89" cy="53.858" r="3.541" style="fill:none;stroke:rgb(0,0,255);stroke-width:0.04px;"/></g></g></g></g></g></svg>