<?xml version="1.0" encoding="UTF-8" standalone="no"?><!DOCTYPE svg PUBLIC "-//W3C//DTD SVG 1.1//EN" "http://www.w3.org/Graphics/SVG/1.1/DTD/svg11.dtd"><svg width="681px" height="304px" version="1.1" xmlns="http://www.w3.org/2000/svg" xmlns:xlink="http://www.w3.org/1999/xlink" xml:space="preserve" xmlns:serif="http://www.serif.com/" style="fill-rule:evenodd;clip-rule:evenodd;stroke-linecap:round;stroke-linejoin:round;stroke-miterlimit:1.5;"><g transform="matrix(1,0,0,1,-14,-8)"><g transform="matrix(1.09649,0,0,1.18947,-763.486,0)"><g id="Bottom" transform="matrix(0.912,0,0,0.840708,-1363.9,-255.257)"><g id="Case-Border---Cutout" serif:id="Case Border + Cutout" transform="matrix(-1,0,0,1,2953.48,312.126)"><path d="M107.714,0L14.173,0C6.351,0 0,6.351 0,14.173L0,289.134C0,296.956 6.351,303.307 14.173,303.307L666.142,303.307C673.964,303.307 680.315,296.956 680.315,289.134L680.315,14.173C680.315,6.351 673.964,0 666.142,0L141.729,0L141.729,31.181C141.729,32.747 140.46,34.016 138.895,34.016L110.548,34.016C108.983,34.016 107.714,32.747 107.714,31.181L107.714,0" style="fill:none;stroke:rgb(0,0,255);stroke-width:0.03px;"/></g><g id="Screw-Holes" serif:id="Screw Holes" transform="matrix(-1,0,0,1,5212.47,329.134)"><g id="Case-Holes" serif:id="Case Holes" transform="matrix(1,0,0,1,-14.1732,-329.134)"><g transform="matrix(0.998417,0,0,0.998417,3.78276,121.053)"><circle cx="2281.5" cy="343.27" r="2.839" style="fill:none;stroke:rgb(0,0,255);stroke-width:0.03px;"/></g><g transform="matrix(0.998417,0,0,0.998417,667.09,121.053)"><circle cx="2281.5" cy="343.27" r="2.839" style="fill:none;stroke:rgb(0,0,255);stroke-width:0.03px;"/></g><g transform="matrix(0.998417,0,0,0.998417,26.4599,-22.0968)"><circle cx="2281.5" cy="343.27" r="2.839" style="fill:none;stroke:rgb(0,0,255);stroke-width:0.03px;"/></g><g transform="matrix(0.998417,0,0,0.998417,90.2366,-22.0968)"><circle cx="2281.5" cy="343.27" r="2.839" style="fill:none;stroke:rgb(0,0,255);stroke-width:0.03px;"/></g><g transform="matrix(0.998417,0,0,0.998417,149.764,-22.0968)"><circle cx="2281.5" cy="343.27" r="2.839" style="fill:none;stroke:rgb(0,0,255);stroke-width:0.03px;"/></g><g transform="matrix(0.998417,0,0,0.998417,335.431,-22.0968)"><circle cx="2281.5" cy="343.27" r="2.839" style="fill:none;stroke:rgb(0,0,255);stroke-width:0.03px;"/></g><g transform="matrix(0.998417,0,0,0.998417,335.431,264.202)"><circle cx="2281.5" cy="343.27" r="2.839" style="fill:none;stroke:rgb(0,0,255);stroke-width:0.03px;"/></g><g transform="matrix(0.998417,0,0,0.998417,26.4599,264.202)"><circle cx="2281.5" cy="343.27" r="2.839" style="fill:none;stroke:rgb(0,0,255);stroke-width:0.03px;"/></g><g transform="matrix(0.998417,0,0,0.998417,644.413,-22.0968)"><circle cx="2281.5" cy="343.27" r="2.839" style="fill:none;stroke:rgb(0,0,255);stroke-width:0.03px;"/></g><g transform="matrix(0.998417,0,0,0.998417,644.413,264.202)"><circle cx="2281.5" cy="343.27" r="2.839" style="fill:none;stroke:rgb(0,0,255);stroke-width:0.03px;"/></g></g><g id="Mounting-Holes" serif:id="Mounting Holes" transform="matrix(1,0,0,1,-14.1732,-329.134)"><g transform="matrix(0.800416,0,0,0.800416,1017.73,501.451)"><circle cx="2329.89" cy="53.858" r="3.541" style="fill:none;stroke:rgb(0,0,255);stroke-width:0.04px;"/></g><g transform="matrix(0.800416,0,0,0.800416,479.18,501.451)"><circle cx="2329.89" cy="53.858" r="3.541" style="fill:none;stroke:rgb(0,0,255);stroke-width:0.04px;"/></g><g transform="matrix(0.800416,0,0,0.800416,748.439,393.741)"><circle cx="2329.89" cy="53.858" r="3.541" style="fill:none;stroke:rgb(0,0,255);stroke-width:0.04px;"/></g><g transform="matrix(0.800416,0,0,0.800416,1017.73,339.883)"><circle cx="2329.89" cy="53.858" r="3.541" style="fill:none;stroke:rgb(0,0,255);stroke-width:0.04px;"/></g><g transform="matrix(0.800416,0,0,0.800416,479.18,339.883)"><circle cx="2329.89" cy="53.858" r="3.541" style="fill:none;stroke:rgb(0,0,255);stroke-width:0.04px;"/></g></g></g><g transform="matrix(2.58111,0,0,2.58111,-4097.59,-736.986)"><g id="Engraving"><g id="Samurai-Blue" serif:id="Samurai Blue"><g transform="matrix(12,0,0,12,2552.64,501.34)"><path d="M0.748,-0.598L0.748,-0.703C0.748,-0.743 0.752,-0.776 0.754,-0.796L0.612,-0.796C0.615,-0.776 0.618,-0.743 0.618,-0.703L0.618,-0.598L0.381,-0.598L0.381,-0.696C0.381,-0.736 0.384,-0.768 0.387,-0.787L0.245,-0.787C0.247,-0.768 0.251,-0.735 0.251,-0.697L0.251,-0.598L0.166,-0.598C0.116,-0.598 0.076,-0.604 0.058,-0.607L0.058,-0.471C0.08,-0.473 0.116,-0.475 0.166,-0.475L0.251,-0.475L0.251,-0.339C0.251,-0.294 0.248,-0.254 0.245,-0.234L0.385,-0.234C0.384,-0.254 0.381,-0.295 0.381,-0.339L0.381,-0.475L0.618,-0.475L0.618,-0.437C0.618,-0.192 0.533,-0.105 0.34,-0.038L0.447,0.063C0.688,-0.043 0.748,-0.194 0.748,-0.442L0.748,-0.475L0.822,-0.475C0.875,-0.475 0.91,-0.474 0.932,-0.472L0.932,-0.605C0.905,-0.6 0.875,-0.598 0.822,-0.598L0.748,-0.598Z" style="fill-rule:nonzero;"/></g><g transform="matrix(12,0,0,12,2564.4,501.34)"><path d="M0.953,-0.015C0.907,-0.127 0.805,-0.323 0.734,-0.431L0.609,-0.38C0.642,-0.336 0.679,-0.269 0.714,-0.197C0.613,-0.185 0.471,-0.169 0.349,-0.157C0.399,-0.291 0.48,-0.545 0.512,-0.643C0.527,-0.687 0.541,-0.724 0.555,-0.754L0.396,-0.786C0.392,-0.753 0.386,-0.722 0.372,-0.671C0.343,-0.567 0.257,-0.293 0.199,-0.145L0.172,-0.144C0.139,-0.143 0.096,-0.143 0.062,-0.143L0.085,0.003C0.117,-0.001 0.154,-0.006 0.179,-0.009C0.305,-0.022 0.608,-0.054 0.771,-0.073C0.789,-0.03 0.805,0.011 0.818,0.045L0.953,-0.015Z" style="fill-rule:nonzero;"/></g><g transform="matrix(12,0,0,12,2575.8,501.34)"><path d="M0.815,-0.532C0.801,-0.526 0.774,-0.522 0.742,-0.522L0.247,-0.522C0.216,-0.522 0.173,-0.524 0.131,-0.528L0.131,-0.398C0.173,-0.402 0.223,-0.403 0.247,-0.403L0.73,-0.403C0.712,-0.347 0.681,-0.285 0.627,-0.23C0.551,-0.152 0.431,-0.086 0.28,-0.055L0.38,0.058C0.508,0.022 0.636,-0.046 0.737,-0.158C0.812,-0.241 0.855,-0.338 0.885,-0.435C0.889,-0.446 0.897,-0.464 0.904,-0.477L0.815,-0.532ZM0.223,-0.638C0.252,-0.64 0.295,-0.641 0.327,-0.641L0.71,-0.641C0.746,-0.641 0.793,-0.64 0.82,-0.638L0.82,-0.767C0.792,-0.763 0.743,-0.762 0.712,-0.762L0.327,-0.762C0.293,-0.762 0.251,-0.763 0.223,-0.767L0.223,-0.638Z" style="fill-rule:nonzero;"/></g><g transform="matrix(12,0,0,12,2587.8,501.34)"><path d="M0.62,-0.496C0.719,-0.56 0.809,-0.635 0.885,-0.711L0.778,-0.808C0.722,-0.734 0.618,-0.645 0.517,-0.582C0.405,-0.513 0.237,-0.439 0.062,-0.401L0.134,-0.279C0.25,-0.311 0.375,-0.363 0.478,-0.415L0.478,-0.087C0.478,-0.043 0.475,0.02 0.471,0.044L0.629,0.044C0.622,0.019 0.62,-0.043 0.62,-0.087L0.62,-0.496Z" style="fill-rule:nonzero;"/></g><g transform="matrix(12,0,0,12,2599.8,501.34)"><path d="M0.372,-0.38C0.372,-0.31 0.43,-0.252 0.5,-0.252C0.57,-0.252 0.628,-0.31 0.628,-0.38C0.628,-0.45 0.57,-0.508 0.5,-0.508C0.43,-0.508 0.372,-0.45 0.372,-0.38Z" style="fill-rule:nonzero;"/></g><g transform="matrix(12,0,0,12,2611.8,501.34)"><path d="M0.836,-0.711C0.818,-0.747 0.785,-0.805 0.759,-0.843L0.677,-0.809C0.696,-0.78 0.716,-0.745 0.733,-0.712C0.715,-0.71 0.698,-0.71 0.686,-0.71L0.223,-0.71C0.19,-0.71 0.133,-0.714 0.104,-0.718L0.104,-0.577C0.13,-0.579 0.177,-0.581 0.223,-0.581L0.689,-0.581C0.675,-0.495 0.637,-0.382 0.571,-0.299C0.49,-0.197 0.378,-0.111 0.179,-0.064L0.288,0.055C0.467,-0.002 0.6,-0.101 0.69,-0.221C0.774,-0.332 0.817,-0.487 0.84,-0.585C0.846,-0.606 0.853,-0.635 0.862,-0.654L0.799,-0.695L0.836,-0.711ZM0.816,-0.834C0.843,-0.798 0.874,-0.741 0.896,-0.7L0.979,-0.736C0.96,-0.771 0.924,-0.832 0.899,-0.868L0.816,-0.834Z" style="fill-rule:nonzero;"/></g><g transform="matrix(12,0,0,12,2623.8,501.34)"><path d="M0.162,0.044C0.248,-0.032 0.31,-0.13 0.34,-0.243C0.367,-0.344 0.37,-0.555 0.37,-0.673C0.37,-0.714 0.376,-0.759 0.377,-0.763L0.23,-0.763C0.236,-0.739 0.239,-0.712 0.239,-0.672C0.239,-0.551 0.238,-0.362 0.21,-0.276C0.182,-0.191 0.128,-0.099 0.04,-0.037L0.162,0.044ZM0.586,0.047C0.599,0.037 0.609,0.028 0.63,0.017C0.742,-0.04 0.886,-0.148 0.969,-0.256L0.892,-0.366C0.825,-0.269 0.726,-0.19 0.645,-0.155L0.645,-0.678C0.645,-0.723 0.651,-0.762 0.652,-0.765L0.503,-0.765C0.504,-0.762 0.511,-0.724 0.511,-0.679L0.511,-0.096C0.511,-0.069 0.507,-0.041 0.503,-0.022L0.586,0.047Z" style="fill-rule:nonzero;"/></g><g transform="matrix(12,0,0,12,2635.8,501.34)"><path d="M0.092,-0.306C0.129,-0.309 0.196,-0.311 0.253,-0.311L0.79,-0.311C0.832,-0.311 0.883,-0.307 0.907,-0.306L0.907,-0.463C0.881,-0.461 0.836,-0.457 0.79,-0.457L0.253,-0.457C0.201,-0.457 0.128,-0.46 0.092,-0.463L0.092,-0.306Z" style="fill-rule:nonzero;"/></g></g></g></g></g></g></g></svg>