  0
SECTION
  2
HEADER
  9
$ACADVER
  1
AC1009
  9
$INSBASE
 10
0.0
 20
0.0
 30
0.0
  9
$EXTMIN
 10
0.0
 20
0.0
 30
0.0
  9
$EXTMAX
 10
0.0
 20
0.0
 30
0.0
  0
ENDSEC
  0
SECTION
  2
TABLES
  0
TABLE
  2
VPORT
 70
0
  0
ENDTAB
  0
TABLE
  2
LTYPE
 70
1
  0
LTYPE
  2
CONTINUOUS
 70
0
  3
Solid line
 72
65
 73
0
 40
0.0
  0
ENDTAB
  0
TABLE
  2
LAYER
 70
1
  0
LAYER
  2
0
 70
64
 62
7
  6
continuous
  0
ENDTAB
  0
TABLE
  2
STYLE
 70
1
  0
STYLE
  2
STANDARD
 70
0
 40
0
 41
1.0
 50
0.0
 71
0
 42
1
 3
ARIAL.TTF
 4

  0
ENDTAB
  0
TABLE
  2
VIEW
 70
0
  0
ENDTAB
  0
ENDSEC
  0
SECTION
  2
BLOCKS
  0
BLOCK
  8
0
  2
HI_PRO_PLATE_MX_2X2U_REV3001_SOLID001
 70
0
 10
0.0
 20
0.0
 30
0.0
  3
HI_PRO_PLATE_MX_2X2U_REV3001_SOLID001
  0
LINE
  8
0
 62
0
 10
43.60505676269531
 20
18.999980926513665
 30
0.0
 11
43.615318298339844
 21
18.84013366699218
 31
0.0
  0
LINE
  8
0
 62
0
 10
43.615318298339844
 20
19.159826278686516
 30
0.0
 11
43.60505676269531
 21
18.999980926513665
 31
0.0
  0
LINE
  8
0
 62
0
 10
43.645938873291016
 20
19.31704902648925
 30
0.0
 11
43.615318298339844
 21
19.159826278686516
 31
0.0
  0
LINE
  8
0
 62
0
 10
43.6964111328125
 20
19.469064712524407
 30
0.0
 11
43.645938873291016
 21
19.31704902648925
 31
0.0
  0
LINE
  8
0
 62
0
 10
43.765907287597656
 20
19.613378524780266
 30
0.0
 11
43.6964111328125
 21
19.469064712524407
 31
0.0
  0
LINE
  8
0
 62
0
 10
43.85329055786133
 20
19.747619628906243
 30
0.0
 11
43.765907287597656
 21
19.613378524780266
 31
0.0
  0
LINE
  8
0
 62
0
 10
43.95711898803711
 20
19.869583129882805
 30
0.0
 11
43.85329055786133
 21
19.747619628906243
 31
0.0
  0
LINE
  8
0
 62
0
 10
44.0756950378418
 20
19.977270126342766
 30
0.0
 11
43.95711898803711
 21
19.869583129882805
 31
0.0
  0
LINE
  8
0
 62
0
 10
44.20706558227539
 20
20.068908691406243
 30
0.0
 11
44.0756950378418
 21
19.977270126342766
 31
0.0
  0
LINE
  8
0
 62
0
 10
44.34907913208008
 20
20.14299583435058
 30
0.0
 11
44.20706558227539
 21
20.068908691406243
 31
0.0
  0
LINE
  8
0
 62
0
 10
44.49939727783203
 20
20.19831466674804
 30
0.0
 11
44.34907913208008
 21
20.14299583435058
 31
0.0
  0
LINE
  8
0
 62
0
 10
44.655555725097656
 20
20.233957290649407
 30
0.0
 11
44.49939727783203
 21
20.19831466674804
 31
0.0
  0
LINE
  8
0
 62
0
 10
44.81499099731445
 20
20.249338150024407
 30
0.0
 11
44.655555725097656
 21
20.233957290649407
 31
0.0
  0
LINE
  8
0
 62
0
 10
44.9750862121582
 20
20.24420547485351
 30
0.0
 11
44.81499099731445
 21
20.249338150024407
 31
0.0
  0
LINE
  8
0
 62
0
 10
45.133209228515625
 20
20.218641281127923
 30
0.0
 11
44.9750862121582
 21
20.24420547485351
 31
0.0
  0
LINE
  8
0
 62
0
 10
45.28676223754883
 20
20.1730670928955
 30
0.0
 11
45.133209228515625
 21
20.218641281127923
 31
0.0
  0
LINE
  8
0
 62
0
 10
45.433231353759766
 20
20.108230590820305
 30
0.0
 11
45.28676223754883
 21
20.1730670928955
 31
0.0
  0
LINE
  8
0
 62
0
 10
45.5702018737793
 20
20.025196075439446
 30
0.0
 11
45.433231353759766
 21
20.108230590820305
 31
0.0
  0
LINE
  8
0
 62
0
 10
45.6954345703125
 20
19.925329208374016
 30
0.0
 11
45.5702018737793
 21
20.025196075439446
 31
0.0
  0
LINE
  8
0
 62
0
 10
45.80686569213867
 20
19.81026649475097
 30
0.0
 11
45.6954345703125
 21
19.925329208374016
 31
0.0
  0
LINE
  8
0
 62
0
 10
45.90266799926758
 20
19.681900024414055
 30
0.0
 11
45.80686569213867
 21
19.81026649475097
 31
0.0
  0
LINE
  8
0
 62
0
 10
45.98126983642578
 20
19.5423355102539
 30
0.0
 11
45.90266799926758
 21
19.681900024414055
 31
0.0
  0
LINE
  8
0
 62
0
 10
46.041378021240234
 20
19.39386558532714
 30
0.0
 11
45.98126983642578
 21
19.5423355102539
 31
0.0
  0
LINE
  8
0
 62
0
 10
46.08200454711914
 20
19.23892974853515
 30
0.0
 11
46.041378021240234
 21
19.39386558532714
 31
0.0
  0
LINE
  8
0
 62
0
 10
46.10248947143555
 20
19.08006858825683
 30
0.0
 11
46.08200454711914
 21
19.23892974853515
 31
0.0
  0
LINE
  8
0
 62
0
 10
46.10248947143555
 20
18.9198932647705
 30
0.0
 11
46.10248947143555
 21
19.08006858825683
 31
0.0
  0
LINE
  8
0
 62
0
 10
46.10248947143554
 20
75.91992950439453
 30
0.0
 11
46.10248947143554
 21
76.08010864257812
 31
0.0
  0
LINE
  8
0
 62
0
 10
46.08200454711914
 20
18.76103210449218
 30
0.0
 11
46.10248947143555
 21
18.9198932647705
 31
0.0
  0
LINE
  8
0
 62
0
 10
46.041378021240234
 20
18.606096267700188
 30
0.0
 11
46.08200454711914
 21
18.76103210449218
 31
0.0
  0
LINE
  8
0
 62
0
 10
45.98126983642578
 20
18.45762634277343
 30
0.0
 11
46.041378021240234
 21
18.606096267700188
 31
0.0
  0
LINE
  8
0
 62
0
 10
45.90266799926758
 20
18.318061828613274
 30
0.0
 11
45.98126983642578
 21
18.45762634277343
 31
0.0
  0
LINE
  8
0
 62
0
 10
45.80686569213867
 20
18.18969535827636
 30
0.0
 11
45.90266799926758
 21
18.318061828613274
 31
0.0
  0
LINE
  8
0
 62
0
 10
45.6954345703125
 20
18.074632644653313
 30
0.0
 11
45.80686569213867
 21
18.18969535827636
 31
0.0
  0
LINE
  8
0
 62
0
 10
45.5702018737793
 20
17.974765777587884
 30
0.0
 11
45.6954345703125
 21
18.074632644653313
 31
0.0
  0
LINE
  8
0
 62
0
 10
45.433231353759766
 20
17.891731262207024
 30
0.0
 11
45.5702018737793
 21
17.974765777587884
 31
0.0
  0
LINE
  8
0
 62
0
 10
45.28676223754883
 20
17.82689476013183
 30
0.0
 11
45.433231353759766
 21
17.891731262207024
 31
0.0
  0
LINE
  8
0
 62
0
 10
45.133209228515625
 20
17.781320571899407
 30
0.0
 11
45.28676223754883
 21
17.82689476013183
 31
0.0
  0
LINE
  8
0
 62
0
 10
44.9750862121582
 20
17.75575637817382
 30
0.0
 11
45.133209228515625
 21
17.781320571899407
 31
0.0
  0
LINE
  8
0
 62
0
 10
44.81499099731445
 20
17.750623703002923
 30
0.0
 11
44.9750862121582
 21
17.75575637817382
 31
0.0
  0
LINE
  8
0
 62
0
 10
44.655555725097656
 20
17.76600265502929
 30
0.0
 11
44.81499099731445
 21
17.750623703002923
 31
0.0
  0
LINE
  8
0
 62
0
 10
44.49939727783203
 20
17.801645278930657
 30
0.0
 11
44.655555725097656
 21
17.76600265502929
 31
0.0
  0
LINE
  8
0
 62
0
 10
44.34907913208008
 20
17.856964111328118
 30
0.0
 11
44.49939727783203
 21
17.801645278930657
 31
0.0
  0
LINE
  8
0
 62
0
 10
44.20706558227539
 20
17.931053161621087
 30
0.0
 11
44.34907913208008
 21
17.856964111328118
 31
0.0
  0
LINE
  8
0
 62
0
 10
44.0756950378418
 20
18.022691726684563
 30
0.0
 11
44.20706558227539
 21
17.931053161621087
 31
0.0
  0
LINE
  8
0
 62
0
 10
43.95711898803711
 20
18.13037681579589
 30
0.0
 11
44.0756950378418
 21
18.022691726684563
 31
0.0
  0
LINE
  8
0
 62
0
 10
43.85329055786133
 20
18.252342224121087
 30
0.0
 11
43.95711898803711
 21
18.13037681579589
 31
0.0
  0
LINE
  8
0
 62
0
 10
43.765907287597656
 20
18.386583328247063
 30
0.0
 11
43.85329055786133
 21
18.252342224121087
 31
0.0
  0
LINE
  8
0
 62
0
 10
43.6964111328125
 20
18.530897140502923
 30
0.0
 11
43.765907287597656
 21
18.386583328247063
 31
0.0
  0
LINE
  8
0
 62
0
 10
43.645938873291016
 20
18.68291282653808
 30
0.0
 11
43.6964111328125
 21
18.530897140502923
 31
0.0
  0
LINE
  8
0
 62
0
 10
43.615318298339844
 20
18.84013366699218
 30
0.0
 11
43.645938873291016
 21
18.68291282653808
 31
0.0
  0
LINE
  8
0
 62
0
 10
-161.85910034179688
 20
6.65113892588746e-14
 30
0.0
 11
-162.13465881347656
 21
0.016667513176767602
 31
0.0
  0
LINE
  8
0
 62
0
 10
-162.13465881347656
 20
0.0166675131767676
 30
0.0
 11
-162.4061737060547
 21
0.06642700731751178
 31
0.0
  0
LINE
  8
0
 62
0
 10
-162.4061737060547
 20
0.06642700731751178
 30
0.0
 11
-162.66973876953125
 21
0.1485528647899315
 31
0.0
  0
LINE
  8
0
 62
0
 10
-162.66973876953125
 20
0.1485528647899315
 30
0.0
 11
-162.9214630126953
 21
0.2618475258350059
 31
0.0
  0
LINE
  8
0
 62
0
 10
-162.9214630126953
 20
0.2618475258350059
 30
0.0
 11
-163.15769958496094
 21
0.40465888381001197
 31
0.0
  0
LINE
  8
0
 62
0
 10
-163.15769958496094
 20
0.40465888381001197
 30
0.0
 11
-163.375
 21
0.5749044418334647
 31
0.0
  0
LINE
  8
0
 62
0
 10
-163.375
 20
0.5749044418334647
 30
0.0
 11
-163.57020568847656
 21
0.7701016068458243
 31
0.0
  0
LINE
  8
0
 62
0
 10
-163.57020568847656
 20
0.7701016068458243
 30
0.0
 11
-163.74044799804688
 21
0.9874039888381644
 31
0.0
  0
LINE
  8
0
 62
0
 10
-163.74044799804688
 20
0.9874039888381644
 30
0.0
 11
-163.8832550048828
 21
1.2236428260802907
 31
0.0
  0
LINE
  8
0
 62
0
 10
-163.8832550048828
 20
1.2236428260802907
 30
0.0
 11
-163.99655151367188
 21
1.4753732681274099
 31
0.0
  0
LINE
  8
0
 62
0
 10
-163.99655151367188
 20
1.4753732681274099
 30
0.0
 11
-164.07867431640625
 21
1.738924384117095
 31
0.0
  0
LINE
  8
0
 62
0
 10
-164.07867431640625
 20
1.738924384117095
 30
0.0
 11
-164.12843322753906
 21
2.0104532241820974
 31
0.0
  0
LINE
  8
0
 62
0
 10
-164.12843322753906
 20
2.0104532241820974
 30
0.0
 11
-164.14511108398438
 21
2.286000013351409
 31
0.0
  0
LINE
  8
0
 62
0
 10
61.56889343261719
 20
9.387342700044969e-14
 30
0.0
 11
-161.85910034179688
 21
6.65113892588746e-14
 31
0.0
  0
LINE
  8
0
 62
0
 10
-146.3950653076172
 20
18.999980926513643
 30
0.0
 11
-146.3848114013672
 21
18.84013366699216
 31
0.0
  0
LINE
  8
0
 62
0
 10
-146.3848114013672
 20
19.159826278686495
 30
0.0
 11
-146.3950653076172
 21
18.999980926513643
 31
0.0
  0
LINE
  8
0
 62
0
 10
-146.35418701171875
 20
19.31704902648923
 30
0.0
 11
-146.3848114013672
 21
19.159826278686495
 31
0.0
  0
LINE
  8
0
 62
0
 10
-146.3037109375
 20
19.469064712524386
 30
0.0
 11
-146.35418701171875
 21
19.31704902648923
 31
0.0
  0
LINE
  8
0
 62
0
 10
-146.23422241210938
 20
19.613378524780245
 30
0.0
 11
-146.3037109375
 21
19.469064712524386
 31
0.0
  0
LINE
  8
0
 62
0
 10
-146.14683532714844
 20
19.74761962890622
 30
0.0
 11
-146.23422241210938
 21
19.613378524780245
 31
0.0
  0
LINE
  8
0
 62
0
 10
-146.0430145263672
 20
19.869583129882784
 30
0.0
 11
-146.14683532714844
 21
19.74761962890622
 31
0.0
  0
LINE
  8
0
 62
0
 10
-145.9244384765625
 20
19.977270126342745
 30
0.0
 11
-146.0430145263672
 21
19.869583129882784
 31
0.0
  0
LINE
  8
0
 62
0
 10
-145.79306030273438
 20
20.06890869140622
 30
0.0
 11
-145.9244384765625
 21
19.977270126342745
 31
0.0
  0
LINE
  8
0
 62
0
 10
-145.6510467529297
 20
20.142995834350558
 30
0.0
 11
-145.79306030273438
 21
20.06890869140622
 31
0.0
  0
LINE
  8
0
 62
0
 10
-145.500732421875
 20
20.19831466674802
 30
0.0
 11
-145.6510467529297
 21
20.142995834350558
 31
0.0
  0
LINE
  8
0
 62
0
 10
-145.34457397460938
 20
20.233957290649386
 30
0.0
 11
-145.500732421875
 21
20.19831466674802
 31
0.0
  0
LINE
  8
0
 62
0
 10
-145.1851348876953
 20
20.249338150024386
 30
0.0
 11
-145.34457397460938
 21
20.233957290649386
 31
0.0
  0
LINE
  8
0
 62
0
 10
-145.02503967285156
 20
20.244205474853487
 30
0.0
 11
-145.1851348876953
 21
20.249338150024386
 31
0.0
  0
LINE
  8
0
 62
0
 10
-144.86691284179688
 20
20.2186412811279
 30
0.0
 11
-145.02503967285156
 21
20.244205474853487
 31
0.0
  0
LINE
  8
0
 62
0
 10
-144.71336364746094
 20
20.17306709289548
 30
0.0
 11
-144.86691284179688
 21
20.2186412811279
 31
0.0
  0
LINE
  8
0
 62
0
 10
-144.56689453125
 20
20.108230590820284
 30
0.0
 11
-144.71336364746094
 21
20.17306709289548
 31
0.0
  0
LINE
  8
0
 62
0
 10
-144.429931640625
 20
20.025196075439425
 30
0.0
 11
-144.56689453125
 21
20.108230590820284
 31
0.0
  0
LINE
  8
0
 62
0
 10
-144.3046875
 20
19.925329208373995
 30
0.0
 11
-144.429931640625
 21
20.025196075439425
 31
0.0
  0
LINE
  8
0
 62
0
 10
-144.19326782226562
 20
19.810266494750948
 30
0.0
 11
-144.3046875
 21
19.925329208373995
 31
0.0
  0
LINE
  8
0
 62
0
 10
-144.0974578857422
 20
19.681900024414034
 30
0.0
 11
-144.19326782226562
 21
19.810266494750948
 31
0.0
  0
LINE
  8
0
 62
0
 10
-144.01885986328125
 20
19.542335510253878
 30
0.0
 11
-144.0974578857422
 21
19.681900024414034
 31
0.0
  0
LINE
  8
0
 62
0
 10
-143.95875549316406
 20
19.39386558532712
 30
0.0
 11
-144.01885986328125
 21
19.542335510253878
 31
0.0
  0
LINE
  8
0
 62
0
 10
-143.91812133789062
 20
19.238929748535128
 30
0.0
 11
-143.95875549316406
 21
19.39386558532712
 31
0.0
  0
LINE
  8
0
 62
0
 10
-143.89764404296875
 20
19.080068588256808
 30
0.0
 11
-143.91812133789062
 21
19.238929748535128
 31
0.0
  0
LINE
  8
0
 62
0
 10
-143.89764404296875
 20
18.91989326477048
 30
0.0
 11
-143.89764404296875
 21
19.080068588256808
 31
0.0
  0
LINE
  8
0
 62
0
 10
-143.89764404296875
 20
75.9199295043945
 30
0.0
 11
-143.89764404296875
 21
76.0801086425781
 31
0.0
  0
LINE
  8
0
 62
0
 10
-143.91812133789062
 20
18.76103210449216
 30
0.0
 11
-143.89764404296875
 21
18.91989326477048
 31
0.0
  0
LINE
  8
0
 62
0
 10
-143.95875549316406
 20
18.606096267700167
 30
0.0
 11
-143.91812133789062
 21
18.76103210449216
 31
0.0
  0
LINE
  8
0
 62
0
 10
-144.01885986328125
 20
18.45762634277341
 30
0.0
 11
-143.95875549316406
 21
18.606096267700167
 31
0.0
  0
LINE
  8
0
 62
0
 10
-144.0974578857422
 20
18.318061828613253
 30
0.0
 11
-144.01885986328125
 21
18.45762634277341
 31
0.0
  0
LINE
  8
0
 62
0
 10
-144.19326782226562
 20
18.18969535827634
 30
0.0
 11
-144.0974578857422
 21
18.318061828613253
 31
0.0
  0
LINE
  8
0
 62
0
 10
-144.3046875
 20
18.074632644653292
 30
0.0
 11
-144.19326782226562
 21
18.18969535827634
 31
0.0
  0
LINE
  8
0
 62
0
 10
-144.429931640625
 20
17.974765777587862
 30
0.0
 11
-144.3046875
 21
18.074632644653292
 31
0.0
  0
LINE
  8
0
 62
0
 10
-144.56689453125
 20
17.891731262207003
 30
0.0
 11
-144.429931640625
 21
17.974765777587862
 31
0.0
  0
LINE
  8
0
 62
0
 10
-144.71336364746094
 20
17.826894760131808
 30
0.0
 11
-144.56689453125
 21
17.891731262207003
 31
0.0
  0
LINE
  8
0
 62
0
 10
-144.86691284179688
 20
17.781320571899386
 30
0.0
 11
-144.71336364746094
 21
17.826894760131808
 31
0.0
  0
LINE
  8
0
 62
0
 10
-145.02503967285156
 20
17.7557563781738
 30
0.0
 11
-144.86691284179688
 21
17.781320571899386
 31
0.0
  0
LINE
  8
0
 62
0
 10
-145.1851348876953
 20
17.7506237030029
 30
0.0
 11
-145.02503967285156
 21
17.7557563781738
 31
0.0
  0
LINE
  8
0
 62
0
 10
-145.34457397460938
 20
17.76600265502927
 30
0.0
 11
-145.1851348876953
 21
17.7506237030029
 31
0.0
  0
LINE
  8
0
 62
0
 10
-145.500732421875
 20
17.801645278930636
 30
0.0
 11
-145.34457397460938
 21
17.76600265502927
 31
0.0
  0
LINE
  8
0
 62
0
 10
-145.6510467529297
 20
17.856964111328097
 30
0.0
 11
-145.500732421875
 21
17.801645278930636
 31
0.0
  0
LINE
  8
0
 62
0
 10
-145.79306030273438
 20
17.931053161621065
 30
0.0
 11
-145.6510467529297
 21
17.856964111328097
 31
0.0
  0
LINE
  8
0
 62
0
 10
-145.9244384765625
 20
18.022691726684542
 30
0.0
 11
-145.79306030273438
 21
17.931053161621065
 31
0.0
  0
LINE
  8
0
 62
0
 10
-146.0430145263672
 20
18.13037681579587
 30
0.0
 11
-145.9244384765625
 21
18.022691726684542
 31
0.0
  0
LINE
  8
0
 62
0
 10
-146.14683532714844
 20
18.252342224121065
 30
0.0
 11
-146.0430145263672
 21
18.13037681579587
 31
0.0
  0
LINE
  8
0
 62
0
 10
-146.23422241210938
 20
18.386583328247042
 30
0.0
 11
-146.14683532714844
 21
18.252342224121065
 31
0.0
  0
LINE
  8
0
 62
0
 10
-146.3037109375
 20
18.5308971405029
 30
0.0
 11
-146.23422241210938
 21
18.386583328247042
 31
0.0
  0
LINE
  8
0
 62
0
 10
-146.35418701171875
 20
18.682912826538058
 30
0.0
 11
-146.3037109375
 21
18.5308971405029
 31
0.0
  0
LINE
  8
0
 62
0
 10
-146.3848114013672
 20
18.84013366699216
 30
0.0
 11
-146.35418701171875
 21
18.682912826538058
 31
0.0
  0
LINE
  8
0
 62
0
 10
-146.3950653076172
 20
76.00002288818357
 30
0.0
 11
-146.3848114013672
 21
75.84017181396482
 31
0.0
  0
LINE
  8
0
 62
0
 10
-146.3848114013672
 20
76.15986633300778
 30
0.0
 11
-146.3950653076172
 21
76.00002288818357
 31
0.0
  0
LINE
  8
0
 62
0
 10
-146.35418701171875
 20
76.31708526611325
 30
0.0
 11
-146.3848114013672
 21
76.15986633300778
 31
0.0
  0
LINE
  8
0
 62
0
 10
-146.3037109375
 20
76.46910095214841
 30
0.0
 11
-146.35418701171875
 21
76.31708526611325
 31
0.0
  0
LINE
  8
0
 62
0
 10
-146.23422241210938
 20
76.61341857910153
 30
0.0
 11
-146.3037109375
 21
76.46910095214841
 31
0.0
  0
LINE
  8
0
 62
0
 10
-146.14683532714844
 20
76.74765777587888
 30
0.0
 11
-146.23422241210938
 21
76.61341857910153
 31
0.0
  0
LINE
  8
0
 62
0
 10
-146.0430145263672
 20
76.86962127685544
 30
0.0
 11
-146.14683532714844
 21
76.74765777587888
 31
0.0
  0
LINE
  8
0
 62
0
 10
-145.9244384765625
 20
76.97731018066403
 30
0.0
 11
-146.0430145263672
 21
76.86962127685544
 31
0.0
  0
LINE
  8
0
 62
0
 10
-145.79306030273438
 20
77.06894683837888
 30
0.0
 11
-145.9244384765625
 21
76.97731018066403
 31
0.0
  0
LINE
  8
0
 62
0
 10
-145.6510467529297
 20
77.14303588867185
 30
0.0
 11
-145.79306030273438
 21
77.06894683837888
 31
0.0
  0
LINE
  8
0
 62
0
 10
-145.500732421875
 20
77.19835662841794
 30
0.0
 11
-145.6510467529297
 21
77.14303588867185
 31
0.0
  0
LINE
  8
0
 62
0
 10
-145.34457397460938
 20
77.23399353027341
 30
0.0
 11
-145.500732421875
 21
77.19835662841794
 31
0.0
  0
LINE
  8
0
 62
0
 10
-145.1851348876953
 20
77.24937438964841
 30
0.0
 11
-145.34457397460938
 21
77.23399353027341
 31
0.0
  0
LINE
  8
0
 62
0
 10
-145.02503967285156
 20
77.24423980712888
 30
0.0
 11
-145.1851348876953
 21
77.24937438964841
 31
0.0
  0
LINE
  8
0
 62
0
 10
-144.86691284179688
 20
77.21868133544919
 30
0.0
 11
-145.02503967285156
 21
77.24423980712888
 31
0.0
  0
LINE
  8
0
 62
0
 10
-144.71336364746094
 20
77.1731033325195
 30
0.0
 11
-144.86691284179688
 21
77.21868133544919
 31
0.0
  0
LINE
  8
0
 62
0
 10
-144.56689453125
 20
77.10826873779294
 30
0.0
 11
-144.71336364746094
 21
77.1731033325195
 31
0.0
  0
LINE
  8
0
 62
0
 10
-144.429931640625
 20
77.02523803710935
 30
0.0
 11
-144.56689453125
 21
77.10826873779294
 31
0.0
  0
LINE
  8
0
 62
0
 10
-144.3046875
 20
76.92536926269528
 30
0.0
 11
-144.429931640625
 21
77.02523803710935
 31
0.0
  0
LINE
  8
0
 62
0
 10
-144.19326782226562
 20
76.81030273437497
 30
0.0
 11
-144.3046875
 21
76.92536926269528
 31
0.0
  0
LINE
  8
0
 62
0
 10
-144.0974578857422
 20
76.68193817138669
 30
0.0
 11
-144.19326782226562
 21
76.81030273437497
 31
0.0
  0
LINE
  8
0
 62
0
 10
-144.01885986328125
 20
76.54237365722653
 30
0.0
 11
-144.0974578857422
 21
76.68193817138669
 31
0.0
  0
LINE
  8
0
 62
0
 10
-143.95875549316406
 20
76.39390563964841
 30
0.0
 11
-144.01885986328125
 21
76.54237365722653
 31
0.0
  0
LINE
  8
0
 62
0
 10
-143.91812133789062
 20
76.23896789550778
 30
0.0
 11
-143.95875549316406
 21
76.39390563964841
 31
0.0
  0
LINE
  8
0
 62
0
 10
-143.89764404296875
 20
76.0801086425781
 30
0.0
 11
-143.91812133789062
 21
76.23896789550778
 31
0.0
  0
LINE
  8
0
 62
0
 10
-143.91812133789062
 20
75.76107025146482
 30
0.0
 11
-143.89764404296875
 21
75.9199295043945
 31
0.0
  0
LINE
  8
0
 62
0
 10
-143.95875549316406
 20
75.60613250732419
 30
0.0
 11
-143.91812133789062
 21
75.76107025146482
 31
0.0
  0
LINE
  8
0
 62
0
 10
-144.01885986328125
 20
75.45766448974607
 30
0.0
 11
-143.95875549316406
 21
75.60613250732419
 31
0.0
  0
LINE
  8
0
 62
0
 10
-144.0974578857422
 20
75.31809997558591
 30
0.0
 11
-144.01885986328125
 21
75.45766448974607
 31
0.0
  0
LINE
  8
0
 62
0
 10
-144.19326782226562
 20
75.18973541259763
 30
0.0
 11
-144.0974578857422
 21
75.31809997558591
 31
0.0
  0
LINE
  8
0
 62
0
 10
-144.3046875
 20
75.07466888427732
 30
0.0
 11
-144.19326782226562
 21
75.18973541259763
 31
0.0
  0
LINE
  8
0
 62
0
 10
-144.429931640625
 20
74.97480010986325
 30
0.0
 11
-144.3046875
 21
75.07466888427732
 31
0.0
  0
LINE
  8
0
 62
0
 10
-144.56689453125
 20
74.89176940917966
 30
0.0
 11
-144.429931640625
 21
74.97480010986325
 31
0.0
  0
LINE
  8
0
 62
0
 10
-144.71336364746094
 20
74.8269348144531
 30
0.0
 11
-144.56689453125
 21
74.89176940917966
 31
0.0
  0
LINE
  8
0
 62
0
 10
-144.86691284179688
 20
74.78135681152341
 30
0.0
 11
-144.71336364746094
 21
74.8269348144531
 31
0.0
  0
LINE
  8
0
 62
0
 10
-145.02503967285156
 20
74.75579833984372
 30
0.0
 11
-144.86691284179688
 21
74.78135681152341
 31
0.0
  0
LINE
  8
0
 62
0
 10
-145.1851348876953
 20
74.75066375732419
 30
0.0
 11
-145.02503967285156
 21
74.75579833984372
 31
0.0
  0
LINE
  8
0
 62
0
 10
-145.34457397460938
 20
74.76604461669919
 30
0.0
 11
-145.1851348876953
 21
74.75066375732419
 31
0.0
  0
LINE
  8
0
 62
0
 10
-145.500732421875
 20
74.80168151855466
 30
0.0
 11
-145.34457397460938
 21
74.76604461669919
 31
0.0
  0
LINE
  8
0
 62
0
 10
-145.6510467529297
 20
74.85700225830075
 30
0.0
 11
-145.500732421875
 21
74.80168151855466
 31
0.0
  0
LINE
  8
0
 62
0
 10
-145.79306030273438
 20
74.93109130859372
 30
0.0
 11
-145.6510467529297
 21
74.85700225830075
 31
0.0
  0
LINE
  8
0
 62
0
 10
-145.9244384765625
 20
75.02272796630857
 30
0.0
 11
-145.79306030273438
 21
74.93109130859372
 31
0.0
  0
LINE
  8
0
 62
0
 10
-146.0430145263672
 20
75.13041687011716
 30
0.0
 11
-145.9244384765625
 21
75.02272796630857
 31
0.0
  0
LINE
  8
0
 62
0
 10
-146.14683532714844
 20
75.25238037109372
 30
0.0
 11
-146.0430145263672
 21
75.13041687011716
 31
0.0
  0
LINE
  8
0
 62
0
 10
-146.23422241210938
 20
75.38661956787107
 30
0.0
 11
-146.14683532714844
 21
75.25238037109372
 31
0.0
  0
LINE
  8
0
 62
0
 10
-146.3037109375
 20
75.53093719482419
 30
0.0
 11
-146.23422241210938
 21
75.38661956787107
 31
0.0
  0
LINE
  8
0
 62
0
 10
-146.35418701171875
 20
75.68295288085935
 30
0.0
 11
-146.3037109375
 21
75.53093719482419
 31
0.0
  0
LINE
  8
0
 62
0
 10
-146.3848114013672
 20
75.84017181396482
 30
0.0
 11
-146.35418701171875
 21
75.68295288085935
 31
0.0
  0
LINE
  8
0
 62
0
 10
-51.39500808715821
 20
57.00000762939452
 30
0.0
 11
-51.38474273681641
 21
56.84016036987303
 31
0.0
  0
LINE
  8
0
 62
0
 10
-51.38474273681641
 20
57.159851074218736
 30
0.0
 11
-51.39500808715821
 21
57.00000762939452
 31
0.0
  0
LINE
  8
0
 62
0
 10
-51.35412597656251
 20
57.31707382202147
 30
0.0
 11
-51.38474273681641
 21
57.159851074218736
 31
0.0
  0
LINE
  8
0
 62
0
 10
-51.30365371704102
 20
57.469089508056626
 30
0.0
 11
-51.35412597656251
 21
57.31707382202147
 31
0.0
  0
LINE
  8
0
 62
0
 10
-51.2341537475586
 20
57.613403320312486
 30
0.0
 11
-51.30365371704102
 21
57.469089508056626
 31
0.0
  0
LINE
  8
0
 62
0
 10
-51.146774291992195
 20
57.747646331787095
 30
0.0
 11
-51.2341537475586
 21
57.613403320312486
 31
0.0
  0
LINE
  8
0
 62
0
 10
-51.04294204711915
 20
57.86960983276366
 30
0.0
 11
-51.146774291992195
 21
57.747646331787095
 31
0.0
  0
LINE
  8
0
 62
0
 10
-50.924369812011726
 20
57.977294921874986
 30
0.0
 11
-51.04294204711915
 21
57.86960983276366
 31
0.0
  0
LINE
  8
0
 62
0
 10
-50.79299926757813
 20
58.068935394287095
 30
0.0
 11
-50.924369812011726
 21
57.977294921874986
 31
0.0
  0
LINE
  8
0
 62
0
 10
-50.650985717773445
 20
58.1430206298828
 30
0.0
 11
-50.79299926757813
 21
58.068935394287095
 31
0.0
  0
LINE
  8
0
 62
0
 10
-50.50066757202149
 20
58.19834136962889
 30
0.0
 11
-50.650985717773445
 21
58.1430206298828
 31
0.0
  0
LINE
  8
0
 62
0
 10
-50.3445053100586
 20
58.233982086181626
 30
0.0
 11
-50.50066757202149
 21
58.19834136962889
 31
0.0
  0
LINE
  8
0
 62
0
 10
-50.185070037841804
 20
58.249362945556626
 30
0.0
 11
-50.3445053100586
 21
58.233982086181626
 31
0.0
  0
LINE
  8
0
 62
0
 10
-50.02497863769532
 20
58.24423217773436
 30
0.0
 11
-50.185070037841804
 21
58.249362945556626
 31
0.0
  0
LINE
  8
0
 62
0
 10
-49.8668556213379
 20
58.21866607666014
 30
0.0
 11
-50.02497863769532
 21
58.24423217773436
 31
0.0
  0
LINE
  8
0
 62
0
 10
-49.71329879760743
 20
58.17309188842772
 30
0.0
 11
-49.8668556213379
 21
58.21866607666014
 31
0.0
  0
LINE
  8
0
 62
0
 10
-49.56683349609376
 20
58.10825729370116
 30
0.0
 11
-49.71329879760743
 21
58.17309188842772
 31
0.0
  0
LINE
  8
0
 62
0
 10
-49.42985916137696
 20
58.0252227783203
 30
0.0
 11
-49.56683349609376
 21
58.10825729370116
 31
0.0
  0
LINE
  8
0
 62
0
 10
-49.30463027954102
 20
57.925354003906236
 30
0.0
 11
-49.42985916137696
 21
58.0252227783203
 31
0.0
  0
LINE
  8
0
 62
0
 10
-49.19319915771485
 20
57.81029129028319
 30
0.0
 11
-49.30463027954102
 21
57.925354003906236
 31
0.0
  0
LINE
  8
0
 62
0
 10
-49.097396850585945
 20
57.68192672729491
 30
0.0
 11
-49.19319915771485
 21
57.81029129028319
 31
0.0
  0
LINE
  8
0
 62
0
 10
-49.01879501342774
 20
57.54236221313475
 30
0.0
 11
-49.097396850585945
 21
57.68192672729491
 31
0.0
  0
LINE
  8
0
 62
0
 10
-48.95868682861329
 20
57.39389038085936
 30
0.0
 11
-49.01879501342774
 21
57.54236221313475
 31
0.0
  0
LINE
  8
0
 62
0
 10
-48.91805648803712
 20
57.238956451416
 30
0.0
 11
-48.95868682861329
 21
57.39389038085936
 31
0.0
  0
LINE
  8
0
 62
0
 10
-48.897575378417976
 20
57.08009338378905
 30
0.0
 11
-48.91805648803712
 21
57.238956451416
 31
0.0
  0
LINE
  8
0
 62
0
 10
-48.897575378417976
 20
56.91991806030272
 30
0.0
 11
-48.897575378417976
 21
57.08009338378905
 31
0.0
  0
LINE
  8
0
 62
0
 10
-48.91805648803712
 20
56.76105880737303
 30
0.0
 11
-48.897575378417976
 21
56.91991806030272
 31
0.0
  0
LINE
  8
0
 62
0
 10
-48.95868682861329
 20
56.60612106323241
 30
0.0
 11
-48.91805648803712
 21
56.76105880737303
 31
0.0
  0
LINE
  8
0
 62
0
 10
-49.01879501342774
 20
56.45765304565428
 30
0.0
 11
-48.95868682861329
 21
56.60612106323241
 31
0.0
  0
LINE
  8
0
 62
0
 10
-49.097396850585945
 20
56.318088531494126
 30
0.0
 11
-49.01879501342774
 21
56.45765304565428
 31
0.0
  0
LINE
  8
0
 62
0
 10
-49.19319915771485
 20
56.18972015380858
 30
0.0
 11
-49.097396850585945
 21
56.318088531494126
 31
0.0
  0
LINE
  8
0
 62
0
 10
-49.30463027954102
 20
56.07465744018553
 30
0.0
 11
-49.19319915771485
 21
56.18972015380858
 31
0.0
  0
LINE
  8
0
 62
0
 10
-49.42985916137696
 20
55.974792480468736
 30
0.0
 11
-49.30463027954102
 21
56.07465744018553
 31
0.0
  0
LINE
  8
0
 62
0
 10
-49.56683349609376
 20
55.891757965087876
 30
0.0
 11
-49.42985916137696
 21
55.974792480468736
 31
0.0
  0
LINE
  8
0
 62
0
 10
-49.71329879760743
 20
55.82691955566405
 30
0.0
 11
-49.56683349609376
 21
55.891757965087876
 31
0.0
  0
LINE
  8
0
 62
0
 10
-49.8668556213379
 20
55.781345367431626
 30
0.0
 11
-49.71329879760743
 21
55.82691955566405
 31
0.0
  0
LINE
  8
0
 62
0
 10
-50.02497863769532
 20
55.75578308105467
 30
0.0
 11
-49.8668556213379
 21
55.781345367431626
 31
0.0
  0
LINE
  8
0
 62
0
 10
-50.185070037841804
 20
55.75064849853514
 30
0.0
 11
-50.02497863769532
 21
55.75578308105467
 31
0.0
  0
LINE
  8
0
 62
0
 10
-50.3445053100586
 20
55.76602935791014
 30
0.0
 11
-50.185070037841804
 21
55.75064849853514
 31
0.0
  0
LINE
  8
0
 62
0
 10
-50.50066757202149
 20
55.801670074462876
 30
0.0
 11
-50.3445053100586
 21
55.76602935791014
 31
0.0
  0
LINE
  8
0
 62
0
 10
-50.650985717773445
 20
55.85699081420897
 30
0.0
 11
-50.50066757202149
 21
55.801670074462876
 31
0.0
  0
LINE
  8
0
 62
0
 10
-50.79299926757813
 20
55.93107604980467
 30
0.0
 11
-50.650985717773445
 21
55.85699081420897
 31
0.0
  0
LINE
  8
0
 62
0
 10
-50.924369812011726
 20
56.02271652221678
 30
0.0
 11
-50.79299926757813
 21
55.93107604980467
 31
0.0
  0
LINE
  8
0
 62
0
 10
-51.04294204711915
 20
56.13040161132811
 30
0.0
 11
-50.924369812011726
 21
56.02271652221678
 31
0.0
  0
LINE
  8
0
 62
0
 10
-51.146774291992195
 20
56.25236892700194
 30
0.0
 11
-51.04294204711915
 21
56.13040161132811
 31
0.0
  0
LINE
  8
0
 62
0
 10
-51.2341537475586
 20
56.38660812377928
 30
0.0
 11
-51.146774291992195
 21
56.25236892700194
 31
0.0
  0
LINE
  8
0
 62
0
 10
-51.30365371704102
 20
56.53092193603514
 30
0.0
 11
-51.2341537475586
 21
56.38660812377928
 31
0.0
  0
LINE
  8
0
 62
0
 10
-51.35412597656251
 20
56.6829376220703
 30
0.0
 11
-51.30365371704102
 21
56.53092193603514
 31
0.0
  0
LINE
  8
0
 62
0
 10
-51.38474273681641
 20
56.84016036987303
 30
0.0
 11
-51.35412597656251
 21
56.6829376220703
 31
0.0
  0
LINE
  8
0
 62
0
 10
43.605056762695305
 20
76.0000228881836
 30
0.0
 11
43.61531829833984
 21
75.84017181396484
 31
0.0
  0
LINE
  8
0
 62
0
 10
43.61531829833984
 20
76.15986633300781
 30
0.0
 11
43.605056762695305
 21
76.0000228881836
 31
0.0
  0
LINE
  8
0
 62
0
 10
43.64593887329101
 20
76.31708526611328
 30
0.0
 11
43.61531829833984
 21
76.15986633300781
 31
0.0
  0
LINE
  8
0
 62
0
 10
43.69641113281249
 20
76.46910095214844
 30
0.0
 11
43.64593887329101
 21
76.31708526611328
 31
0.0
  0
LINE
  8
0
 62
0
 10
43.76590728759765
 20
76.61341857910156
 30
0.0
 11
43.69641113281249
 21
76.46910095214844
 31
0.0
  0
LINE
  8
0
 62
0
 10
43.85329055786132
 20
76.7476577758789
 30
0.0
 11
43.76590728759765
 21
76.61341857910156
 31
0.0
  0
LINE
  8
0
 62
0
 10
43.9571189880371
 20
76.86962127685547
 30
0.0
 11
43.85329055786132
 21
76.7476577758789
 31
0.0
  0
LINE
  8
0
 62
0
 10
44.07569503784179
 20
76.97731018066406
 30
0.0
 11
43.9571189880371
 21
76.86962127685547
 31
0.0
  0
LINE
  8
0
 62
0
 10
44.20706558227538
 20
77.0689468383789
 30
0.0
 11
44.07569503784179
 21
76.97731018066406
 31
0.0
  0
LINE
  8
0
 62
0
 10
44.34907913208007
 20
77.14303588867188
 30
0.0
 11
44.20706558227538
 21
77.0689468383789
 31
0.0
  0
LINE
  8
0
 62
0
 10
44.499397277832024
 20
77.19835662841797
 30
0.0
 11
44.34907913208007
 21
77.14303588867188
 31
0.0
  0
LINE
  8
0
 62
0
 10
44.65555572509765
 20
77.23399353027344
 30
0.0
 11
44.499397277832024
 21
77.19835662841797
 31
0.0
  0
LINE
  8
0
 62
0
 10
44.814990997314446
 20
77.24937438964844
 30
0.0
 11
44.65555572509765
 21
77.23399353027344
 31
0.0
  0
LINE
  8
0
 62
0
 10
44.975086212158196
 20
77.2442398071289
 30
0.0
 11
44.814990997314446
 21
77.24937438964844
 31
0.0
  0
LINE
  8
0
 62
0
 10
45.13320922851562
 20
77.21868133544922
 30
0.0
 11
44.975086212158196
 21
77.2442398071289
 31
0.0
  0
LINE
  8
0
 62
0
 10
45.28676223754882
 20
77.17310333251953
 30
0.0
 11
45.13320922851562
 21
77.21868133544922
 31
0.0
  0
LINE
  8
0
 62
0
 10
45.43323135375976
 20
77.10826873779297
 30
0.0
 11
45.28676223754882
 21
77.17310333251953
 31
0.0
  0
LINE
  8
0
 62
0
 10
45.57020187377929
 20
77.02523803710938
 30
0.0
 11
45.43323135375976
 21
77.10826873779297
 31
0.0
  0
LINE
  8
0
 62
0
 10
45.69543457031249
 20
76.92536926269531
 30
0.0
 11
45.57020187377929
 21
77.02523803710938
 31
0.0
  0
LINE
  8
0
 62
0
 10
45.806865692138665
 20
76.810302734375
 30
0.0
 11
45.69543457031249
 21
76.92536926269531
 31
0.0
  0
LINE
  8
0
 62
0
 10
45.90266799926757
 20
76.68193817138672
 30
0.0
 11
45.806865692138665
 21
76.810302734375
 31
0.0
  0
LINE
  8
0
 62
0
 10
45.981269836425774
 20
76.54237365722656
 30
0.0
 11
45.90266799926757
 21
76.68193817138672
 31
0.0
  0
LINE
  8
0
 62
0
 10
46.04137802124023
 20
76.39390563964844
 30
0.0
 11
45.981269836425774
 21
76.54237365722656
 31
0.0
  0
LINE
  8
0
 62
0
 10
46.08200454711913
 20
76.23896789550781
 30
0.0
 11
46.04137802124023
 21
76.39390563964844
 31
0.0
  0
LINE
  8
0
 62
0
 10
46.10248947143554
 20
76.08010864257812
 30
0.0
 11
46.08200454711913
 21
76.23896789550781
 31
0.0
  0
LINE
  8
0
 62
0
 10
46.08200454711913
 20
75.76107025146484
 30
0.0
 11
46.10248947143554
 21
75.91992950439453
 31
0.0
  0
LINE
  8
0
 62
0
 10
46.04137802124023
 20
75.60613250732422
 30
0.0
 11
46.08200454711913
 21
75.76107025146484
 31
0.0
  0
LINE
  8
0
 62
0
 10
45.981269836425774
 20
75.4576644897461
 30
0.0
 11
46.04137802124023
 21
75.60613250732422
 31
0.0
  0
LINE
  8
0
 62
0
 10
45.90266799926757
 20
75.31809997558594
 30
0.0
 11
45.981269836425774
 21
75.4576644897461
 31
0.0
  0
LINE
  8
0
 62
0
 10
45.806865692138665
 20
75.18973541259766
 30
0.0
 11
45.90266799926757
 21
75.31809997558594
 31
0.0
  0
LINE
  8
0
 62
0
 10
45.69543457031249
 20
75.07466888427734
 30
0.0
 11
45.806865692138665
 21
75.18973541259766
 31
0.0
  0
LINE
  8
0
 62
0
 10
45.57020187377929
 20
74.97480010986328
 30
0.0
 11
45.69543457031249
 21
75.07466888427734
 31
0.0
  0
LINE
  8
0
 62
0
 10
45.43323135375976
 20
74.89176940917969
 30
0.0
 11
45.57020187377929
 21
74.97480010986328
 31
0.0
  0
LINE
  8
0
 62
0
 10
45.28676223754882
 20
74.82693481445312
 30
0.0
 11
45.43323135375976
 21
74.89176940917969
 31
0.0
  0
LINE
  8
0
 62
0
 10
45.13320922851562
 20
74.78135681152344
 30
0.0
 11
45.28676223754882
 21
74.82693481445312
 31
0.0
  0
LINE
  8
0
 62
0
 10
44.975086212158196
 20
74.75579833984375
 30
0.0
 11
45.13320922851562
 21
74.78135681152344
 31
0.0
  0
LINE
  8
0
 62
0
 10
44.814990997314446
 20
74.75066375732422
 30
0.0
 11
44.975086212158196
 21
74.75579833984375
 31
0.0
  0
LINE
  8
0
 62
0
 10
44.65555572509765
 20
74.76604461669922
 30
0.0
 11
44.814990997314446
 21
74.75066375732422
 31
0.0
  0
LINE
  8
0
 62
0
 10
44.499397277832024
 20
74.80168151855469
 30
0.0
 11
44.65555572509765
 21
74.76604461669922
 31
0.0
  0
LINE
  8
0
 62
0
 10
44.34907913208007
 20
74.85700225830078
 30
0.0
 11
44.499397277832024
 21
74.80168151855469
 31
0.0
  0
LINE
  8
0
 62
0
 10
44.20706558227538
 20
74.93109130859375
 30
0.0
 11
44.34907913208007
 21
74.85700225830078
 31
0.0
  0
LINE
  8
0
 62
0
 10
44.07569503784179
 20
75.0227279663086
 30
0.0
 11
44.20706558227538
 21
74.93109130859375
 31
0.0
  0
LINE
  8
0
 62
0
 10
43.9571189880371
 20
75.13041687011719
 30
0.0
 11
44.07569503784179
 21
75.0227279663086
 31
0.0
  0
LINE
  8
0
 62
0
 10
43.85329055786132
 20
75.25238037109375
 30
0.0
 11
43.9571189880371
 21
75.13041687011719
 31
0.0
  0
LINE
  8
0
 62
0
 10
43.76590728759765
 20
75.3866195678711
 30
0.0
 11
43.85329055786132
 21
75.25238037109375
 31
0.0
  0
LINE
  8
0
 62
0
 10
43.69641113281249
 20
75.53093719482422
 30
0.0
 11
43.76590728759765
 21
75.3866195678711
 31
0.0
  0
LINE
  8
0
 62
0
 10
43.64593887329101
 20
75.68295288085938
 30
0.0
 11
43.69641113281249
 21
75.53093719482422
 31
0.0
  0
LINE
  8
0
 62
0
 10
43.61531829833984
 20
75.84017181396484
 30
0.0
 11
43.64593887329101
 21
75.68295288085938
 31
0.0
  0
LINE
  8
0
 62
0
 10
-164.14511108398438
 20
92.713996887207
 30
0.0
 11
-164.12843322753906
 21
92.98954772949216
 31
0.0
  0
LINE
  8
0
 62
0
 10
-164.12843322753906
 20
92.98954772949216
 30
0.0
 11
-164.07867431640625
 21
93.26107788085935
 31
0.0
  0
LINE
  8
0
 62
0
 10
-164.07867431640625
 20
93.26107788085935
 30
0.0
 11
-163.99655151367188
 21
93.52462768554685
 31
0.0
  0
LINE
  8
0
 62
0
 10
-163.99655151367188
 20
93.52462768554685
 30
0.0
 11
-163.8832550048828
 21
93.77635955810544
 31
0.0
  0
LINE
  8
0
 62
0
 10
-163.8832550048828
 20
93.77635955810544
 30
0.0
 11
-163.74044799804688
 21
94.01259613037107
 31
0.0
  0
LINE
  8
0
 62
0
 10
-163.74044799804688
 20
94.01259613037107
 30
0.0
 11
-163.57020568847656
 21
94.22989654541013
 31
0.0
  0
LINE
  8
0
 62
0
 10
-163.57020568847656
 20
94.22989654541013
 30
0.0
 11
-163.375
 21
94.42509460449216
 31
0.0
  0
LINE
  8
0
 62
0
 10
-163.375
 20
94.42509460449216
 30
0.0
 11
-163.15769958496094
 21
94.595344543457
 31
0.0
  0
LINE
  8
0
 62
0
 10
-163.15769958496094
 20
94.595344543457
 30
0.0
 11
-162.9214630126953
 21
94.73815155029294
 31
0.0
  0
LINE
  8
0
 62
0
 10
-162.9214630126953
 20
94.73815155029294
 30
0.0
 11
-162.66973876953125
 21
94.851448059082
 31
0.0
  0
LINE
  8
0
 62
0
 10
-162.66973876953125
 20
94.851448059082
 30
0.0
 11
-162.4061737060547
 21
94.93357086181638
 31
0.0
  0
LINE
  8
0
 62
0
 10
-162.4061737060547
 20
94.93357086181638
 30
0.0
 11
-162.13465881347656
 21
94.98332977294919
 31
0.0
  0
LINE
  8
0
 62
0
 10
-162.13465881347656
 20
94.98332977294919
 30
0.0
 11
-161.85910034179688
 21
94.99999999999997
 31
0.0
  0
LINE
  8
0
 62
0
 10
-161.85910034179688
 20
94.99999999999997
 30
0.0
 11
61.56889343261719
 21
95.0
 31
0.0
  0
LINE
  8
0
 62
0
 10
61.56889343261717
 20
95.0
 30
0.0
 11
61.844440460205064
 21
94.98332977294922
 31
0.0
  0
LINE
  8
0
 62
0
 10
61.844440460205064
 20
94.98332977294922
 30
0.0
 11
62.11597061157225
 21
94.9335708618164
 31
0.0
  0
LINE
  8
0
 62
0
 10
62.11597061157225
 20
94.9335708618164
 30
0.0
 11
62.37952041625975
 21
94.85144805908203
 31
0.0
  0
LINE
  8
0
 62
0
 10
62.37952041625975
 20
94.85144805908203
 30
0.0
 11
62.631252288818345
 21
94.73815155029297
 31
0.0
  0
LINE
  8
0
 62
0
 10
62.631252288818345
 20
94.73815155029297
 30
0.0
 11
62.867492675781236
 21
94.59534454345703
 31
0.0
  0
LINE
  8
0
 62
0
 10
62.867492675781236
 20
94.59534454345703
 30
0.0
 11
63.0847930908203
 21
94.42509460449219
 31
0.0
  0
LINE
  8
0
 62
0
 10
63.0847930908203
 20
94.42509460449219
 30
0.0
 11
63.27999114990233
 21
94.22989654541016
 31
0.0
  0
LINE
  8
0
 62
0
 10
63.27999114990233
 20
94.22989654541016
 30
0.0
 11
63.45023727416991
 21
94.0125961303711
 31
0.0
  0
LINE
  8
0
 62
0
 10
63.45023727416991
 20
94.0125961303711
 30
0.0
 11
63.59304809570311
 21
93.77635955810547
 31
0.0
  0
LINE
  8
0
 62
0
 10
63.59304809570311
 20
93.77635955810547
 30
0.0
 11
63.70634078979491
 21
93.52462768554688
 31
0.0
  0
LINE
  8
0
 62
0
 10
63.70634078979491
 20
93.52462768554688
 30
0.0
 11
63.78846740722655
 21
93.26107788085938
 31
0.0
  0
LINE
  8
0
 62
0
 10
63.78846740722655
 20
93.26107788085938
 30
0.0
 11
63.83822631835936
 21
92.98954772949219
 31
0.0
  0
LINE
  8
0
 62
0
 10
63.83822631835936
 20
92.98954772949219
 30
0.0
 11
63.85489654541014
 21
92.71399688720703
 31
0.0
  0
LINE
  8
0
 62
0
 10
63.854896545410156
 20
2.286000013351437
 30
0.0
 11
63.838226318359375
 21
2.0104532241821254
 31
0.0
  0
LINE
  8
0
 62
0
 10
63.838226318359375
 20
2.0104532241821254
 30
0.0
 11
63.78846740722656
 21
1.738924384117123
 31
0.0
  0
LINE
  8
0
 62
0
 10
63.78846740722656
 20
1.738924384117123
 30
0.0
 11
63.70634078979492
 21
1.4753732681274379
 31
0.0
  0
LINE
  8
0
 62
0
 10
63.70634078979492
 20
1.4753732681274379
 30
0.0
 11
63.593048095703125
 21
1.2236428260803187
 31
0.0
  0
LINE
  8
0
 62
0
 10
63.593048095703125
 20
1.2236428260803187
 30
0.0
 11
63.45023727416992
 21
0.9874039888381922
 31
0.0
  0
LINE
  8
0
 62
0
 10
63.45023727416992
 20
0.9874039888381922
 30
0.0
 11
63.279991149902344
 21
0.770101606845852
 31
0.0
  0
LINE
  8
0
 62
0
 10
63.279991149902344
 20
0.770101606845852
 30
0.0
 11
63.08479309082031
 21
0.5749044418334924
 31
0.0
  0
LINE
  8
0
 62
0
 10
63.08479309082031
 20
0.5749044418334924
 30
0.0
 11
62.86749267578125
 21
0.40465888381003967
 31
0.0
  0
LINE
  8
0
 62
0
 10
62.86749267578125
 20
0.40465888381003967
 30
0.0
 11
62.63125228881836
 21
0.2618475258350335
 31
0.0
  0
LINE
  8
0
 62
0
 10
62.63125228881836
 20
0.2618475258350335
 30
0.0
 11
62.379520416259766
 21
0.14855286478995905
 31
0.0
  0
LINE
  8
0
 62
0
 10
62.379520416259766
 20
0.14855286478995905
 30
0.0
 11
62.115970611572266
 21
0.06642700731753927
 31
0.0
  0
LINE
  8
0
 62
0
 10
62.115970611572266
 20
0.06642700731753927
 30
0.0
 11
61.84444046020508
 21
0.016667513176795025
 31
0.0
  0
LINE
  8
0
 62
0
 10
61.84444046020508
 20
0.01666751317679503
 30
0.0
 11
61.56889343261719
 21
9.387282617900894e-14
 31
0.0
  0
LINE
  8
0
 62
0
 10
63.85489654541014
 20
92.71399688720703
 30
0.0
 11
63.854896545410156
 21
2.2860000133514404
 31
0.0
  0
LINE
  8
0
 62
0
 10
-164.14511108398438
 20
2.286000013351409
 30
0.0
 11
-164.14511108398438
 21
92.713996887207
 31
0.0
  0
LINE
  8
0
 62
0
 10
-123.64482879638672
 20
22.49943351745603
 30
0.0
 11
-123.64482879638672
 21
21.500333786010717
 31
0.0
  0
LINE
  8
0
 62
0
 10
-123.64482879638672
 20
31.400039672851538
 30
0.0
 11
-123.64482879638672
 21
25.599935531616186
 31
0.0
  0
LINE
  8
0
 62
0
 10
-123.64482879638672
 20
35.499641418457
 30
0.0
 11
-123.64482879638672
 21
34.4995422363281
 31
0.0
  0
LINE
  8
0
 62
0
 10
-123.64482879638672
 20
41.499446868896456
 30
0.0
 11
-123.64482879638672
 21
40.50034713745114
 31
0.0
  0
LINE
  8
0
 62
0
 10
-123.64482879638672
 20
50.40005111694333
 30
0.0
 11
-123.64482879638672
 21
44.59994888305661
 31
0.0
  0
LINE
  8
0
 62
0
 10
-123.64482879638672
 20
54.4996528625488
 30
0.0
 11
-123.64482879638672
 21
53.49955368041989
 31
0.0
  0
LINE
  8
0
 62
0
 10
-123.64482879638673
 20
60.49945831298825
 30
0.0
 11
-123.64482879638673
 21
59.50035858154294
 31
0.0
  0
LINE
  8
0
 62
0
 10
-123.64482879638673
 20
69.40006256103513
 30
0.0
 11
-123.64482879638673
 21
63.59996032714841
 31
0.0
  0
LINE
  8
0
 62
0
 10
-123.64482879638673
 20
73.4996643066406
 30
0.0
 11
-123.64482879638673
 21
72.49956512451169
 31
0.0
  0
LINE
  8
0
 62
0
 10
-123.64482879638673
 20
79.49947357177732
 30
0.0
 11
-123.64482879638673
 21
78.500373840332
 31
0.0
  0
LINE
  8
0
 62
0
 10
-123.64482879638673
 20
88.40007781982419
 30
0.0
 11
-123.64482879638673
 21
82.59997558593747
 31
0.0
  0
LINE
  8
0
 62
0
 10
-123.64482879638673
 20
92.49967956542966
 30
0.0
 11
-123.64482879638673
 21
91.49958038330075
 31
0.0
  0
LINE
  8
0
 62
0
 10
-123.64482879638672
 20
3.4994211196899148
 30
0.0
 11
-123.64482879638672
 21
2.500320672988865
 31
0.0
  0
LINE
  8
0
 62
0
 10
-123.64482879638672
 20
12.400026321411106
 30
0.0
 11
-123.64482879638672
 21
6.599922657012913
 31
0.0
  0
LINE
  8
0
 62
0
 10
-123.64482879638672
 20
16.499628067016577
 30
0.0
 11
-123.64482879638672
 21
15.499527931213352
 31
0.0
  0
LINE
  8
0
 62
0
 10
-124.4454345703125
 20
22.49943351745603
 30
0.0
 11
-123.64482879638672
 21
22.49943351745603
 31
0.0
  0
LINE
  8
0
 62
0
 10
-109.64527130126953
 20
22.49943351745603
 30
0.0
 11
-108.84601593017578
 21
22.49943351745603
 31
0.0
  0
LINE
  8
0
 62
0
 10
-90.645263671875
 20
22.499433517456033
 30
0.0
 11
-89.84600067138672
 21
22.499433517456033
 31
0.0
  0
LINE
  8
0
 62
0
 10
-105.44541931152344
 20
22.49943351745603
 30
0.0
 11
-104.64482116699219
 21
22.49943351745603
 31
0.0
  0
LINE
  8
0
 62
0
 10
-71.64524841308594
 20
22.499433517456033
 30
0.0
 11
-70.84598541259766
 21
22.499433517456033
 31
0.0
  0
LINE
  8
0
 62
0
 10
-86.44540405273438
 20
22.499433517456033
 30
0.0
 11
-85.64480590820312
 21
22.499433517456033
 31
0.0
  0
LINE
  8
0
 62
0
 10
-52.645233154296875
 20
22.499433517456037
 30
0.0
 11
-51.84597396850586
 21
22.499433517456037
 31
0.0
  0
LINE
  8
0
 62
0
 10
-67.44538879394531
 20
22.499433517456033
 30
0.0
 11
-66.64479064941406
 21
22.499433517456037
 31
0.0
  0
LINE
  8
0
 62
0
 10
-33.64522171020508
 20
22.49943351745604
 30
0.0
 11
-32.84596252441406
 21
22.49943351745604
 31
0.0
  0
LINE
  8
0
 62
0
 10
-48.44538116455078
 20
22.499433517456037
 30
0.0
 11
-47.644779205322266
 21
22.499433517456037
 31
0.0
  0
LINE
  8
0
 62
0
 10
-14.645209312438968
 20
22.49943351745604
 30
0.0
 11
-13.84594821929932
 21
22.49943351745604
 31
0.0
  0
LINE
  8
0
 62
0
 10
-29.445367813110355
 20
22.49943351745604
 30
0.0
 11
-28.64476585388184
 21
22.49943351745604
 31
0.0
  0
LINE
  8
0
 62
0
 10
4.354804039001462
 20
22.499433517456044
 30
0.0
 11
5.154064178466794
 21
22.499433517456044
 31
0.0
  0
LINE
  8
0
 62
0
 10
-10.445354461669925
 20
22.49943351745604
 30
0.0
 11
-9.644753456115726
 21
22.49943351745604
 31
0.0
  0
LINE
  8
0
 62
0
 10
23.354816436767575
 20
22.499433517456048
 30
0.0
 11
24.154077529907223
 21
22.499433517456048
 31
0.0
  0
LINE
  8
0
 62
0
 10
8.554658889770504
 20
22.499433517456044
 30
0.0
 11
9.355258941650387
 21
22.499433517456044
 31
0.0
  0
LINE
  8
0
 62
0
 10
42.354827880859375
 20
22.499433517456048
 30
0.0
 11
43.154090881347656
 21
22.499433517456048
 31
0.0
  0
LINE
  8
0
 62
0
 10
27.554672241210934
 20
22.499433517456048
 30
0.0
 11
28.355272293090817
 21
22.499433517456048
 31
0.0
  0
LINE
  8
0
 62
0
 10
61.35484313964844
 20
22.49943351745605
 30
0.0
 11
62.15410232543945
 21
22.49943351745605
 31
0.0
  0
LINE
  8
0
 62
0
 10
46.554683685302734
 20
22.499433517456048
 30
0.0
 11
47.35528564453125
 21
22.499433517456048
 31
0.0
  0
LINE
  8
0
 62
0
 10
-147.64529418945312
 20
22.499433517456026
 30
0.0
 11
-146.84603881835938
 21
22.499433517456026
 31
0.0
  0
LINE
  8
0
 62
0
 10
-162.44544982910156
 20
22.499433517456023
 30
0.0
 11
-161.6448516845703
 21
22.499433517456023
 31
0.0
  0
LINE
  8
0
 62
0
 10
-128.64527893066406
 20
22.499433517456026
 30
0.0
 11
-127.84602355957031
 21
22.499433517456026
 31
0.0
  0
LINE
  8
0
 62
0
 10
-143.44544982910156
 20
22.499433517456026
 30
0.0
 11
-142.64483642578125
 21
22.499433517456026
 31
0.0
  0
LINE
  8
0
 62
0
 10
-124.4454345703125
 20
25.599935531616186
 30
0.0
 11
-124.4454345703125
 21
22.49943351745603
 31
0.0
  0
LINE
  8
0
 62
0
 10
-124.4454345703125
 20
34.4995422363281
 30
0.0
 11
-124.4454345703125
 21
31.400039672851538
 31
0.0
  0
LINE
  8
0
 62
0
 10
-124.4454345703125
 20
44.59994888305661
 30
0.0
 11
-124.4454345703125
 21
41.499446868896456
 31
0.0
  0
LINE
  8
0
 62
0
 10
-124.4454345703125
 20
53.49955368041989
 30
0.0
 11
-124.4454345703125
 21
50.40005111694333
 31
0.0
  0
LINE
  8
0
 62
0
 10
-124.44543457031251
 20
63.59996032714841
 30
0.0
 11
-124.44543457031251
 21
60.49945831298825
 31
0.0
  0
LINE
  8
0
 62
0
 10
-124.44543457031251
 20
72.49956512451169
 30
0.0
 11
-124.44543457031251
 21
69.40006256103513
 31
0.0
  0
LINE
  8
0
 62
0
 10
-124.44543457031251
 20
82.59997558593747
 30
0.0
 11
-124.44543457031251
 21
79.49947357177732
 31
0.0
  0
LINE
  8
0
 62
0
 10
-124.44543457031251
 20
91.49958038330075
 30
0.0
 11
-124.44543457031251
 21
88.40007781982419
 31
0.0
  0
LINE
  8
0
 62
0
 10
-124.4454345703125
 20
6.599922657012913
 30
0.0
 11
-124.4454345703125
 21
3.4994211196899148
 31
0.0
  0
LINE
  8
0
 62
0
 10
-124.4454345703125
 20
15.499527931213352
 30
0.0
 11
-124.4454345703125
 21
12.400026321411106
 31
0.0
  0
LINE
  8
0
 62
0
 10
-123.64482879638672
 20
25.599935531616186
 30
0.0
 11
-124.4454345703125
 21
25.599935531616186
 31
0.0
  0
LINE
  8
0
 62
0
 10
-108.84601593017578
 20
25.599935531616186
 30
0.0
 11
-109.64527130126953
 21
25.599935531616186
 31
0.0
  0
LINE
  8
0
 62
0
 10
-89.84600067138672
 20
25.59993553161619
 30
0.0
 11
-90.645263671875
 21
25.59993553161619
 31
0.0
  0
LINE
  8
0
 62
0
 10
-104.64482116699219
 20
25.599935531616186
 30
0.0
 11
-105.44541931152344
 21
25.599935531616186
 31
0.0
  0
LINE
  8
0
 62
0
 10
-70.84598541259766
 20
25.59993553161619
 30
0.0
 11
-71.64524841308594
 21
25.59993553161619
 31
0.0
  0
LINE
  8
0
 62
0
 10
-85.64480590820312
 20
25.59993553161619
 30
0.0
 11
-86.44540405273438
 21
25.59993553161619
 31
0.0
  0
LINE
  8
0
 62
0
 10
-51.84597396850586
 20
25.599935531616193
 30
0.0
 11
-52.645233154296875
 21
25.599935531616193
 31
0.0
  0
LINE
  8
0
 62
0
 10
-66.64479064941406
 20
25.599935531616193
 30
0.0
 11
-67.44538879394531
 21
25.59993553161619
 31
0.0
  0
LINE
  8
0
 62
0
 10
-32.84596252441406
 20
25.599935531616197
 30
0.0
 11
-33.64522171020508
 21
25.599935531616197
 31
0.0
  0
LINE
  8
0
 62
0
 10
-47.644779205322266
 20
25.599935531616193
 30
0.0
 11
-48.44538116455078
 21
25.599935531616193
 31
0.0
  0
LINE
  8
0
 62
0
 10
-13.84594821929932
 20
25.599935531616197
 30
0.0
 11
-14.645209312438968
 21
25.599935531616197
 31
0.0
  0
LINE
  8
0
 62
0
 10
-28.64476585388184
 20
25.599935531616197
 30
0.0
 11
-29.445367813110355
 21
25.599935531616197
 31
0.0
  0
LINE
  8
0
 62
0
 10
5.154064178466793
 20
25.5999355316162
 30
0.0
 11
4.354804039001461
 21
25.5999355316162
 31
0.0
  0
LINE
  8
0
 62
0
 10
-9.644753456115726
 20
25.599935531616197
 30
0.0
 11
-10.445354461669925
 21
25.599935531616197
 31
0.0
  0
LINE
  8
0
 62
0
 10
24.154077529907223
 20
25.599935531616204
 30
0.0
 11
23.354816436767575
 21
25.599935531616204
 31
0.0
  0
LINE
  8
0
 62
0
 10
9.355258941650387
 20
25.5999355316162
 30
0.0
 11
8.554658889770504
 21
25.5999355316162
 31
0.0
  0
LINE
  8
0
 62
0
 10
43.154090881347656
 20
25.599935531616204
 30
0.0
 11
42.354827880859375
 21
25.599935531616204
 31
0.0
  0
LINE
  8
0
 62
0
 10
28.355272293090817
 20
25.599935531616204
 30
0.0
 11
27.554672241210934
 21
25.599935531616204
 31
0.0
  0
LINE
  8
0
 62
0
 10
62.15410232543945
 20
25.599935531616207
 30
0.0
 11
61.35484313964844
 21
25.599935531616207
 31
0.0
  0
LINE
  8
0
 62
0
 10
47.35528564453125
 20
25.599935531616204
 30
0.0
 11
46.554683685302734
 21
25.599935531616204
 31
0.0
  0
LINE
  8
0
 62
0
 10
-146.84603881835938
 20
25.599935531616183
 30
0.0
 11
-147.64529418945312
 21
25.599935531616183
 31
0.0
  0
LINE
  8
0
 62
0
 10
-161.6448516845703
 20
25.59993553161618
 30
0.0
 11
-162.44544982910156
 21
25.59993553161618
 31
0.0
  0
LINE
  8
0
 62
0
 10
-127.84602355957031
 20
25.599935531616183
 30
0.0
 11
-128.64527893066406
 21
25.599935531616183
 31
0.0
  0
LINE
  8
0
 62
0
 10
-142.64483642578125
 20
25.599935531616183
 30
0.0
 11
-143.44544982910156
 21
25.599935531616183
 31
0.0
  0
LINE
  8
0
 62
0
 10
-124.4454345703125
 20
31.400039672851538
 30
0.0
 11
-123.64482879638672
 21
31.400039672851538
 31
0.0
  0
LINE
  8
0
 62
0
 10
-109.64527130126953
 20
31.400039672851538
 30
0.0
 11
-108.84601593017578
 21
31.400039672851538
 31
0.0
  0
LINE
  8
0
 62
0
 10
-90.645263671875
 20
31.40003967285154
 30
0.0
 11
-89.84600067138672
 21
31.40003967285154
 31
0.0
  0
LINE
  8
0
 62
0
 10
-105.44541931152344
 20
31.400039672851538
 30
0.0
 11
-104.64482116699219
 21
31.400039672851538
 31
0.0
  0
LINE
  8
0
 62
0
 10
-71.64524841308594
 20
31.40003967285154
 30
0.0
 11
-70.84598541259766
 21
31.40003967285154
 31
0.0
  0
LINE
  8
0
 62
0
 10
-86.44540405273438
 20
31.40003967285154
 30
0.0
 11
-85.64480590820312
 21
31.40003967285154
 31
0.0
  0
LINE
  8
0
 62
0
 10
-52.64523315429688
 20
31.400039672851545
 30
0.0
 11
-51.84597396850587
 21
31.400039672851545
 31
0.0
  0
LINE
  8
0
 62
0
 10
-67.44538879394531
 20
31.40003967285154
 30
0.0
 11
-66.64479064941406
 21
31.400039672851545
 31
0.0
  0
LINE
  8
0
 62
0
 10
-33.645221710205085
 20
31.40003967285155
 30
0.0
 11
-32.84596252441407
 21
31.40003967285155
 31
0.0
  0
LINE
  8
0
 62
0
 10
-48.44538116455079
 20
31.400039672851545
 30
0.0
 11
-47.64477920532227
 21
31.400039672851545
 31
0.0
  0
LINE
  8
0
 62
0
 10
-14.645209312438968
 20
31.40003967285155
 30
0.0
 11
-13.84594821929932
 21
31.40003967285155
 31
0.0
  0
LINE
  8
0
 62
0
 10
-29.445367813110355
 20
31.40003967285155
 30
0.0
 11
-28.64476585388184
 21
31.40003967285155
 31
0.0
  0
LINE
  8
0
 62
0
 10
4.354804039001461
 20
31.400039672851552
 30
0.0
 11
5.154064178466793
 21
31.400039672851552
 31
0.0
  0
LINE
  8
0
 62
0
 10
-10.445354461669925
 20
31.40003967285155
 30
0.0
 11
-9.644753456115726
 21
31.40003967285155
 31
0.0
  0
LINE
  8
0
 62
0
 10
23.354816436767575
 20
31.400039672851555
 30
0.0
 11
24.154077529907223
 21
31.400039672851555
 31
0.0
  0
LINE
  8
0
 62
0
 10
8.554658889770504
 20
31.400039672851552
 30
0.0
 11
9.355258941650387
 21
31.400039672851552
 31
0.0
  0
LINE
  8
0
 62
0
 10
42.35482788085937
 20
31.400039672851555
 30
0.0
 11
43.15409088134765
 21
31.400039672851555
 31
0.0
  0
LINE
  8
0
 62
0
 10
27.554672241210934
 20
31.400039672851555
 30
0.0
 11
28.355272293090817
 21
31.400039672851555
 31
0.0
  0
LINE
  8
0
 62
0
 10
61.35484313964843
 20
31.40003967285156
 30
0.0
 11
62.154102325439446
 21
31.40003967285156
 31
0.0
  0
LINE
  8
0
 62
0
 10
46.55468368530273
 20
31.400039672851555
 30
0.0
 11
47.35528564453124
 21
31.400039672851555
 31
0.0
  0
LINE
  8
0
 62
0
 10
-147.64529418945312
 20
31.400039672851534
 30
0.0
 11
-146.84603881835938
 21
31.400039672851534
 31
0.0
  0
LINE
  8
0
 62
0
 10
-162.44544982910156
 20
31.40003967285153
 30
0.0
 11
-161.6448516845703
 21
31.40003967285153
 31
0.0
  0
LINE
  8
0
 62
0
 10
-128.64527893066406
 20
31.400039672851534
 30
0.0
 11
-127.84602355957031
 21
31.400039672851534
 31
0.0
  0
LINE
  8
0
 62
0
 10
-143.44544982910156
 20
31.400039672851534
 30
0.0
 11
-142.64483642578125
 21
31.400039672851534
 31
0.0
  0
LINE
  8
0
 62
0
 10
-123.64482879638672
 20
34.4995422363281
 30
0.0
 11
-124.4454345703125
 21
34.4995422363281
 31
0.0
  0
LINE
  8
0
 62
0
 10
-108.84601593017578
 20
34.499542236328104
 30
0.0
 11
-109.64527130126953
 21
34.499542236328104
 31
0.0
  0
LINE
  8
0
 62
0
 10
-89.84600067138672
 20
34.499542236328104
 30
0.0
 11
-90.645263671875
 21
34.499542236328104
 31
0.0
  0
LINE
  8
0
 62
0
 10
-104.64482116699219
 20
34.499542236328104
 30
0.0
 11
-105.44541931152344
 21
34.499542236328104
 31
0.0
  0
LINE
  8
0
 62
0
 10
-70.84598541259766
 20
34.499542236328104
 30
0.0
 11
-71.64524841308594
 21
34.499542236328104
 31
0.0
  0
LINE
  8
0
 62
0
 10
-85.64480590820312
 20
34.499542236328104
 30
0.0
 11
-86.44540405273438
 21
34.499542236328104
 31
0.0
  0
LINE
  8
0
 62
0
 10
-51.84597396850587
 20
34.49954223632811
 30
0.0
 11
-52.64523315429688
 21
34.499542236328104
 31
0.0
  0
LINE
  8
0
 62
0
 10
-66.64479064941406
 20
34.499542236328104
 30
0.0
 11
-67.44538879394531
 21
34.499542236328104
 31
0.0
  0
LINE
  8
0
 62
0
 10
-32.84596252441407
 20
34.49954223632811
 30
0.0
 11
-33.645221710205085
 21
34.49954223632811
 31
0.0
  0
LINE
  8
0
 62
0
 10
-47.64477920532227
 20
34.49954223632811
 30
0.0
 11
-48.44538116455079
 21
34.49954223632811
 31
0.0
  0
LINE
  8
0
 62
0
 10
-13.84594821929932
 20
34.49954223632811
 30
0.0
 11
-14.645209312438968
 21
34.49954223632811
 31
0.0
  0
LINE
  8
0
 62
0
 10
-28.64476585388184
 20
34.49954223632811
 30
0.0
 11
-29.445367813110355
 21
34.49954223632811
 31
0.0
  0
LINE
  8
0
 62
0
 10
5.154064178466792
 20
34.49954223632811
 30
0.0
 11
4.35480403900146
 21
34.49954223632811
 31
0.0
  0
LINE
  8
0
 62
0
 10
-9.644753456115726
 20
34.49954223632811
 30
0.0
 11
-10.445354461669925
 21
34.49954223632811
 31
0.0
  0
LINE
  8
0
 62
0
 10
24.154077529907223
 20
34.49954223632812
 30
0.0
 11
23.354816436767575
 21
34.49954223632812
 31
0.0
  0
LINE
  8
0
 62
0
 10
9.355258941650387
 20
34.49954223632812
 30
0.0
 11
8.554658889770504
 21
34.49954223632812
 31
0.0
  0
LINE
  8
0
 62
0
 10
43.15409088134765
 20
34.49954223632812
 30
0.0
 11
42.35482788085937
 21
34.49954223632812
 31
0.0
  0
LINE
  8
0
 62
0
 10
28.355272293090817
 20
34.49954223632812
 30
0.0
 11
27.554672241210934
 21
34.49954223632812
 31
0.0
  0
LINE
  8
0
 62
0
 10
62.154102325439446
 20
34.49954223632812
 30
0.0
 11
61.35484313964843
 21
34.49954223632812
 31
0.0
  0
LINE
  8
0
 62
0
 10
47.35528564453124
 20
34.49954223632812
 30
0.0
 11
46.55468368530273
 21
34.49954223632812
 31
0.0
  0
LINE
  8
0
 62
0
 10
-146.84603881835938
 20
34.4995422363281
 30
0.0
 11
-147.64529418945312
 21
34.4995422363281
 31
0.0
  0
LINE
  8
0
 62
0
 10
-161.6448516845703
 20
34.4995422363281
 30
0.0
 11
-162.44544982910156
 21
34.4995422363281
 31
0.0
  0
LINE
  8
0
 62
0
 10
-127.84602355957031
 20
34.4995422363281
 30
0.0
 11
-128.64527893066406
 21
34.4995422363281
 31
0.0
  0
LINE
  8
0
 62
0
 10
-142.64483642578125
 20
34.4995422363281
 30
0.0
 11
-143.44544982910156
 21
34.4995422363281
 31
0.0
  0
LINE
  8
0
 62
0
 10
-109.64527130126953
 20
35.49964141845701
 30
0.0
 11
-123.64482879638672
 21
35.499641418457
 31
0.0
  0
LINE
  8
0
 62
0
 10
-90.645263671875
 20
35.49964141845701
 30
0.0
 11
-104.64482116699219
 21
35.49964141845701
 31
0.0
  0
LINE
  8
0
 62
0
 10
-71.64524841308594
 20
35.49964141845701
 30
0.0
 11
-85.64480590820312
 21
35.49964141845701
 31
0.0
  0
LINE
  8
0
 62
0
 10
-52.64523315429688
 20
35.49964141845701
 30
0.0
 11
-66.64479064941406
 21
35.49964141845701
 31
0.0
  0
LINE
  8
0
 62
0
 10
-33.645221710205085
 20
35.49964141845702
 30
0.0
 11
-47.64477920532227
 21
35.49964141845702
 31
0.0
  0
LINE
  8
0
 62
0
 10
-14.645209312438968
 20
35.49964141845702
 30
0.0
 11
-28.64476585388184
 21
35.49964141845702
 31
0.0
  0
LINE
  8
0
 62
0
 10
4.35480403900146
 20
35.49964141845702
 30
0.0
 11
-9.644753456115726
 21
35.49964141845702
 31
0.0
  0
LINE
  8
0
 62
0
 10
23.354816436767575
 20
35.499641418457024
 30
0.0
 11
9.355258941650387
 21
35.499641418457024
 31
0.0
  0
LINE
  8
0
 62
0
 10
42.35482788085937
 20
35.499641418457024
 30
0.0
 11
28.355272293090817
 21
35.499641418457024
 31
0.0
  0
LINE
  8
0
 62
0
 10
61.35484313964843
 20
35.499641418457024
 30
0.0
 11
47.35528564453124
 21
35.499641418457024
 31
0.0
  0
LINE
  8
0
 62
0
 10
-147.64529418945312
 20
35.499641418457
 30
0.0
 11
-161.6448516845703
 21
35.499641418457
 31
0.0
  0
LINE
  8
0
 62
0
 10
-128.64527893066406
 20
35.499641418457
 30
0.0
 11
-142.64483642578125
 21
35.499641418457
 31
0.0
  0
LINE
  8
0
 62
0
 10
-109.64527130126953
 20
34.499542236328104
 30
0.0
 11
-109.64527130126953
 21
35.49964141845701
 31
0.0
  0
LINE
  8
0
 62
0
 10
-109.64527130126953
 20
25.599935531616186
 30
0.0
 11
-109.64527130126953
 21
31.400039672851538
 31
0.0
  0
LINE
  8
0
 62
0
 10
-109.64527130126953
 20
21.500333786010717
 30
0.0
 11
-109.64527130126953
 21
22.49943351745603
 31
0.0
  0
LINE
  8
0
 62
0
 10
-109.64527130126953
 20
53.4995536804199
 30
0.0
 11
-109.64527130126953
 21
54.49965286254881
 31
0.0
  0
LINE
  8
0
 62
0
 10
-109.64527130126953
 20
44.59994888305662
 30
0.0
 11
-109.64527130126953
 21
50.40005111694334
 31
0.0
  0
LINE
  8
0
 62
0
 10
-109.64527130126953
 20
40.50034713745115
 30
0.0
 11
-109.64527130126953
 21
41.49944686889646
 31
0.0
  0
LINE
  8
0
 62
0
 10
-109.64527130126955
 20
72.49956512451169
 30
0.0
 11
-109.64527130126955
 21
73.4996643066406
 31
0.0
  0
LINE
  8
0
 62
0
 10
-109.64527130126955
 20
63.599960327148416
 30
0.0
 11
-109.64527130126955
 21
69.40006256103513
 31
0.0
  0
LINE
  8
0
 62
0
 10
-109.64527130126955
 20
59.50035858154295
 30
0.0
 11
-109.64527130126955
 21
60.49945831298826
 31
0.0
  0
LINE
  8
0
 62
0
 10
-109.64527130126955
 20
91.49958038330075
 30
0.0
 11
-109.64527130126955
 21
92.49967956542966
 31
0.0
  0
LINE
  8
0
 62
0
 10
-109.64527130126955
 20
82.59997558593747
 30
0.0
 11
-109.64527130126955
 21
88.40007781982419
 31
0.0
  0
LINE
  8
0
 62
0
 10
-109.64527130126955
 20
78.500373840332
 30
0.0
 11
-109.64527130126955
 21
79.49947357177732
 31
0.0
  0
LINE
  8
0
 62
0
 10
-109.64527130126953
 20
15.499527931213354
 30
0.0
 11
-109.64527130126953
 21
16.499628067016577
 31
0.0
  0
LINE
  8
0
 62
0
 10
-109.64527130126953
 20
6.599922657012915
 30
0.0
 11
-109.64527130126953
 21
12.400026321411108
 31
0.0
  0
LINE
  8
0
 62
0
 10
-109.64527130126953
 20
2.5003206729888667
 30
0.0
 11
-109.64527130126953
 21
3.4994211196899165
 31
0.0
  0
LINE
  8
0
 62
0
 10
-108.84601593017578
 20
31.400039672851538
 30
0.0
 11
-108.84601593017578
 21
34.499542236328104
 31
0.0
  0
LINE
  8
0
 62
0
 10
-108.84601593017578
 20
22.49943351745603
 30
0.0
 11
-108.84601593017578
 21
25.599935531616186
 31
0.0
  0
LINE
  8
0
 62
0
 10
-108.84601593017578
 20
50.40005111694334
 30
0.0
 11
-108.84601593017578
 21
53.4995536804199
 31
0.0
  0
LINE
  8
0
 62
0
 10
-108.84601593017578
 20
41.49944686889646
 30
0.0
 11
-108.84601593017578
 21
44.59994888305662
 31
0.0
  0
LINE
  8
0
 62
0
 10
-108.8460159301758
 20
69.40006256103513
 30
0.0
 11
-108.8460159301758
 21
72.49956512451169
 31
0.0
  0
LINE
  8
0
 62
0
 10
-108.8460159301758
 20
60.49945831298826
 30
0.0
 11
-108.8460159301758
 21
63.599960327148416
 31
0.0
  0
LINE
  8
0
 62
0
 10
-108.8460159301758
 20
88.40007781982419
 30
0.0
 11
-108.8460159301758
 21
91.49958038330075
 31
0.0
  0
LINE
  8
0
 62
0
 10
-108.8460159301758
 20
79.49947357177732
 30
0.0
 11
-108.8460159301758
 21
82.59997558593747
 31
0.0
  0
LINE
  8
0
 62
0
 10
-108.84601593017578
 20
12.400026321411108
 30
0.0
 11
-108.84601593017578
 21
15.499527931213354
 31
0.0
  0
LINE
  8
0
 62
0
 10
-108.84601593017578
 20
3.4994211196899165
 30
0.0
 11
-108.84601593017578
 21
6.599922657012915
 31
0.0
  0
LINE
  8
0
 62
0
 10
-123.64482879638672
 20
21.500333786010717
 30
0.0
 11
-109.64527130126953
 21
21.500333786010717
 31
0.0
  0
LINE
  8
0
 62
0
 10
-104.64482116699219
 20
21.500333786010717
 30
0.0
 11
-90.645263671875
 21
21.50033378601072
 31
0.0
  0
LINE
  8
0
 62
0
 10
-85.64480590820312
 20
21.50033378601072
 30
0.0
 11
-71.64524841308594
 21
21.50033378601072
 31
0.0
  0
LINE
  8
0
 62
0
 10
-66.64479064941406
 20
21.500333786010724
 30
0.0
 11
-52.645233154296875
 21
21.500333786010724
 31
0.0
  0
LINE
  8
0
 62
0
 10
-47.644779205322266
 20
21.500333786010724
 30
0.0
 11
-33.64522171020508
 21
21.500333786010728
 31
0.0
  0
LINE
  8
0
 62
0
 10
-28.64476585388184
 20
21.500333786010728
 30
0.0
 11
-14.645209312438967
 21
21.500333786010728
 31
0.0
  0
LINE
  8
0
 62
0
 10
-9.644753456115724
 20
21.500333786010728
 30
0.0
 11
4.354804039001463
 21
21.50033378601073
 31
0.0
  0
LINE
  8
0
 62
0
 10
9.355258941650389
 20
21.50033378601073
 30
0.0
 11
23.354816436767575
 21
21.500333786010735
 31
0.0
  0
LINE
  8
0
 62
0
 10
28.355272293090817
 20
21.500333786010735
 30
0.0
 11
42.354827880859375
 21
21.500333786010735
 31
0.0
  0
LINE
  8
0
 62
0
 10
47.35528564453125
 20
21.500333786010735
 30
0.0
 11
61.35484313964844
 21
21.50033378601074
 31
0.0
  0
LINE
  8
0
 62
0
 10
-161.6448516845703
 20
21.50033378601071
 30
0.0
 11
-147.64529418945312
 21
21.500333786010714
 31
0.0
  0
LINE
  8
0
 62
0
 10
-142.64483642578125
 20
21.500333786010714
 30
0.0
 11
-128.64527893066406
 21
21.500333786010714
 31
0.0
  0
LINE
  8
0
 62
0
 10
-109.64527130126953
 20
54.49965286254881
 30
0.0
 11
-123.64482879638672
 21
54.4996528625488
 31
0.0
  0
LINE
  8
0
 62
0
 10
-90.645263671875
 20
54.49965286254881
 30
0.0
 11
-104.64482116699219
 21
54.49965286254881
 31
0.0
  0
LINE
  8
0
 62
0
 10
-71.64524841308594
 20
54.49965286254881
 30
0.0
 11
-85.64480590820312
 21
54.49965286254881
 31
0.0
  0
LINE
  8
0
 62
0
 10
-52.64523315429688
 20
54.49965286254881
 30
0.0
 11
-66.64479064941406
 21
54.49965286254881
 31
0.0
  0
LINE
  8
0
 62
0
 10
-33.645221710205085
 20
54.499652862548814
 30
0.0
 11
-47.64477920532227
 21
54.499652862548814
 31
0.0
  0
LINE
  8
0
 62
0
 10
-14.645209312438972
 20
54.499652862548814
 30
0.0
 11
-28.644765853881843
 21
54.499652862548814
 31
0.0
  0
LINE
  8
0
 62
0
 10
4.354804039001458
 20
54.499652862548814
 30
0.0
 11
-9.64475345611573
 21
54.499652862548814
 31
0.0
  0
LINE
  8
0
 62
0
 10
23.35481643676757
 20
54.49965286254882
 30
0.0
 11
9.355258941650384
 21
54.49965286254882
 31
0.0
  0
LINE
  8
0
 62
0
 10
42.35482788085937
 20
54.49965286254882
 30
0.0
 11
28.355272293090813
 21
54.49965286254882
 31
0.0
  0
LINE
  8
0
 62
0
 10
61.35484313964843
 20
54.49965286254882
 30
0.0
 11
47.35528564453124
 21
54.49965286254882
 31
0.0
  0
LINE
  8
0
 62
0
 10
-147.64529418945312
 20
54.4996528625488
 30
0.0
 11
-161.6448516845703
 21
54.4996528625488
 31
0.0
  0
LINE
  8
0
 62
0
 10
-128.64527893066406
 20
54.4996528625488
 30
0.0
 11
-142.64483642578125
 21
54.4996528625488
 31
0.0
  0
LINE
  8
0
 62
0
 10
-108.84601593017578
 20
53.4995536804199
 30
0.0
 11
-109.64527130126953
 21
53.4995536804199
 31
0.0
  0
LINE
  8
0
 62
0
 10
-123.64482879638672
 20
53.49955368041989
 30
0.0
 11
-124.4454345703125
 21
53.49955368041989
 31
0.0
  0
LINE
  8
0
 62
0
 10
-89.84600067138672
 20
53.4995536804199
 30
0.0
 11
-90.645263671875
 21
53.4995536804199
 31
0.0
  0
LINE
  8
0
 62
0
 10
-104.64482116699219
 20
53.4995536804199
 30
0.0
 11
-105.44541931152344
 21
53.4995536804199
 31
0.0
  0
LINE
  8
0
 62
0
 10
-70.84598541259766
 20
53.4995536804199
 30
0.0
 11
-71.64524841308594
 21
53.4995536804199
 31
0.0
  0
LINE
  8
0
 62
0
 10
-85.64480590820312
 20
53.4995536804199
 30
0.0
 11
-86.44540405273438
 21
53.4995536804199
 31
0.0
  0
LINE
  8
0
 62
0
 10
-51.84597396850587
 20
53.49955368041991
 30
0.0
 11
-52.64523315429688
 21
53.4995536804199
 31
0.0
  0
LINE
  8
0
 62
0
 10
-66.64479064941406
 20
53.4995536804199
 30
0.0
 11
-67.44538879394531
 21
53.4995536804199
 31
0.0
  0
LINE
  8
0
 62
0
 10
-32.84596252441407
 20
53.49955368041991
 30
0.0
 11
-33.645221710205085
 21
53.49955368041991
 31
0.0
  0
LINE
  8
0
 62
0
 10
-47.64477920532227
 20
53.49955368041991
 30
0.0
 11
-48.44538116455079
 21
53.49955368041991
 31
0.0
  0
LINE
  8
0
 62
0
 10
-13.845948219299324
 20
53.49955368041991
 30
0.0
 11
-14.645209312438972
 21
53.49955368041991
 31
0.0
  0
LINE
  8
0
 62
0
 10
-28.644765853881843
 20
53.49955368041991
 30
0.0
 11
-29.44536781311036
 21
53.49955368041991
 31
0.0
  0
LINE
  8
0
 62
0
 10
5.154064178466791
 20
53.49955368041991
 30
0.0
 11
4.354804039001459
 21
53.49955368041991
 31
0.0
  0
LINE
  8
0
 62
0
 10
-9.64475345611573
 20
53.49955368041991
 30
0.0
 11
-10.445354461669929
 21
53.49955368041991
 31
0.0
  0
LINE
  8
0
 62
0
 10
24.15407752990722
 20
53.499553680419915
 30
0.0
 11
23.35481643676757
 21
53.499553680419915
 31
0.0
  0
LINE
  8
0
 62
0
 10
9.355258941650384
 20
53.499553680419915
 30
0.0
 11
8.5546588897705
 21
53.499553680419915
 31
0.0
  0
LINE
  8
0
 62
0
 10
43.15409088134765
 20
53.499553680419915
 30
0.0
 11
42.35482788085937
 21
53.499553680419915
 31
0.0
  0
LINE
  8
0
 62
0
 10
28.355272293090813
 20
53.499553680419915
 30
0.0
 11
27.55467224121093
 21
53.499553680419915
 31
0.0
  0
LINE
  8
0
 62
0
 10
62.154102325439446
 20
53.499553680419915
 30
0.0
 11
61.35484313964843
 21
53.499553680419915
 31
0.0
  0
LINE
  8
0
 62
0
 10
47.35528564453124
 20
53.499553680419915
 30
0.0
 11
46.55468368530273
 21
53.499553680419915
 31
0.0
  0
LINE
  8
0
 62
0
 10
-146.84603881835938
 20
53.49955368041989
 30
0.0
 11
-147.64529418945312
 21
53.49955368041989
 31
0.0
  0
LINE
  8
0
 62
0
 10
-161.6448516845703
 20
53.49955368041989
 30
0.0
 11
-162.44544982910156
 21
53.49955368041989
 31
0.0
  0
LINE
  8
0
 62
0
 10
-127.84602355957031
 20
53.49955368041989
 30
0.0
 11
-128.64527893066406
 21
53.49955368041989
 31
0.0
  0
LINE
  8
0
 62
0
 10
-142.64483642578125
 20
53.49955368041989
 30
0.0
 11
-143.44544982910156
 21
53.49955368041989
 31
0.0
  0
LINE
  8
0
 62
0
 10
-109.64527130126953
 20
50.40005111694334
 30
0.0
 11
-108.84601593017578
 21
50.40005111694334
 31
0.0
  0
LINE
  8
0
 62
0
 10
-124.4454345703125
 20
50.40005111694333
 30
0.0
 11
-123.64482879638672
 21
50.40005111694333
 31
0.0
  0
LINE
  8
0
 62
0
 10
-90.645263671875
 20
50.40005111694334
 30
0.0
 11
-89.84600067138672
 21
50.40005111694334
 31
0.0
  0
LINE
  8
0
 62
0
 10
-105.44541931152344
 20
50.40005111694334
 30
0.0
 11
-104.64482116699219
 21
50.40005111694334
 31
0.0
  0
LINE
  8
0
 62
0
 10
-71.64524841308594
 20
50.40005111694334
 30
0.0
 11
-70.84598541259766
 21
50.40005111694334
 31
0.0
  0
LINE
  8
0
 62
0
 10
-86.44540405273438
 20
50.40005111694334
 30
0.0
 11
-85.64480590820312
 21
50.40005111694334
 31
0.0
  0
LINE
  8
0
 62
0
 10
-52.64523315429688
 20
50.40005111694334
 30
0.0
 11
-51.84597396850587
 21
50.400051116943345
 31
0.0
  0
LINE
  8
0
 62
0
 10
-67.44538879394531
 20
50.40005111694334
 30
0.0
 11
-66.64479064941406
 21
50.40005111694334
 31
0.0
  0
LINE
  8
0
 62
0
 10
-33.645221710205085
 20
50.400051116943345
 30
0.0
 11
-32.84596252441407
 21
50.400051116943345
 31
0.0
  0
LINE
  8
0
 62
0
 10
-48.44538116455079
 20
50.400051116943345
 30
0.0
 11
-47.64477920532227
 21
50.400051116943345
 31
0.0
  0
LINE
  8
0
 62
0
 10
-14.64520931243897
 20
50.400051116943345
 30
0.0
 11
-13.845948219299322
 21
50.400051116943345
 31
0.0
  0
LINE
  8
0
 62
0
 10
-29.44536781311036
 20
50.400051116943345
 30
0.0
 11
-28.644765853881843
 21
50.400051116943345
 31
0.0
  0
LINE
  8
0
 62
0
 10
4.354804039001459
 20
50.400051116943345
 30
0.0
 11
5.154064178466791
 21
50.400051116943345
 31
0.0
  0
LINE
  8
0
 62
0
 10
-10.445354461669927
 20
50.400051116943345
 30
0.0
 11
-9.644753456115728
 21
50.400051116943345
 31
0.0
  0
LINE
  8
0
 62
0
 10
23.35481643676757
 20
50.40005111694335
 30
0.0
 11
24.15407752990722
 21
50.40005111694335
 31
0.0
  0
LINE
  8
0
 62
0
 10
8.554658889770502
 20
50.40005111694335
 30
0.0
 11
9.355258941650385
 21
50.40005111694335
 31
0.0
  0
LINE
  8
0
 62
0
 10
42.35482788085937
 20
50.40005111694335
 30
0.0
 11
43.15409088134765
 21
50.40005111694335
 31
0.0
  0
LINE
  8
0
 62
0
 10
27.55467224121093
 20
50.40005111694335
 30
0.0
 11
28.355272293090813
 21
50.40005111694335
 31
0.0
  0
LINE
  8
0
 62
0
 10
61.35484313964843
 20
50.40005111694335
 30
0.0
 11
62.154102325439446
 21
50.40005111694335
 31
0.0
  0
LINE
  8
0
 62
0
 10
46.55468368530273
 20
50.40005111694335
 30
0.0
 11
47.35528564453124
 21
50.40005111694335
 31
0.0
  0
LINE
  8
0
 62
0
 10
-147.64529418945312
 20
50.40005111694333
 30
0.0
 11
-146.84603881835938
 21
50.40005111694333
 31
0.0
  0
LINE
  8
0
 62
0
 10
-162.44544982910156
 20
50.40005111694333
 30
0.0
 11
-161.6448516845703
 21
50.40005111694333
 31
0.0
  0
LINE
  8
0
 62
0
 10
-128.64527893066406
 20
50.40005111694333
 30
0.0
 11
-127.84602355957031
 21
50.40005111694333
 31
0.0
  0
LINE
  8
0
 62
0
 10
-143.44544982910156
 20
50.40005111694333
 30
0.0
 11
-142.64483642578125
 21
50.40005111694333
 31
0.0
  0
LINE
  8
0
 62
0
 10
-108.84601593017578
 20
44.59994888305662
 30
0.0
 11
-109.64527130126953
 21
44.59994888305662
 31
0.0
  0
LINE
  8
0
 62
0
 10
-123.64482879638672
 20
44.59994888305661
 30
0.0
 11
-124.4454345703125
 21
44.59994888305661
 31
0.0
  0
LINE
  8
0
 62
0
 10
-89.84600067138672
 20
44.59994888305662
 30
0.0
 11
-90.645263671875
 21
44.59994888305662
 31
0.0
  0
LINE
  8
0
 62
0
 10
-104.64482116699219
 20
44.59994888305662
 30
0.0
 11
-105.44541931152344
 21
44.59994888305662
 31
0.0
  0
LINE
  8
0
 62
0
 10
-70.84598541259766
 20
44.59994888305662
 30
0.0
 11
-71.64524841308594
 21
44.59994888305662
 31
0.0
  0
LINE
  8
0
 62
0
 10
-85.64480590820312
 20
44.59994888305662
 30
0.0
 11
-86.44540405273438
 21
44.59994888305662
 31
0.0
  0
LINE
  8
0
 62
0
 10
-51.84597396850587
 20
44.599948883056626
 30
0.0
 11
-52.64523315429688
 21
44.59994888305662
 31
0.0
  0
LINE
  8
0
 62
0
 10
-66.64479064941406
 20
44.59994888305662
 30
0.0
 11
-67.44538879394531
 21
44.59994888305662
 31
0.0
  0
LINE
  8
0
 62
0
 10
-32.84596252441407
 20
44.599948883056626
 30
0.0
 11
-33.645221710205085
 21
44.599948883056626
 31
0.0
  0
LINE
  8
0
 62
0
 10
-47.64477920532227
 20
44.599948883056626
 30
0.0
 11
-48.44538116455079
 21
44.599948883056626
 31
0.0
  0
LINE
  8
0
 62
0
 10
-13.845948219299322
 20
44.599948883056626
 30
0.0
 11
-14.64520931243897
 21
44.599948883056626
 31
0.0
  0
LINE
  8
0
 62
0
 10
-28.644765853881843
 20
44.599948883056626
 30
0.0
 11
-29.44536781311036
 21
44.599948883056626
 31
0.0
  0
LINE
  8
0
 62
0
 10
5.1540641784667915
 20
44.599948883056626
 30
0.0
 11
4.3548040390014595
 21
44.599948883056626
 31
0.0
  0
LINE
  8
0
 62
0
 10
-9.644753456115728
 20
44.599948883056626
 30
0.0
 11
-10.445354461669927
 21
44.599948883056626
 31
0.0
  0
LINE
  8
0
 62
0
 10
24.15407752990722
 20
44.59994888305663
 30
0.0
 11
23.35481643676757
 21
44.59994888305663
 31
0.0
  0
LINE
  8
0
 62
0
 10
9.355258941650385
 20
44.59994888305663
 30
0.0
 11
8.554658889770502
 21
44.59994888305663
 31
0.0
  0
LINE
  8
0
 62
0
 10
43.15409088134765
 20
44.59994888305663
 30
0.0
 11
42.35482788085937
 21
44.59994888305663
 31
0.0
  0
LINE
  8
0
 62
0
 10
28.355272293090813
 20
44.59994888305663
 30
0.0
 11
27.55467224121093
 21
44.59994888305663
 31
0.0
  0
LINE
  8
0
 62
0
 10
62.154102325439446
 20
44.59994888305663
 30
0.0
 11
61.35484313964843
 21
44.59994888305663
 31
0.0
  0
LINE
  8
0
 62
0
 10
47.35528564453124
 20
44.59994888305663
 30
0.0
 11
46.55468368530273
 21
44.59994888305663
 31
0.0
  0
LINE
  8
0
 62
0
 10
-146.84603881835938
 20
44.59994888305661
 30
0.0
 11
-147.64529418945312
 21
44.59994888305661
 31
0.0
  0
LINE
  8
0
 62
0
 10
-161.6448516845703
 20
44.59994888305661
 30
0.0
 11
-162.44544982910156
 21
44.59994888305661
 31
0.0
  0
LINE
  8
0
 62
0
 10
-127.84602355957031
 20
44.59994888305661
 30
0.0
 11
-128.64527893066406
 21
44.59994888305661
 31
0.0
  0
LINE
  8
0
 62
0
 10
-142.64483642578125
 20
44.59994888305661
 30
0.0
 11
-143.44544982910156
 21
44.59994888305661
 31
0.0
  0
LINE
  8
0
 62
0
 10
-109.64527130126953
 20
41.49944686889646
 30
0.0
 11
-108.84601593017578
 21
41.49944686889646
 31
0.0
  0
LINE
  8
0
 62
0
 10
-124.4454345703125
 20
41.499446868896456
 30
0.0
 11
-123.64482879638672
 21
41.499446868896456
 31
0.0
  0
LINE
  8
0
 62
0
 10
-90.645263671875
 20
41.49944686889646
 30
0.0
 11
-89.84600067138672
 21
41.49944686889646
 31
0.0
  0
LINE
  8
0
 62
0
 10
-105.44541931152344
 20
41.49944686889646
 30
0.0
 11
-104.64482116699219
 21
41.49944686889646
 31
0.0
  0
LINE
  8
0
 62
0
 10
-71.64524841308594
 20
41.49944686889646
 30
0.0
 11
-70.84598541259766
 21
41.49944686889646
 31
0.0
  0
LINE
  8
0
 62
0
 10
-86.44540405273438
 20
41.49944686889646
 30
0.0
 11
-85.64480590820312
 21
41.49944686889646
 31
0.0
  0
LINE
  8
0
 62
0
 10
-52.64523315429688
 20
41.49944686889646
 30
0.0
 11
-51.84597396850587
 21
41.49944686889647
 31
0.0
  0
LINE
  8
0
 62
0
 10
-67.44538879394531
 20
41.49944686889646
 30
0.0
 11
-66.64479064941406
 21
41.49944686889646
 31
0.0
  0
LINE
  8
0
 62
0
 10
-33.645221710205085
 20
41.49944686889647
 30
0.0
 11
-32.84596252441407
 21
41.49944686889647
 31
0.0
  0
LINE
  8
0
 62
0
 10
-48.44538116455079
 20
41.49944686889647
 30
0.0
 11
-47.64477920532227
 21
41.49944686889647
 31
0.0
  0
LINE
  8
0
 62
0
 10
-14.64520931243897
 20
41.49944686889647
 30
0.0
 11
-13.845948219299322
 21
41.49944686889647
 31
0.0
  0
LINE
  8
0
 62
0
 10
-29.445367813110355
 20
41.49944686889647
 30
0.0
 11
-28.64476585388184
 21
41.49944686889647
 31
0.0
  0
LINE
  8
0
 62
0
 10
4.3548040390014595
 20
41.49944686889647
 30
0.0
 11
5.1540641784667915
 21
41.49944686889647
 31
0.0
  0
LINE
  8
0
 62
0
 10
-10.445354461669927
 20
41.49944686889647
 30
0.0
 11
-9.644753456115728
 21
41.49944686889647
 31
0.0
  0
LINE
  8
0
 62
0
 10
23.354816436767575
 20
41.49944686889648
 30
0.0
 11
24.154077529907223
 21
41.49944686889648
 31
0.0
  0
LINE
  8
0
 62
0
 10
8.554658889770502
 20
41.49944686889648
 30
0.0
 11
9.355258941650385
 21
41.49944686889648
 31
0.0
  0
LINE
  8
0
 62
0
 10
42.35482788085937
 20
41.49944686889648
 30
0.0
 11
43.15409088134765
 21
41.49944686889648
 31
0.0
  0
LINE
  8
0
 62
0
 10
27.554672241210934
 20
41.49944686889648
 30
0.0
 11
28.355272293090817
 21
41.49944686889648
 31
0.0
  0
LINE
  8
0
 62
0
 10
61.35484313964843
 20
41.49944686889648
 30
0.0
 11
62.154102325439446
 21
41.49944686889648
 31
0.0
  0
LINE
  8
0
 62
0
 10
46.55468368530273
 20
41.49944686889648
 30
0.0
 11
47.35528564453124
 21
41.49944686889648
 31
0.0
  0
LINE
  8
0
 62
0
 10
-147.64529418945312
 20
41.499446868896456
 30
0.0
 11
-146.84603881835938
 21
41.499446868896456
 31
0.0
  0
LINE
  8
0
 62
0
 10
-162.44544982910156
 20
41.499446868896456
 30
0.0
 11
-161.6448516845703
 21
41.499446868896456
 31
0.0
  0
LINE
  8
0
 62
0
 10
-128.64527893066406
 20
41.499446868896456
 30
0.0
 11
-127.84602355957031
 21
41.499446868896456
 31
0.0
  0
LINE
  8
0
 62
0
 10
-143.44544982910156
 20
41.499446868896456
 30
0.0
 11
-142.64483642578125
 21
41.499446868896456
 31
0.0
  0
LINE
  8
0
 62
0
 10
-123.64482879638672
 20
40.50034713745114
 30
0.0
 11
-109.64527130126953
 21
40.50034713745115
 31
0.0
  0
LINE
  8
0
 62
0
 10
-104.64482116699219
 20
40.50034713745115
 30
0.0
 11
-90.645263671875
 21
40.50034713745115
 31
0.0
  0
LINE
  8
0
 62
0
 10
-85.64480590820312
 20
40.50034713745115
 30
0.0
 11
-71.64524841308594
 21
40.50034713745115
 31
0.0
  0
LINE
  8
0
 62
0
 10
-66.64479064941406
 20
40.50034713745115
 30
0.0
 11
-52.64523315429688
 21
40.50034713745115
 31
0.0
  0
LINE
  8
0
 62
0
 10
-47.64477920532227
 20
40.50034713745116
 30
0.0
 11
-33.645221710205085
 21
40.50034713745116
 31
0.0
  0
LINE
  8
0
 62
0
 10
-28.64476585388184
 20
40.50034713745116
 30
0.0
 11
-14.64520931243897
 21
40.50034713745116
 31
0.0
  0
LINE
  8
0
 62
0
 10
-9.644753456115728
 20
40.50034713745116
 30
0.0
 11
4.3548040390014595
 21
40.50034713745116
 31
0.0
  0
LINE
  8
0
 62
0
 10
9.355258941650385
 20
40.500347137451165
 30
0.0
 11
23.354816436767575
 21
40.500347137451165
 31
0.0
  0
LINE
  8
0
 62
0
 10
28.355272293090817
 20
40.500347137451165
 30
0.0
 11
42.35482788085937
 21
40.500347137451165
 31
0.0
  0
LINE
  8
0
 62
0
 10
47.35528564453124
 20
40.500347137451165
 30
0.0
 11
61.35484313964843
 21
40.500347137451165
 31
0.0
  0
LINE
  8
0
 62
0
 10
-161.6448516845703
 20
40.50034713745114
 30
0.0
 11
-147.64529418945312
 21
40.50034713745114
 31
0.0
  0
LINE
  8
0
 62
0
 10
-142.64483642578125
 20
40.50034713745114
 30
0.0
 11
-128.64527893066406
 21
40.50034713745114
 31
0.0
  0
LINE
  8
0
 62
0
 10
-109.64527130126955
 20
73.4996643066406
 30
0.0
 11
-123.64482879638673
 21
73.4996643066406
 31
0.0
  0
LINE
  8
0
 62
0
 10
-90.64526367187501
 20
73.4996643066406
 30
0.0
 11
-104.6448211669922
 21
73.4996643066406
 31
0.0
  0
LINE
  8
0
 62
0
 10
-71.64524841308595
 20
73.49966430664061
 30
0.0
 11
-85.64480590820314
 21
73.4996643066406
 31
0.0
  0
LINE
  8
0
 62
0
 10
-52.64523315429688
 20
73.49966430664061
 30
0.0
 11
-66.64479064941408
 21
73.49966430664061
 31
0.0
  0
LINE
  8
0
 62
0
 10
-33.645221710205085
 20
73.49966430664061
 30
0.0
 11
-47.64477920532227
 21
73.49966430664061
 31
0.0
  0
LINE
  8
0
 62
0
 10
-14.645209312438974
 20
73.49966430664061
 30
0.0
 11
-28.644765853881847
 21
73.49966430664061
 31
0.0
  0
LINE
  8
0
 62
0
 10
4.354804039001456
 20
73.49966430664061
 30
0.0
 11
-9.644753456115732
 21
73.49966430664061
 31
0.0
  0
LINE
  8
0
 62
0
 10
23.354816436767567
 20
73.49966430664061
 30
0.0
 11
9.355258941650382
 21
73.49966430664061
 31
0.0
  0
LINE
  8
0
 62
0
 10
42.35482788085937
 20
73.49966430664062
 30
0.0
 11
28.35527229309081
 21
73.49966430664061
 31
0.0
  0
LINE
  8
0
 62
0
 10
61.35484313964843
 20
73.49966430664062
 30
0.0
 11
47.35528564453124
 21
73.49966430664062
 31
0.0
  0
LINE
  8
0
 62
0
 10
-147.64529418945312
 20
73.4996643066406
 30
0.0
 11
-161.6448516845703
 21
73.4996643066406
 31
0.0
  0
LINE
  8
0
 62
0
 10
-128.64527893066406
 20
73.4996643066406
 30
0.0
 11
-142.64483642578125
 21
73.4996643066406
 31
0.0
  0
LINE
  8
0
 62
0
 10
-108.8460159301758
 20
72.49956512451169
 30
0.0
 11
-109.64527130126955
 21
72.49956512451169
 31
0.0
  0
LINE
  8
0
 62
0
 10
-123.64482879638673
 20
72.49956512451169
 30
0.0
 11
-124.44543457031251
 21
72.49956512451169
 31
0.0
  0
LINE
  8
0
 62
0
 10
-89.84600067138673
 20
72.49956512451169
 30
0.0
 11
-90.64526367187501
 21
72.49956512451169
 31
0.0
  0
LINE
  8
0
 62
0
 10
-104.6448211669922
 20
72.49956512451169
 30
0.0
 11
-105.44541931152345
 21
72.49956512451169
 31
0.0
  0
LINE
  8
0
 62
0
 10
-70.84598541259767
 20
72.4995651245117
 30
0.0
 11
-71.64524841308595
 21
72.4995651245117
 31
0.0
  0
LINE
  8
0
 62
0
 10
-85.64480590820314
 20
72.49956512451169
 30
0.0
 11
-86.44540405273439
 21
72.49956512451169
 31
0.0
  0
LINE
  8
0
 62
0
 10
-51.84597396850587
 20
72.4995651245117
 30
0.0
 11
-52.64523315429688
 21
72.4995651245117
 31
0.0
  0
LINE
  8
0
 62
0
 10
-66.64479064941408
 20
72.4995651245117
 30
0.0
 11
-67.44538879394533
 21
72.4995651245117
 31
0.0
  0
LINE
  8
0
 62
0
 10
-32.84596252441407
 20
72.4995651245117
 30
0.0
 11
-33.645221710205085
 21
72.4995651245117
 31
0.0
  0
LINE
  8
0
 62
0
 10
-47.64477920532227
 20
72.4995651245117
 30
0.0
 11
-48.44538116455079
 21
72.4995651245117
 31
0.0
  0
LINE
  8
0
 62
0
 10
-13.845948219299325
 20
72.4995651245117
 30
0.0
 11
-14.645209312438974
 21
72.4995651245117
 31
0.0
  0
LINE
  8
0
 62
0
 10
-28.644765853881843
 20
72.4995651245117
 30
0.0
 11
-29.44536781311036
 21
72.4995651245117
 31
0.0
  0
LINE
  8
0
 62
0
 10
5.154064178466788
 20
72.4995651245117
 30
0.0
 11
4.354804039001456
 21
72.4995651245117
 31
0.0
  0
LINE
  8
0
 62
0
 10
-9.644753456115732
 20
72.4995651245117
 30
0.0
 11
-10.44535446166993
 21
72.4995651245117
 31
0.0
  0
LINE
  8
0
 62
0
 10
24.15407752990722
 20
72.4995651245117
 30
0.0
 11
23.35481643676757
 21
72.4995651245117
 31
0.0
  0
LINE
  8
0
 62
0
 10
9.355258941650382
 20
72.4995651245117
 30
0.0
 11
8.554658889770499
 21
72.4995651245117
 31
0.0
  0
LINE
  8
0
 62
0
 10
43.15409088134765
 20
72.49956512451172
 30
0.0
 11
42.35482788085937
 21
72.49956512451172
 31
0.0
  0
LINE
  8
0
 62
0
 10
28.355272293090813
 20
72.4995651245117
 30
0.0
 11
27.55467224121093
 21
72.4995651245117
 31
0.0
  0
LINE
  8
0
 62
0
 10
62.154102325439446
 20
72.49956512451172
 30
0.0
 11
61.35484313964843
 21
72.49956512451172
 31
0.0
  0
LINE
  8
0
 62
0
 10
47.35528564453124
 20
72.49956512451172
 30
0.0
 11
46.55468368530273
 21
72.49956512451172
 31
0.0
  0
LINE
  8
0
 62
0
 10
-146.84603881835938
 20
72.49956512451169
 30
0.0
 11
-147.64529418945312
 21
72.49956512451169
 31
0.0
  0
LINE
  8
0
 62
0
 10
-161.6448516845703
 20
72.49956512451169
 30
0.0
 11
-162.44544982910156
 21
72.49956512451169
 31
0.0
  0
LINE
  8
0
 62
0
 10
-127.84602355957033
 20
72.49956512451169
 30
0.0
 11
-128.64527893066406
 21
72.49956512451169
 31
0.0
  0
LINE
  8
0
 62
0
 10
-142.64483642578125
 20
72.49956512451169
 30
0.0
 11
-143.44544982910156
 21
72.49956512451169
 31
0.0
  0
LINE
  8
0
 62
0
 10
-109.64527130126955
 20
69.40006256103513
 30
0.0
 11
-108.8460159301758
 21
69.40006256103513
 31
0.0
  0
LINE
  8
0
 62
0
 10
-124.44543457031251
 20
69.40006256103513
 30
0.0
 11
-123.64482879638673
 21
69.40006256103513
 31
0.0
  0
LINE
  8
0
 62
0
 10
-90.64526367187501
 20
69.40006256103513
 30
0.0
 11
-89.84600067138673
 21
69.40006256103513
 31
0.0
  0
LINE
  8
0
 62
0
 10
-105.44541931152345
 20
69.40006256103513
 30
0.0
 11
-104.6448211669922
 21
69.40006256103513
 31
0.0
  0
LINE
  8
0
 62
0
 10
-71.64524841308595
 20
69.40006256103514
 30
0.0
 11
-70.84598541259767
 21
69.40006256103514
 31
0.0
  0
LINE
  8
0
 62
0
 10
-86.44540405273439
 20
69.40006256103513
 30
0.0
 11
-85.64480590820314
 21
69.40006256103513
 31
0.0
  0
LINE
  8
0
 62
0
 10
-52.64523315429688
 20
69.40006256103514
 30
0.0
 11
-51.84597396850587
 21
69.40006256103514
 31
0.0
  0
LINE
  8
0
 62
0
 10
-67.44538879394533
 20
69.40006256103514
 30
0.0
 11
-66.64479064941408
 21
69.40006256103514
 31
0.0
  0
LINE
  8
0
 62
0
 10
-33.645221710205085
 20
69.40006256103514
 30
0.0
 11
-32.84596252441407
 21
69.40006256103514
 31
0.0
  0
LINE
  8
0
 62
0
 10
-48.44538116455079
 20
69.40006256103514
 30
0.0
 11
-47.64477920532227
 21
69.40006256103514
 31
0.0
  0
LINE
  8
0
 62
0
 10
-14.645209312438974
 20
69.40006256103514
 30
0.0
 11
-13.845948219299325
 21
69.40006256103514
 31
0.0
  0
LINE
  8
0
 62
0
 10
-29.44536781311036
 20
69.40006256103514
 30
0.0
 11
-28.644765853881843
 21
69.40006256103514
 31
0.0
  0
LINE
  8
0
 62
0
 10
4.354804039001456
 20
69.40006256103514
 30
0.0
 11
5.154064178466788
 21
69.40006256103514
 31
0.0
  0
LINE
  8
0
 62
0
 10
-10.44535446166993
 20
69.40006256103514
 30
0.0
 11
-9.644753456115732
 21
69.40006256103514
 31
0.0
  0
LINE
  8
0
 62
0
 10
23.35481643676757
 20
69.40006256103514
 30
0.0
 11
24.15407752990722
 21
69.40006256103514
 31
0.0
  0
LINE
  8
0
 62
0
 10
8.554658889770499
 20
69.40006256103514
 30
0.0
 11
9.355258941650382
 21
69.40006256103514
 31
0.0
  0
LINE
  8
0
 62
0
 10
42.35482788085937
 20
69.40006256103516
 30
0.0
 11
43.15409088134765
 21
69.40006256103516
 31
0.0
  0
LINE
  8
0
 62
0
 10
27.55467224121093
 20
69.40006256103514
 30
0.0
 11
28.355272293090813
 21
69.40006256103514
 31
0.0
  0
LINE
  8
0
 62
0
 10
61.35484313964843
 20
69.40006256103516
 30
0.0
 11
62.154102325439446
 21
69.40006256103516
 31
0.0
  0
LINE
  8
0
 62
0
 10
46.55468368530273
 20
69.40006256103516
 30
0.0
 11
47.35528564453124
 21
69.40006256103516
 31
0.0
  0
LINE
  8
0
 62
0
 10
-147.64529418945312
 20
69.40006256103513
 30
0.0
 11
-146.84603881835938
 21
69.40006256103513
 31
0.0
  0
LINE
  8
0
 62
0
 10
-162.44544982910156
 20
69.40006256103513
 30
0.0
 11
-161.6448516845703
 21
69.40006256103513
 31
0.0
  0
LINE
  8
0
 62
0
 10
-128.64527893066406
 20
69.40006256103513
 30
0.0
 11
-127.84602355957033
 21
69.40006256103513
 31
0.0
  0
LINE
  8
0
 62
0
 10
-143.44544982910156
 20
69.40006256103513
 30
0.0
 11
-142.64483642578125
 21
69.40006256103513
 31
0.0
  0
LINE
  8
0
 62
0
 10
-108.8460159301758
 20
63.599960327148416
 30
0.0
 11
-109.64527130126955
 21
63.599960327148416
 31
0.0
  0
LINE
  8
0
 62
0
 10
-123.64482879638673
 20
63.59996032714841
 30
0.0
 11
-124.44543457031251
 21
63.59996032714841
 31
0.0
  0
LINE
  8
0
 62
0
 10
-89.84600067138673
 20
63.599960327148416
 30
0.0
 11
-90.64526367187501
 21
63.599960327148416
 31
0.0
  0
LINE
  8
0
 62
0
 10
-104.6448211669922
 20
63.599960327148416
 30
0.0
 11
-105.44541931152345
 21
63.599960327148416
 31
0.0
  0
LINE
  8
0
 62
0
 10
-70.84598541259767
 20
63.599960327148416
 30
0.0
 11
-71.64524841308595
 21
63.599960327148416
 31
0.0
  0
LINE
  8
0
 62
0
 10
-85.64480590820314
 20
63.599960327148416
 30
0.0
 11
-86.44540405273439
 21
63.599960327148416
 31
0.0
  0
LINE
  8
0
 62
0
 10
-51.84597396850587
 20
63.59996032714842
 30
0.0
 11
-52.64523315429688
 21
63.599960327148416
 31
0.0
  0
LINE
  8
0
 62
0
 10
-66.64479064941408
 20
63.599960327148416
 30
0.0
 11
-67.44538879394533
 21
63.599960327148416
 31
0.0
  0
LINE
  8
0
 62
0
 10
-32.84596252441407
 20
63.59996032714842
 30
0.0
 11
-33.645221710205085
 21
63.59996032714842
 31
0.0
  0
LINE
  8
0
 62
0
 10
-47.64477920532227
 20
63.59996032714842
 30
0.0
 11
-48.44538116455079
 21
63.59996032714842
 31
0.0
  0
LINE
  8
0
 62
0
 10
-13.845948219299324
 20
63.59996032714842
 30
0.0
 11
-14.645209312438972
 21
63.59996032714842
 31
0.0
  0
LINE
  8
0
 62
0
 10
-28.644765853881843
 20
63.59996032714842
 30
0.0
 11
-29.44536781311036
 21
63.59996032714842
 31
0.0
  0
LINE
  8
0
 62
0
 10
5.154064178466789
 20
63.59996032714842
 30
0.0
 11
4.354804039001457
 21
63.59996032714842
 31
0.0
  0
LINE
  8
0
 62
0
 10
-9.64475345611573
 20
63.59996032714842
 30
0.0
 11
-10.445354461669929
 21
63.59996032714842
 31
0.0
  0
LINE
  8
0
 62
0
 10
24.15407752990722
 20
63.59996032714843
 30
0.0
 11
23.35481643676757
 21
63.59996032714843
 31
0.0
  0
LINE
  8
0
 62
0
 10
9.355258941650384
 20
63.59996032714843
 30
0.0
 11
8.5546588897705
 21
63.59996032714843
 31
0.0
  0
LINE
  8
0
 62
0
 10
43.15409088134765
 20
63.59996032714843
 30
0.0
 11
42.35482788085937
 21
63.59996032714843
 31
0.0
  0
LINE
  8
0
 62
0
 10
28.355272293090813
 20
63.59996032714843
 30
0.0
 11
27.55467224121093
 21
63.59996032714843
 31
0.0
  0
LINE
  8
0
 62
0
 10
62.154102325439446
 20
63.59996032714843
 30
0.0
 11
61.35484313964843
 21
63.59996032714843
 31
0.0
  0
LINE
  8
0
 62
0
 10
47.35528564453124
 20
63.59996032714843
 30
0.0
 11
46.55468368530273
 21
63.59996032714843
 31
0.0
  0
LINE
  8
0
 62
0
 10
-146.84603881835938
 20
63.59996032714841
 30
0.0
 11
-147.64529418945312
 21
63.59996032714841
 31
0.0
  0
LINE
  8
0
 62
0
 10
-161.6448516845703
 20
63.59996032714841
 30
0.0
 11
-162.44544982910156
 21
63.59996032714841
 31
0.0
  0
LINE
  8
0
 62
0
 10
-127.84602355957033
 20
63.59996032714841
 30
0.0
 11
-128.64527893066406
 21
63.59996032714841
 31
0.0
  0
LINE
  8
0
 62
0
 10
-142.64483642578125
 20
63.59996032714841
 30
0.0
 11
-143.44544982910156
 21
63.59996032714841
 31
0.0
  0
LINE
  8
0
 62
0
 10
-109.64527130126955
 20
60.49945831298826
 30
0.0
 11
-108.8460159301758
 21
60.49945831298826
 31
0.0
  0
LINE
  8
0
 62
0
 10
-124.44543457031251
 20
60.49945831298825
 30
0.0
 11
-123.64482879638673
 21
60.49945831298825
 31
0.0
  0
LINE
  8
0
 62
0
 10
-90.64526367187501
 20
60.49945831298826
 30
0.0
 11
-89.84600067138673
 21
60.49945831298826
 31
0.0
  0
LINE
  8
0
 62
0
 10
-105.44541931152345
 20
60.49945831298826
 30
0.0
 11
-104.6448211669922
 21
60.49945831298826
 31
0.0
  0
LINE
  8
0
 62
0
 10
-71.64524841308595
 20
60.49945831298826
 30
0.0
 11
-70.84598541259767
 21
60.49945831298826
 31
0.0
  0
LINE
  8
0
 62
0
 10
-86.44540405273439
 20
60.49945831298826
 30
0.0
 11
-85.64480590820314
 21
60.49945831298826
 31
0.0
  0
LINE
  8
0
 62
0
 10
-52.64523315429688
 20
60.49945831298826
 30
0.0
 11
-51.84597396850587
 21
60.49945831298827
 31
0.0
  0
LINE
  8
0
 62
0
 10
-67.44538879394533
 20
60.49945831298826
 30
0.0
 11
-66.64479064941408
 21
60.49945831298826
 31
0.0
  0
LINE
  8
0
 62
0
 10
-33.645221710205085
 20
60.49945831298827
 30
0.0
 11
-32.84596252441407
 21
60.49945831298827
 31
0.0
  0
LINE
  8
0
 62
0
 10
-48.44538116455079
 20
60.49945831298827
 30
0.0
 11
-47.64477920532227
 21
60.49945831298827
 31
0.0
  0
LINE
  8
0
 62
0
 10
-14.645209312438972
 20
60.49945831298827
 30
0.0
 11
-13.845948219299324
 21
60.49945831298827
 31
0.0
  0
LINE
  8
0
 62
0
 10
-29.44536781311036
 20
60.49945831298827
 30
0.0
 11
-28.644765853881843
 21
60.49945831298827
 31
0.0
  0
LINE
  8
0
 62
0
 10
4.354804039001458
 20
60.49945831298827
 30
0.0
 11
5.15406417846679
 21
60.49945831298827
 31
0.0
  0
LINE
  8
0
 62
0
 10
-10.445354461669929
 20
60.49945831298827
 30
0.0
 11
-9.64475345611573
 21
60.49945831298827
 31
0.0
  0
LINE
  8
0
 62
0
 10
23.35481643676757
 20
60.499458312988274
 30
0.0
 11
24.15407752990722
 21
60.499458312988274
 31
0.0
  0
LINE
  8
0
 62
0
 10
8.5546588897705
 20
60.499458312988274
 30
0.0
 11
9.355258941650384
 21
60.499458312988274
 31
0.0
  0
LINE
  8
0
 62
0
 10
42.35482788085937
 20
60.499458312988274
 30
0.0
 11
43.15409088134765
 21
60.499458312988274
 31
0.0
  0
LINE
  8
0
 62
0
 10
27.55467224121093
 20
60.499458312988274
 30
0.0
 11
28.355272293090813
 21
60.499458312988274
 31
0.0
  0
LINE
  8
0
 62
0
 10
61.35484313964843
 20
60.499458312988274
 30
0.0
 11
62.154102325439446
 21
60.499458312988274
 31
0.0
  0
LINE
  8
0
 62
0
 10
46.55468368530273
 20
60.499458312988274
 30
0.0
 11
47.35528564453124
 21
60.499458312988274
 31
0.0
  0
LINE
  8
0
 62
0
 10
-147.64529418945312
 20
60.49945831298825
 30
0.0
 11
-146.84603881835938
 21
60.49945831298825
 31
0.0
  0
LINE
  8
0
 62
0
 10
-162.44544982910156
 20
60.49945831298825
 30
0.0
 11
-161.6448516845703
 21
60.49945831298825
 31
0.0
  0
LINE
  8
0
 62
0
 10
-128.64527893066406
 20
60.49945831298825
 30
0.0
 11
-127.84602355957033
 21
60.49945831298825
 31
0.0
  0
LINE
  8
0
 62
0
 10
-143.44544982910156
 20
60.49945831298825
 30
0.0
 11
-142.64483642578125
 21
60.49945831298825
 31
0.0
  0
LINE
  8
0
 62
0
 10
-123.64482879638673
 20
59.50035858154294
 30
0.0
 11
-109.64527130126955
 21
59.50035858154295
 31
0.0
  0
LINE
  8
0
 62
0
 10
-104.6448211669922
 20
59.50035858154295
 30
0.0
 11
-90.64526367187501
 21
59.50035858154295
 31
0.0
  0
LINE
  8
0
 62
0
 10
-85.64480590820314
 20
59.50035858154295
 30
0.0
 11
-71.64524841308595
 21
59.50035858154295
 31
0.0
  0
LINE
  8
0
 62
0
 10
-66.64479064941408
 20
59.50035858154295
 30
0.0
 11
-52.64523315429688
 21
59.50035858154295
 31
0.0
  0
LINE
  8
0
 62
0
 10
-47.64477920532227
 20
59.500358581542955
 30
0.0
 11
-33.645221710205085
 21
59.500358581542955
 31
0.0
  0
LINE
  8
0
 62
0
 10
-28.644765853881843
 20
59.500358581542955
 30
0.0
 11
-14.645209312438972
 21
59.500358581542955
 31
0.0
  0
LINE
  8
0
 62
0
 10
-9.64475345611573
 20
59.500358581542955
 30
0.0
 11
4.354804039001458
 21
59.500358581542955
 31
0.0
  0
LINE
  8
0
 62
0
 10
9.355258941650384
 20
59.50035858154296
 30
0.0
 11
23.35481643676757
 21
59.50035858154296
 31
0.0
  0
LINE
  8
0
 62
0
 10
28.355272293090813
 20
59.50035858154296
 30
0.0
 11
42.35482788085937
 21
59.50035858154296
 31
0.0
  0
LINE
  8
0
 62
0
 10
47.35528564453124
 20
59.50035858154296
 30
0.0
 11
61.35484313964843
 21
59.50035858154296
 31
0.0
  0
LINE
  8
0
 62
0
 10
-161.6448516845703
 20
59.50035858154294
 30
0.0
 11
-147.64529418945312
 21
59.50035858154294
 31
0.0
  0
LINE
  8
0
 62
0
 10
-142.64483642578125
 20
59.50035858154294
 30
0.0
 11
-128.64527893066406
 21
59.50035858154294
 31
0.0
  0
LINE
  8
0
 62
0
 10
-90.645263671875
 20
16.49962806701658
 30
0.0
 11
-104.64482116699219
 21
16.499628067016577
 31
0.0
  0
LINE
  8
0
 62
0
 10
-14.645209312438967
 20
16.499628067016587
 30
0.0
 11
-85.64480590820312
 21
16.49962806701658
 31
0.0
  0
LINE
  8
0
 62
0
 10
4.354804039001463
 20
16.49962806701659
 30
0.0
 11
-9.644753456115724
 21
16.499628067016587
 31
0.0
  0
LINE
  8
0
 62
0
 10
23.354816436767575
 20
16.499628067016594
 30
0.0
 11
9.355258941650389
 21
16.49962806701659
 31
0.0
  0
LINE
  8
0
 62
0
 10
42.354827880859375
 20
16.499628067016594
 30
0.0
 11
28.355272293090817
 21
16.499628067016594
 31
0.0
  0
LINE
  8
0
 62
0
 10
61.35484313964844
 20
16.499628067016598
 30
0.0
 11
47.35528564453125
 21
16.499628067016594
 31
0.0
  0
LINE
  8
0
 62
0
 10
-147.64529418945312
 20
16.499628067016573
 30
0.0
 11
-161.6448516845703
 21
16.49962806701657
 31
0.0
  0
LINE
  8
0
 62
0
 10
-128.64527893066406
 20
16.499628067016573
 30
0.0
 11
-142.64483642578125
 21
16.499628067016573
 31
0.0
  0
LINE
  8
0
 62
0
 10
-109.64527130126953
 20
16.499628067016577
 30
0.0
 11
-123.64482879638672
 21
16.499628067016577
 31
0.0
  0
LINE
  8
0
 62
0
 10
-90.645263671875
 20
15.499527931213356
 30
0.0
 11
-90.645263671875
 21
16.49962806701658
 31
0.0
  0
LINE
  8
0
 62
0
 10
-90.645263671875
 20
6.599922657012917
 30
0.0
 11
-90.645263671875
 21
12.40002632141111
 31
0.0
  0
LINE
  8
0
 62
0
 10
-90.645263671875
 20
2.500320672988869
 30
0.0
 11
-90.645263671875
 21
3.4994211196899188
 31
0.0
  0
LINE
  8
0
 62
0
 10
-90.645263671875
 20
34.499542236328104
 30
0.0
 11
-90.645263671875
 21
35.49964141845701
 31
0.0
  0
LINE
  8
0
 62
0
 10
-90.645263671875
 20
25.59993553161619
 30
0.0
 11
-90.645263671875
 21
31.40003967285154
 31
0.0
  0
LINE
  8
0
 62
0
 10
-90.645263671875
 20
21.50033378601072
 30
0.0
 11
-90.645263671875
 21
22.499433517456033
 31
0.0
  0
LINE
  8
0
 62
0
 10
-90.645263671875
 20
53.4995536804199
 30
0.0
 11
-90.645263671875
 21
54.49965286254881
 31
0.0
  0
LINE
  8
0
 62
0
 10
-90.645263671875
 20
44.59994888305662
 30
0.0
 11
-90.645263671875
 21
50.40005111694334
 31
0.0
  0
LINE
  8
0
 62
0
 10
-90.645263671875
 20
40.50034713745115
 30
0.0
 11
-90.645263671875
 21
41.49944686889646
 31
0.0
  0
LINE
  8
0
 62
0
 10
-90.64526367187501
 20
72.49956512451169
 30
0.0
 11
-90.64526367187501
 21
73.4996643066406
 31
0.0
  0
LINE
  8
0
 62
0
 10
-90.64526367187501
 20
63.599960327148416
 30
0.0
 11
-90.64526367187501
 21
69.40006256103513
 31
0.0
  0
LINE
  8
0
 62
0
 10
-90.64526367187501
 20
59.50035858154295
 30
0.0
 11
-90.64526367187501
 21
60.49945831298826
 31
0.0
  0
LINE
  8
0
 62
0
 10
-90.64526367187501
 20
91.49958038330075
 30
0.0
 11
-90.64526367187501
 21
92.49967956542966
 31
0.0
  0
LINE
  8
0
 62
0
 10
-90.64526367187501
 20
82.59997558593747
 30
0.0
 11
-90.64526367187501
 21
88.40007781982419
 31
0.0
  0
LINE
  8
0
 62
0
 10
-90.64526367187501
 20
78.500373840332
 30
0.0
 11
-90.64526367187501
 21
79.49947357177732
 31
0.0
  0
LINE
  8
0
 62
0
 10
-89.84600067138672
 20
15.499527931213356
 30
0.0
 11
-90.645263671875
 21
15.499527931213356
 31
0.0
  0
LINE
  8
0
 62
0
 10
-104.64482116699219
 20
15.499527931213354
 30
0.0
 11
-105.44541931152344
 21
15.499527931213354
 31
0.0
  0
LINE
  8
0
 62
0
 10
-85.64480590820312
 20
15.499527931213358
 30
0.0
 11
-86.44540405273438
 21
15.499527931213358
 31
0.0
  0
LINE
  8
0
 62
0
 10
-13.845948219299318
 20
15.499527931213366
 30
0.0
 11
-14.645209312438967
 21
15.499527931213366
 31
0.0
  0
LINE
  8
0
 62
0
 10
5.154064178466795
 20
15.499527931213368
 30
0.0
 11
4.354804039001463
 21
15.499527931213368
 31
0.0
  0
LINE
  8
0
 62
0
 10
-9.644753456115724
 20
15.499527931213366
 30
0.0
 11
-10.445354461669924
 21
15.499527931213366
 31
0.0
  0
LINE
  8
0
 62
0
 10
24.154077529907223
 20
15.49952793121337
 30
0.0
 11
23.354816436767575
 21
15.49952793121337
 31
0.0
  0
LINE
  8
0
 62
0
 10
9.355258941650389
 20
15.499527931213368
 30
0.0
 11
8.554658889770506
 21
15.499527931213368
 31
0.0
  0
LINE
  8
0
 62
0
 10
43.154090881347656
 20
15.499527931213374
 30
0.0
 11
42.354827880859375
 21
15.499527931213374
 31
0.0
  0
LINE
  8
0
 62
0
 10
28.355272293090817
 20
15.499527931213372
 30
0.0
 11
27.554672241210934
 21
15.499527931213372
 31
0.0
  0
LINE
  8
0
 62
0
 10
62.15410232543945
 20
15.499527931213375
 30
0.0
 11
61.35484313964844
 21
15.499527931213375
 31
0.0
  0
LINE
  8
0
 62
0
 10
47.35528564453125
 20
15.499527931213374
 30
0.0
 11
46.554683685302734
 21
15.499527931213374
 31
0.0
  0
LINE
  8
0
 62
0
 10
-146.84603881835938
 20
15.499527931213349
 30
0.0
 11
-147.64529418945312
 21
15.499527931213349
 31
0.0
  0
LINE
  8
0
 62
0
 10
-161.6448516845703
 20
15.499527931213347
 30
0.0
 11
-162.44544982910156
 21
15.499527931213347
 31
0.0
  0
LINE
  8
0
 62
0
 10
-127.84602355957031
 20
15.499527931213352
 30
0.0
 11
-128.64527893066406
 21
15.499527931213352
 31
0.0
  0
LINE
  8
0
 62
0
 10
-142.64483642578125
 20
15.49952793121335
 30
0.0
 11
-143.44544982910156
 21
15.49952793121335
 31
0.0
  0
LINE
  8
0
 62
0
 10
-108.84601593017578
 20
15.499527931213354
 30
0.0
 11
-109.64527130126953
 21
15.499527931213354
 31
0.0
  0
LINE
  8
0
 62
0
 10
-123.64482879638672
 20
15.499527931213352
 30
0.0
 11
-124.4454345703125
 21
15.499527931213352
 31
0.0
  0
LINE
  8
0
 62
0
 10
-89.84600067138672
 20
12.40002632141111
 30
0.0
 11
-89.84600067138672
 21
15.499527931213356
 31
0.0
  0
LINE
  8
0
 62
0
 10
-89.84600067138672
 20
3.499421119689919
 30
0.0
 11
-89.84600067138672
 21
6.599922657012917
 31
0.0
  0
LINE
  8
0
 62
0
 10
-89.84600067138672
 20
31.40003967285154
 30
0.0
 11
-89.84600067138672
 21
34.499542236328104
 31
0.0
  0
LINE
  8
0
 62
0
 10
-89.84600067138672
 20
22.499433517456033
 30
0.0
 11
-89.84600067138672
 21
25.59993553161619
 31
0.0
  0
LINE
  8
0
 62
0
 10
-89.84600067138672
 20
50.40005111694334
 30
0.0
 11
-89.84600067138672
 21
53.4995536804199
 31
0.0
  0
LINE
  8
0
 62
0
 10
-89.84600067138672
 20
41.49944686889646
 30
0.0
 11
-89.84600067138672
 21
44.59994888305662
 31
0.0
  0
LINE
  8
0
 62
0
 10
-89.84600067138673
 20
69.40006256103513
 30
0.0
 11
-89.84600067138673
 21
72.49956512451169
 31
0.0
  0
LINE
  8
0
 62
0
 10
-89.84600067138673
 20
60.49945831298826
 30
0.0
 11
-89.84600067138673
 21
63.599960327148416
 31
0.0
  0
LINE
  8
0
 62
0
 10
-89.84600067138673
 20
88.40007781982419
 30
0.0
 11
-89.84600067138673
 21
91.49958038330075
 31
0.0
  0
LINE
  8
0
 62
0
 10
-89.84600067138673
 20
79.49947357177732
 30
0.0
 11
-89.84600067138673
 21
82.59997558593747
 31
0.0
  0
LINE
  8
0
 62
0
 10
-90.645263671875
 20
12.40002632141111
 30
0.0
 11
-89.84600067138672
 21
12.40002632141111
 31
0.0
  0
LINE
  8
0
 62
0
 10
-105.44541931152344
 20
12.400026321411108
 30
0.0
 11
-104.64482116699219
 21
12.400026321411108
 31
0.0
  0
LINE
  8
0
 62
0
 10
-86.44540405273438
 20
12.400026321411111
 30
0.0
 11
-85.64480590820312
 21
12.400026321411111
 31
0.0
  0
LINE
  8
0
 62
0
 10
-14.645209312438967
 20
12.40002632141112
 30
0.0
 11
-13.845948219299318
 21
12.40002632141112
 31
0.0
  0
LINE
  8
0
 62
0
 10
4.354804039001463
 20
12.400026321411122
 30
0.0
 11
5.154064178466795
 21
12.400026321411122
 31
0.0
  0
LINE
  8
0
 62
0
 10
-10.445354461669924
 20
12.40002632141112
 30
0.0
 11
-9.644753456115724
 21
12.40002632141112
 31
0.0
  0
LINE
  8
0
 62
0
 10
23.354816436767578
 20
12.400026321411124
 30
0.0
 11
24.154077529907227
 21
12.400026321411124
 31
0.0
  0
LINE
  8
0
 62
0
 10
8.554658889770506
 20
12.400026321411122
 30
0.0
 11
9.355258941650389
 21
12.400026321411122
 31
0.0
  0
LINE
  8
0
 62
0
 10
42.354827880859375
 20
12.400026321411127
 30
0.0
 11
43.154090881347656
 21
12.400026321411127
 31
0.0
  0
LINE
  8
0
 62
0
 10
27.554672241210938
 20
12.400026321411126
 30
0.0
 11
28.35527229309082
 21
12.400026321411126
 31
0.0
  0
LINE
  8
0
 62
0
 10
61.35484313964844
 20
12.40002632141113
 30
0.0
 11
62.15410232543945
 21
12.40002632141113
 31
0.0
  0
LINE
  8
0
 62
0
 10
46.554683685302734
 20
12.400026321411127
 30
0.0
 11
47.35528564453125
 21
12.400026321411127
 31
0.0
  0
LINE
  8
0
 62
0
 10
-147.64529418945312
 20
12.400026321411103
 30
0.0
 11
-146.84603881835938
 21
12.400026321411103
 31
0.0
  0
LINE
  8
0
 62
0
 10
-162.44544982910156
 20
12.4000263214111
 30
0.0
 11
-161.6448516845703
 21
12.4000263214111
 31
0.0
  0
LINE
  8
0
 62
0
 10
-128.64527893066406
 20
12.400026321411106
 30
0.0
 11
-127.84602355957031
 21
12.400026321411106
 31
0.0
  0
LINE
  8
0
 62
0
 10
-143.44544982910156
 20
12.400026321411104
 30
0.0
 11
-142.64483642578125
 21
12.400026321411104
 31
0.0
  0
LINE
  8
0
 62
0
 10
-109.64527130126953
 20
12.400026321411108
 30
0.0
 11
-108.84601593017578
 21
12.400026321411108
 31
0.0
  0
LINE
  8
0
 62
0
 10
-124.4454345703125
 20
12.400026321411106
 30
0.0
 11
-123.64482879638672
 21
12.400026321411106
 31
0.0
  0
LINE
  8
0
 62
0
 10
-89.84600067138672
 20
6.599922657012917
 30
0.0
 11
-90.645263671875
 21
6.599922657012917
 31
0.0
  0
LINE
  8
0
 62
0
 10
-104.64482116699219
 20
6.5999226570129155
 30
0.0
 11
-105.44541931152344
 21
6.5999226570129155
 31
0.0
  0
LINE
  8
0
 62
0
 10
-85.64480590820312
 20
6.599922657012917
 30
0.0
 11
-86.44540405273438
 21
6.599922657012917
 31
0.0
  0
LINE
  8
0
 62
0
 10
-13.845948219299316
 20
6.599922657012926
 30
0.0
 11
-14.645209312438965
 21
6.599922657012926
 31
0.0
  0
LINE
  8
0
 62
0
 10
5.154064178466796
 20
6.599922657012929
 30
0.0
 11
4.354804039001464
 21
6.599922657012929
 31
0.0
  0
LINE
  8
0
 62
0
 10
-9.644753456115723
 20
6.599922657012927
 30
0.0
 11
-10.445354461669922
 21
6.599922657012927
 31
0.0
  0
LINE
  8
0
 62
0
 10
24.154077529907227
 20
6.5999226570129315
 30
0.0
 11
23.354816436767578
 21
6.599922657012931
 31
0.0
  0
LINE
  8
0
 62
0
 10
9.35525894165039
 20
6.599922657012929
 30
0.0
 11
8.554658889770508
 21
6.599922657012929
 31
0.0
  0
LINE
  8
0
 62
0
 10
43.154090881347656
 20
6.599922657012933
 30
0.0
 11
42.354827880859375
 21
6.599922657012933
 31
0.0
  0
LINE
  8
0
 62
0
 10
28.35527229309082
 20
6.5999226570129315
 30
0.0
 11
27.554672241210938
 21
6.5999226570129315
 31
0.0
  0
LINE
  8
0
 62
0
 10
62.15410232543945
 20
6.599922657012936
 30
0.0
 11
61.35484313964844
 21
6.599922657012936
 31
0.0
  0
LINE
  8
0
 62
0
 10
47.35528564453125
 20
6.599922657012934
 30
0.0
 11
46.554683685302734
 21
6.599922657012934
 31
0.0
  0
LINE
  8
0
 62
0
 10
-146.84603881835938
 20
6.59992265701291
 30
0.0
 11
-147.64529418945312
 21
6.59992265701291
 31
0.0
  0
LINE
  8
0
 62
0
 10
-161.6448516845703
 20
6.599922657012908
 30
0.0
 11
-162.44544982910156
 21
6.599922657012908
 31
0.0
  0
LINE
  8
0
 62
0
 10
-127.84602355957031
 20
6.599922657012913
 30
0.0
 11
-128.64527893066406
 21
6.599922657012912
 31
0.0
  0
LINE
  8
0
 62
0
 10
-142.64483642578125
 20
6.599922657012911
 30
0.0
 11
-143.44544982910156
 21
6.59992265701291
 31
0.0
  0
LINE
  8
0
 62
0
 10
-108.84601593017578
 20
6.599922657012915
 30
0.0
 11
-109.64527130126953
 21
6.599922657012915
 31
0.0
  0
LINE
  8
0
 62
0
 10
-123.64482879638672
 20
6.599922657012913
 30
0.0
 11
-124.4454345703125
 21
6.599922657012913
 31
0.0
  0
LINE
  8
0
 62
0
 10
-90.645263671875
 20
3.4994211196899188
 30
0.0
 11
-89.84600067138672
 21
3.499421119689919
 31
0.0
  0
LINE
  8
0
 62
0
 10
-105.44541931152344
 20
3.499421119689917
 30
0.0
 11
-104.64482116699219
 21
3.4994211196899174
 31
0.0
  0
LINE
  8
0
 62
0
 10
-86.44540405273438
 20
3.4994211196899196
 30
0.0
 11
-85.64480590820312
 21
3.4994211196899196
 31
0.0
  0
LINE
  8
0
 62
0
 10
-14.645209312438965
 20
3.499421119689928
 30
0.0
 11
-13.845948219299316
 21
3.4994211196899285
 31
0.0
  0
LINE
  8
0
 62
0
 10
4.354804039001465
 20
3.4994211196899307
 30
0.0
 11
5.154064178466797
 21
3.4994211196899307
 31
0.0
  0
LINE
  8
0
 62
0
 10
-10.445354461669922
 20
3.499421119689929
 30
0.0
 11
-9.644753456115723
 21
3.499421119689929
 31
0.0
  0
LINE
  8
0
 62
0
 10
23.354816436767578
 20
3.499421119689933
 30
0.0
 11
24.154077529907227
 21
3.499421119689933
 31
0.0
  0
LINE
  8
0
 62
0
 10
8.554658889770508
 20
3.499421119689931
 30
0.0
 11
9.35525894165039
 21
3.499421119689931
 31
0.0
  0
LINE
  8
0
 62
0
 10
42.354827880859375
 20
3.499421119689935
 30
0.0
 11
43.154090881347656
 21
3.499421119689935
 31
0.0
  0
LINE
  8
0
 62
0
 10
27.554672241210938
 20
3.4994211196899334
 30
0.0
 11
28.35527229309082
 21
3.4994211196899334
 31
0.0
  0
LINE
  8
0
 62
0
 10
61.35484313964844
 20
3.4994211196899374
 30
0.0
 11
62.15410232543945
 21
3.499421119689938
 31
0.0
  0
LINE
  8
0
 62
0
 10
46.554683685302734
 20
3.4994211196899356
 30
0.0
 11
47.35528564453125
 21
3.4994211196899356
 31
0.0
  0
LINE
  8
0
 62
0
 10
-147.64529418945312
 20
3.499421119689912
 30
0.0
 11
-146.84603881835938
 21
3.499421119689912
 31
0.0
  0
LINE
  8
0
 62
0
 10
-162.44544982910156
 20
3.4994211196899103
 30
0.0
 11
-161.6448516845703
 21
3.4994211196899103
 31
0.0
  0
LINE
  8
0
 62
0
 10
-128.64527893066406
 20
3.4994211196899143
 30
0.0
 11
-127.84602355957031
 21
3.4994211196899143
 31
0.0
  0
LINE
  8
0
 62
0
 10
-143.44544982910156
 20
3.4994211196899125
 30
0.0
 11
-142.64483642578125
 21
3.4994211196899125
 31
0.0
  0
LINE
  8
0
 62
0
 10
-109.64527130126953
 20
3.4994211196899165
 30
0.0
 11
-108.84601593017578
 21
3.4994211196899165
 31
0.0
  0
LINE
  8
0
 62
0
 10
-124.4454345703125
 20
3.4994211196899148
 30
0.0
 11
-123.64482879638672
 21
3.4994211196899148
 31
0.0
  0
LINE
  8
0
 62
0
 10
-104.64482116699219
 20
2.5003206729888676
 30
0.0
 11
-90.645263671875
 21
2.500320672988869
 31
0.0
  0
LINE
  8
0
 62
0
 10
-85.64480590820312
 20
2.50032067298887
 30
0.0
 11
-14.645209312438965
 21
2.5003206729888783
 31
0.0
  0
LINE
  8
0
 62
0
 10
-9.644753456115723
 20
2.500320672988879
 30
0.0
 11
4.354804039001465
 21
2.500320672988881
 31
0.0
  0
LINE
  8
0
 62
0
 10
9.35525894165039
 20
2.5003206729888814
 30
0.0
 11
23.354816436767578
 21
2.500320672988883
 31
0.0
  0
LINE
  8
0
 62
0
 10
28.35527229309082
 20
2.5003206729888836
 30
0.0
 11
42.354827880859375
 21
2.5003206729888854
 31
0.0
  0
LINE
  8
0
 62
0
 10
47.35528564453125
 20
2.500320672988886
 30
0.0
 11
61.35484313964844
 21
2.5003206729888876
 31
0.0
  0
LINE
  8
0
 62
0
 10
-161.6448516845703
 20
2.5003206729888605
 30
0.0
 11
-147.64529418945312
 21
2.5003206729888623
 31
0.0
  0
LINE
  8
0
 62
0
 10
-142.64483642578125
 20
2.5003206729888627
 30
0.0
 11
-128.64527893066406
 21
2.5003206729888645
 31
0.0
  0
LINE
  8
0
 62
0
 10
-123.64482879638672
 20
2.500320672988865
 30
0.0
 11
-109.64527130126953
 21
2.5003206729888667
 31
0.0
  0
LINE
  8
0
 62
0
 10
-104.64482116699219
 20
3.4994211196899174
 30
0.0
 11
-104.64482116699219
 21
2.5003206729888676
 31
0.0
  0
LINE
  8
0
 62
0
 10
-104.64482116699219
 20
12.400026321411108
 30
0.0
 11
-104.64482116699219
 21
6.5999226570129155
 31
0.0
  0
LINE
  8
0
 62
0
 10
-104.64482116699219
 20
16.499628067016577
 30
0.0
 11
-104.64482116699219
 21
15.499527931213354
 31
0.0
  0
LINE
  8
0
 62
0
 10
-104.64482116699219
 20
22.49943351745603
 30
0.0
 11
-104.64482116699219
 21
21.500333786010717
 31
0.0
  0
LINE
  8
0
 62
0
 10
-104.64482116699219
 20
31.400039672851538
 30
0.0
 11
-104.64482116699219
 21
25.599935531616186
 31
0.0
  0
LINE
  8
0
 62
0
 10
-104.64482116699219
 20
35.49964141845701
 30
0.0
 11
-104.64482116699219
 21
34.499542236328104
 31
0.0
  0
LINE
  8
0
 62
0
 10
-104.64482116699219
 20
41.49944686889646
 30
0.0
 11
-104.64482116699219
 21
40.50034713745115
 31
0.0
  0
LINE
  8
0
 62
0
 10
-104.64482116699219
 20
50.40005111694334
 30
0.0
 11
-104.64482116699219
 21
44.59994888305662
 31
0.0
  0
LINE
  8
0
 62
0
 10
-104.64482116699219
 20
54.49965286254881
 30
0.0
 11
-104.64482116699219
 21
53.4995536804199
 31
0.0
  0
LINE
  8
0
 62
0
 10
-104.6448211669922
 20
60.49945831298826
 30
0.0
 11
-104.6448211669922
 21
59.50035858154295
 31
0.0
  0
LINE
  8
0
 62
0
 10
-104.6448211669922
 20
69.40006256103513
 30
0.0
 11
-104.6448211669922
 21
63.599960327148416
 31
0.0
  0
LINE
  8
0
 62
0
 10
-104.6448211669922
 20
73.4996643066406
 30
0.0
 11
-104.6448211669922
 21
72.49956512451169
 31
0.0
  0
LINE
  8
0
 62
0
 10
-104.6448211669922
 20
79.49947357177732
 30
0.0
 11
-104.6448211669922
 21
78.500373840332
 31
0.0
  0
LINE
  8
0
 62
0
 10
-104.6448211669922
 20
88.40007781982419
 30
0.0
 11
-104.6448211669922
 21
82.59997558593747
 31
0.0
  0
LINE
  8
0
 62
0
 10
-104.6448211669922
 20
92.49967956542966
 30
0.0
 11
-104.6448211669922
 21
91.49958038330075
 31
0.0
  0
LINE
  8
0
 62
0
 10
-105.44541931152344
 20
6.5999226570129155
 30
0.0
 11
-105.44541931152344
 21
3.499421119689917
 31
0.0
  0
LINE
  8
0
 62
0
 10
-105.44541931152344
 20
15.499527931213354
 30
0.0
 11
-105.44541931152344
 21
12.400026321411108
 31
0.0
  0
LINE
  8
0
 62
0
 10
-105.44541931152344
 20
25.599935531616186
 30
0.0
 11
-105.44541931152344
 21
22.49943351745603
 31
0.0
  0
LINE
  8
0
 62
0
 10
-105.44541931152344
 20
34.499542236328104
 30
0.0
 11
-105.44541931152344
 21
31.400039672851538
 31
0.0
  0
LINE
  8
0
 62
0
 10
-105.44541931152344
 20
44.59994888305662
 30
0.0
 11
-105.44541931152344
 21
41.49944686889646
 31
0.0
  0
LINE
  8
0
 62
0
 10
-105.44541931152344
 20
53.4995536804199
 30
0.0
 11
-105.44541931152344
 21
50.40005111694334
 31
0.0
  0
LINE
  8
0
 62
0
 10
-105.44541931152345
 20
63.599960327148416
 30
0.0
 11
-105.44541931152345
 21
60.49945831298826
 31
0.0
  0
LINE
  8
0
 62
0
 10
-105.44541931152345
 20
72.49956512451169
 30
0.0
 11
-105.44541931152345
 21
69.40006256103513
 31
0.0
  0
LINE
  8
0
 62
0
 10
-105.44541931152345
 20
82.59997558593747
 30
0.0
 11
-105.44541931152345
 21
79.49947357177732
 31
0.0
  0
LINE
  8
0
 62
0
 10
-105.44541931152345
 20
91.49958038330075
 30
0.0
 11
-105.44541931152345
 21
88.40007781982419
 31
0.0
  0
LINE
  8
0
 62
0
 10
-85.64480590820312
 20
3.4994211196899196
 30
0.0
 11
-85.64480590820312
 21
2.50032067298887
 31
0.0
  0
LINE
  8
0
 62
0
 10
-85.64480590820312
 20
12.400026321411111
 30
0.0
 11
-85.64480590820312
 21
6.599922657012917
 31
0.0
  0
LINE
  8
0
 62
0
 10
-85.64480590820312
 20
16.49962806701658
 30
0.0
 11
-85.64480590820312
 21
15.499527931213358
 31
0.0
  0
LINE
  8
0
 62
0
 10
-85.64480590820312
 20
22.499433517456033
 30
0.0
 11
-85.64480590820312
 21
21.50033378601072
 31
0.0
  0
LINE
  8
0
 62
0
 10
-85.64480590820312
 20
31.40003967285154
 30
0.0
 11
-85.64480590820312
 21
25.59993553161619
 31
0.0
  0
LINE
  8
0
 62
0
 10
-85.64480590820312
 20
35.49964141845701
 30
0.0
 11
-85.64480590820312
 21
34.499542236328104
 31
0.0
  0
LINE
  8
0
 62
0
 10
-85.64480590820312
 20
41.49944686889646
 30
0.0
 11
-85.64480590820312
 21
40.50034713745115
 31
0.0
  0
LINE
  8
0
 62
0
 10
-85.64480590820312
 20
50.40005111694334
 30
0.0
 11
-85.64480590820312
 21
44.59994888305662
 31
0.0
  0
LINE
  8
0
 62
0
 10
-85.64480590820312
 20
54.49965286254881
 30
0.0
 11
-85.64480590820312
 21
53.4995536804199
 31
0.0
  0
LINE
  8
0
 62
0
 10
-85.64480590820314
 20
60.49945831298826
 30
0.0
 11
-85.64480590820314
 21
59.50035858154295
 31
0.0
  0
LINE
  8
0
 62
0
 10
-85.64480590820314
 20
69.40006256103513
 30
0.0
 11
-85.64480590820314
 21
63.599960327148416
 31
0.0
  0
LINE
  8
0
 62
0
 10
-85.64480590820314
 20
73.4996643066406
 30
0.0
 11
-85.64480590820314
 21
72.49956512451169
 31
0.0
  0
LINE
  8
0
 62
0
 10
-85.64480590820314
 20
79.49947357177732
 30
0.0
 11
-85.64480590820314
 21
78.500373840332
 31
0.0
  0
LINE
  8
0
 62
0
 10
-85.64480590820314
 20
88.40007781982419
 30
0.0
 11
-85.64480590820314
 21
82.59997558593747
 31
0.0
  0
LINE
  8
0
 62
0
 10
-85.64480590820314
 20
92.49967956542966
 30
0.0
 11
-85.64480590820314
 21
91.49958038330075
 31
0.0
  0
LINE
  8
0
 62
0
 10
-86.44540405273438
 20
6.599922657012917
 30
0.0
 11
-86.44540405273438
 21
3.4994211196899196
 31
0.0
  0
LINE
  8
0
 62
0
 10
-86.44540405273438
 20
15.499527931213358
 30
0.0
 11
-86.44540405273438
 21
12.400026321411111
 31
0.0
  0
LINE
  8
0
 62
0
 10
-86.44540405273438
 20
25.59993553161619
 30
0.0
 11
-86.44540405273438
 21
22.499433517456033
 31
0.0
  0
LINE
  8
0
 62
0
 10
-86.44540405273438
 20
34.499542236328104
 30
0.0
 11
-86.44540405273438
 21
31.40003967285154
 31
0.0
  0
LINE
  8
0
 62
0
 10
-86.44540405273438
 20
44.59994888305662
 30
0.0
 11
-86.44540405273438
 21
41.49944686889646
 31
0.0
  0
LINE
  8
0
 62
0
 10
-86.44540405273438
 20
53.4995536804199
 30
0.0
 11
-86.44540405273438
 21
50.40005111694334
 31
0.0
  0
LINE
  8
0
 62
0
 10
-86.44540405273439
 20
63.599960327148416
 30
0.0
 11
-86.44540405273439
 21
60.49945831298826
 31
0.0
  0
LINE
  8
0
 62
0
 10
-86.44540405273439
 20
72.49956512451169
 30
0.0
 11
-86.44540405273439
 21
69.40006256103513
 31
0.0
  0
LINE
  8
0
 62
0
 10
-86.44540405273439
 20
82.59997558593747
 30
0.0
 11
-86.44540405273439
 21
79.49947357177732
 31
0.0
  0
LINE
  8
0
 62
0
 10
-86.44540405273439
 20
91.49958038330075
 30
0.0
 11
-86.44540405273439
 21
88.40007781982419
 31
0.0
  0
LINE
  8
0
 62
0
 10
-71.64524841308594
 20
34.499542236328104
 30
0.0
 11
-71.64524841308594
 21
35.49964141845701
 31
0.0
  0
LINE
  8
0
 62
0
 10
-71.64524841308594
 20
25.59993553161619
 30
0.0
 11
-71.64524841308594
 21
31.40003967285154
 31
0.0
  0
LINE
  8
0
 62
0
 10
-71.64524841308594
 20
21.50033378601072
 30
0.0
 11
-71.64524841308594
 21
22.499433517456033
 31
0.0
  0
LINE
  8
0
 62
0
 10
-71.64524841308594
 20
53.4995536804199
 30
0.0
 11
-71.64524841308594
 21
54.49965286254881
 31
0.0
  0
LINE
  8
0
 62
0
 10
-71.64524841308594
 20
44.59994888305662
 30
0.0
 11
-71.64524841308594
 21
50.40005111694334
 31
0.0
  0
LINE
  8
0
 62
0
 10
-71.64524841308594
 20
40.50034713745115
 30
0.0
 11
-71.64524841308594
 21
41.49944686889646
 31
0.0
  0
LINE
  8
0
 62
0
 10
-71.64524841308595
 20
72.4995651245117
 30
0.0
 11
-71.64524841308595
 21
73.49966430664061
 31
0.0
  0
LINE
  8
0
 62
0
 10
-71.64524841308595
 20
63.599960327148416
 30
0.0
 11
-71.64524841308595
 21
69.40006256103514
 31
0.0
  0
LINE
  8
0
 62
0
 10
-71.64524841308595
 20
59.50035858154295
 30
0.0
 11
-71.64524841308595
 21
60.49945831298826
 31
0.0
  0
LINE
  8
0
 62
0
 10
-71.64524841308595
 20
91.49958038330077
 30
0.0
 11
-71.64524841308595
 21
92.49967956542967
 31
0.0
  0
LINE
  8
0
 62
0
 10
-71.64524841308595
 20
82.59997558593749
 30
0.0
 11
-71.64524841308595
 21
88.4000778198242
 31
0.0
  0
LINE
  8
0
 62
0
 10
-71.64524841308595
 20
78.50037384033202
 30
0.0
 11
-71.64524841308595
 21
79.49947357177733
 31
0.0
  0
LINE
  8
0
 62
0
 10
-70.84598541259766
 20
31.40003967285154
 30
0.0
 11
-70.84598541259766
 21
34.499542236328104
 31
0.0
  0
LINE
  8
0
 62
0
 10
-70.84598541259766
 20
22.499433517456033
 30
0.0
 11
-70.84598541259766
 21
25.59993553161619
 31
0.0
  0
LINE
  8
0
 62
0
 10
-70.84598541259766
 20
50.40005111694334
 30
0.0
 11
-70.84598541259766
 21
53.4995536804199
 31
0.0
  0
LINE
  8
0
 62
0
 10
-70.84598541259766
 20
41.49944686889646
 30
0.0
 11
-70.84598541259766
 21
44.59994888305662
 31
0.0
  0
LINE
  8
0
 62
0
 10
-70.84598541259767
 20
69.40006256103514
 30
0.0
 11
-70.84598541259767
 21
72.4995651245117
 31
0.0
  0
LINE
  8
0
 62
0
 10
-70.84598541259767
 20
60.49945831298826
 30
0.0
 11
-70.84598541259767
 21
63.599960327148416
 31
0.0
  0
LINE
  8
0
 62
0
 10
-70.84598541259767
 20
88.4000778198242
 30
0.0
 11
-70.84598541259767
 21
91.49958038330077
 31
0.0
  0
LINE
  8
0
 62
0
 10
-70.84598541259767
 20
79.49947357177733
 30
0.0
 11
-70.84598541259767
 21
82.59997558593749
 31
0.0
  0
LINE
  8
0
 62
0
 10
-52.64523315429688
 20
34.499542236328104
 30
0.0
 11
-52.64523315429688
 21
35.49964141845701
 31
0.0
  0
LINE
  8
0
 62
0
 10
-52.645233154296875
 20
25.599935531616193
 30
0.0
 11
-52.64523315429688
 21
31.400039672851545
 31
0.0
  0
LINE
  8
0
 62
0
 10
-52.645233154296875
 20
21.500333786010724
 30
0.0
 11
-52.645233154296875
 21
22.499433517456037
 31
0.0
  0
LINE
  8
0
 62
0
 10
-52.64523315429688
 20
53.4995536804199
 30
0.0
 11
-52.64523315429688
 21
54.49965286254881
 31
0.0
  0
LINE
  8
0
 62
0
 10
-52.64523315429688
 20
44.59994888305662
 30
0.0
 11
-52.64523315429688
 21
50.40005111694334
 31
0.0
  0
LINE
  8
0
 62
0
 10
-52.64523315429688
 20
40.50034713745115
 30
0.0
 11
-52.64523315429688
 21
41.49944686889646
 31
0.0
  0
LINE
  8
0
 62
0
 10
-52.64523315429688
 20
72.4995651245117
 30
0.0
 11
-52.64523315429688
 21
73.49966430664061
 31
0.0
  0
LINE
  8
0
 62
0
 10
-52.64523315429688
 20
63.599960327148416
 30
0.0
 11
-52.64523315429688
 21
69.40006256103514
 31
0.0
  0
LINE
  8
0
 62
0
 10
-52.64523315429688
 20
59.50035858154295
 30
0.0
 11
-52.64523315429688
 21
60.49945831298826
 31
0.0
  0
LINE
  8
0
 62
0
 10
-52.64523315429689
 20
91.49958038330077
 30
0.0
 11
-52.64523315429689
 21
92.49967956542967
 31
0.0
  0
LINE
  8
0
 62
0
 10
-52.64523315429688
 20
82.59997558593749
 30
0.0
 11
-52.64523315429689
 21
88.4000778198242
 31
0.0
  0
LINE
  8
0
 62
0
 10
-52.64523315429688
 20
78.50037384033202
 30
0.0
 11
-52.64523315429688
 21
79.49947357177733
 31
0.0
  0
LINE
  8
0
 62
0
 10
-51.84597396850587
 20
31.400039672851545
 30
0.0
 11
-51.84597396850587
 21
34.49954223632811
 31
0.0
  0
LINE
  8
0
 62
0
 10
-51.84597396850586
 20
22.499433517456037
 30
0.0
 11
-51.84597396850586
 21
25.599935531616193
 31
0.0
  0
LINE
  8
0
 62
0
 10
-51.84597396850587
 20
50.400051116943345
 30
0.0
 11
-51.84597396850587
 21
53.49955368041991
 31
0.0
  0
LINE
  8
0
 62
0
 10
-51.84597396850587
 20
41.49944686889647
 30
0.0
 11
-51.84597396850587
 21
44.599948883056626
 31
0.0
  0
LINE
  8
0
 62
0
 10
-51.84597396850587
 20
69.40006256103514
 30
0.0
 11
-51.84597396850587
 21
72.4995651245117
 31
0.0
  0
LINE
  8
0
 62
0
 10
-51.84597396850587
 20
60.49945831298827
 30
0.0
 11
-51.84597396850587
 21
63.59996032714842
 31
0.0
  0
LINE
  8
0
 62
0
 10
-51.845973968505874
 20
88.4000778198242
 30
0.0
 11
-51.845973968505874
 21
91.49958038330077
 31
0.0
  0
LINE
  8
0
 62
0
 10
-51.84597396850587
 20
79.49947357177733
 30
0.0
 11
-51.84597396850587
 21
82.59997558593749
 31
0.0
  0
LINE
  8
0
 62
0
 10
-66.64479064941406
 20
22.499433517456037
 30
0.0
 11
-66.64479064941406
 21
21.500333786010724
 31
0.0
  0
LINE
  8
0
 62
0
 10
-66.64479064941406
 20
31.400039672851545
 30
0.0
 11
-66.64479064941406
 21
25.599935531616193
 31
0.0
  0
LINE
  8
0
 62
0
 10
-66.64479064941406
 20
35.49964141845701
 30
0.0
 11
-66.64479064941406
 21
34.499542236328104
 31
0.0
  0
LINE
  8
0
 62
0
 10
-66.64479064941406
 20
41.49944686889646
 30
0.0
 11
-66.64479064941406
 21
40.50034713745115
 31
0.0
  0
LINE
  8
0
 62
0
 10
-66.64479064941406
 20
50.40005111694334
 30
0.0
 11
-66.64479064941406
 21
44.59994888305662
 31
0.0
  0
LINE
  8
0
 62
0
 10
-66.64479064941406
 20
54.49965286254881
 30
0.0
 11
-66.64479064941406
 21
53.4995536804199
 31
0.0
  0
LINE
  8
0
 62
0
 10
-66.64479064941408
 20
60.49945831298826
 30
0.0
 11
-66.64479064941408
 21
59.50035858154295
 31
0.0
  0
LINE
  8
0
 62
0
 10
-66.64479064941408
 20
69.40006256103514
 30
0.0
 11
-66.64479064941408
 21
63.599960327148416
 31
0.0
  0
LINE
  8
0
 62
0
 10
-66.64479064941408
 20
73.49966430664061
 30
0.0
 11
-66.64479064941408
 21
72.4995651245117
 31
0.0
  0
LINE
  8
0
 62
0
 10
-66.64479064941408
 20
79.49947357177733
 30
0.0
 11
-66.64479064941408
 21
78.50037384033202
 31
0.0
  0
LINE
  8
0
 62
0
 10
-66.64479064941408
 20
88.4000778198242
 30
0.0
 11
-66.64479064941408
 21
82.59997558593749
 31
0.0
  0
LINE
  8
0
 62
0
 10
-66.64479064941408
 20
92.49967956542967
 30
0.0
 11
-66.64479064941408
 21
91.49958038330077
 31
0.0
  0
LINE
  8
0
 62
0
 10
-67.44538879394531
 20
25.59993553161619
 30
0.0
 11
-67.44538879394531
 21
22.499433517456033
 31
0.0
  0
LINE
  8
0
 62
0
 10
-67.44538879394531
 20
34.499542236328104
 30
0.0
 11
-67.44538879394531
 21
31.40003967285154
 31
0.0
  0
LINE
  8
0
 62
0
 10
-67.44538879394531
 20
44.59994888305662
 30
0.0
 11
-67.44538879394531
 21
41.49944686889646
 31
0.0
  0
LINE
  8
0
 62
0
 10
-67.44538879394531
 20
53.4995536804199
 30
0.0
 11
-67.44538879394531
 21
50.40005111694334
 31
0.0
  0
LINE
  8
0
 62
0
 10
-67.44538879394533
 20
63.599960327148416
 30
0.0
 11
-67.44538879394533
 21
60.49945831298826
 31
0.0
  0
LINE
  8
0
 62
0
 10
-67.44538879394533
 20
72.4995651245117
 30
0.0
 11
-67.44538879394533
 21
69.40006256103514
 31
0.0
  0
LINE
  8
0
 62
0
 10
-67.44538879394533
 20
82.59997558593749
 30
0.0
 11
-67.44538879394533
 21
79.49947357177733
 31
0.0
  0
LINE
  8
0
 62
0
 10
-67.44538879394533
 20
91.49958038330077
 30
0.0
 11
-67.44538879394533
 21
88.4000778198242
 31
0.0
  0
LINE
  8
0
 62
0
 10
-33.645221710205085
 20
34.49954223632811
 30
0.0
 11
-33.645221710205085
 21
35.49964141845702
 31
0.0
  0
LINE
  8
0
 62
0
 10
-33.64522171020508
 20
25.599935531616197
 30
0.0
 11
-33.645221710205085
 21
31.40003967285155
 31
0.0
  0
LINE
  8
0
 62
0
 10
-33.64522171020508
 20
21.500333786010728
 30
0.0
 11
-33.64522171020508
 21
22.49943351745604
 31
0.0
  0
LINE
  8
0
 62
0
 10
-33.645221710205085
 20
53.49955368041991
 30
0.0
 11
-33.645221710205085
 21
54.499652862548814
 31
0.0
  0
LINE
  8
0
 62
0
 10
-33.645221710205085
 20
44.599948883056626
 30
0.0
 11
-33.645221710205085
 21
50.400051116943345
 31
0.0
  0
LINE
  8
0
 62
0
 10
-33.645221710205085
 20
40.50034713745116
 30
0.0
 11
-33.645221710205085
 21
41.49944686889647
 31
0.0
  0
LINE
  8
0
 62
0
 10
-33.645221710205085
 20
72.4995651245117
 30
0.0
 11
-33.645221710205085
 21
73.49966430664061
 31
0.0
  0
LINE
  8
0
 62
0
 10
-33.645221710205085
 20
63.59996032714842
 30
0.0
 11
-33.645221710205085
 21
69.40006256103514
 31
0.0
  0
LINE
  8
0
 62
0
 10
-33.645221710205085
 20
59.500358581542955
 30
0.0
 11
-33.645221710205085
 21
60.49945831298827
 31
0.0
  0
LINE
  8
0
 62
0
 10
-33.64522171020509
 20
91.49958038330077
 30
0.0
 11
-33.64522171020509
 21
92.49967956542967
 31
0.0
  0
LINE
  8
0
 62
0
 10
-33.645221710205085
 20
82.59997558593749
 30
0.0
 11
-33.64522171020509
 21
88.4000778198242
 31
0.0
  0
LINE
  8
0
 62
0
 10
-33.645221710205085
 20
78.50037384033202
 30
0.0
 11
-33.645221710205085
 21
79.49947357177733
 31
0.0
  0
LINE
  8
0
 62
0
 10
-32.84596252441407
 20
31.40003967285155
 30
0.0
 11
-32.84596252441407
 21
34.49954223632811
 31
0.0
  0
LINE
  8
0
 62
0
 10
-32.84596252441406
 20
22.49943351745604
 30
0.0
 11
-32.84596252441406
 21
25.599935531616197
 31
0.0
  0
LINE
  8
0
 62
0
 10
-32.84596252441407
 20
50.400051116943345
 30
0.0
 11
-32.84596252441407
 21
53.49955368041991
 31
0.0
  0
LINE
  8
0
 62
0
 10
-32.84596252441407
 20
41.49944686889647
 30
0.0
 11
-32.84596252441407
 21
44.599948883056626
 31
0.0
  0
LINE
  8
0
 62
0
 10
-32.84596252441407
 20
69.40006256103514
 30
0.0
 11
-32.84596252441407
 21
72.4995651245117
 31
0.0
  0
LINE
  8
0
 62
0
 10
-32.84596252441407
 20
60.49945831298827
 30
0.0
 11
-32.84596252441407
 21
63.59996032714842
 31
0.0
  0
LINE
  8
0
 62
0
 10
-32.84596252441408
 20
88.4000778198242
 30
0.0
 11
-32.84596252441408
 21
91.49958038330077
 31
0.0
  0
LINE
  8
0
 62
0
 10
-32.84596252441407
 20
79.49947357177733
 30
0.0
 11
-32.84596252441407
 21
82.59997558593749
 31
0.0
  0
LINE
  8
0
 62
0
 10
-47.644779205322266
 20
22.499433517456037
 30
0.0
 11
-47.644779205322266
 21
21.500333786010724
 31
0.0
  0
LINE
  8
0
 62
0
 10
-47.64477920532227
 20
31.400039672851545
 30
0.0
 11
-47.644779205322266
 21
25.599935531616193
 31
0.0
  0
LINE
  8
0
 62
0
 10
-47.64477920532227
 20
35.49964141845702
 30
0.0
 11
-47.64477920532227
 21
34.49954223632811
 31
0.0
  0
LINE
  8
0
 62
0
 10
-47.64477920532227
 20
41.49944686889647
 30
0.0
 11
-47.64477920532227
 21
40.50034713745116
 31
0.0
  0
LINE
  8
0
 62
0
 10
-47.64477920532227
 20
50.400051116943345
 30
0.0
 11
-47.64477920532227
 21
44.599948883056626
 31
0.0
  0
LINE
  8
0
 62
0
 10
-47.64477920532227
 20
54.499652862548814
 30
0.0
 11
-47.64477920532227
 21
53.49955368041991
 31
0.0
  0
LINE
  8
0
 62
0
 10
-47.64477920532227
 20
60.49945831298827
 30
0.0
 11
-47.64477920532227
 21
59.500358581542955
 31
0.0
  0
LINE
  8
0
 62
0
 10
-47.64477920532227
 20
69.40006256103514
 30
0.0
 11
-47.64477920532227
 21
63.59996032714842
 31
0.0
  0
LINE
  8
0
 62
0
 10
-47.64477920532227
 20
73.49966430664061
 30
0.0
 11
-47.64477920532227
 21
72.4995651245117
 31
0.0
  0
LINE
  8
0
 62
0
 10
-47.64477920532227
 20
79.49947357177733
 30
0.0
 11
-47.64477920532227
 21
78.50037384033202
 31
0.0
  0
LINE
  8
0
 62
0
 10
-47.64477920532228
 20
88.4000778198242
 30
0.0
 11
-47.64477920532227
 21
82.59997558593749
 31
0.0
  0
LINE
  8
0
 62
0
 10
-47.64477920532228
 20
92.49967956542967
 30
0.0
 11
-47.64477920532228
 21
91.49958038330077
 31
0.0
  0
LINE
  8
0
 62
0
 10
-48.44538116455078
 20
25.599935531616193
 30
0.0
 11
-48.44538116455078
 21
22.499433517456037
 31
0.0
  0
LINE
  8
0
 62
0
 10
-48.44538116455079
 20
34.49954223632811
 30
0.0
 11
-48.44538116455079
 21
31.400039672851545
 31
0.0
  0
LINE
  8
0
 62
0
 10
-48.44538116455079
 20
44.599948883056626
 30
0.0
 11
-48.44538116455079
 21
41.49944686889647
 31
0.0
  0
LINE
  8
0
 62
0
 10
-48.44538116455079
 20
53.49955368041991
 30
0.0
 11
-48.44538116455079
 21
50.400051116943345
 31
0.0
  0
LINE
  8
0
 62
0
 10
-48.44538116455079
 20
63.59996032714842
 30
0.0
 11
-48.44538116455079
 21
60.49945831298827
 31
0.0
  0
LINE
  8
0
 62
0
 10
-48.44538116455079
 20
72.4995651245117
 30
0.0
 11
-48.44538116455079
 21
69.40006256103514
 31
0.0
  0
LINE
  8
0
 62
0
 10
-48.44538116455079
 20
82.59997558593749
 30
0.0
 11
-48.44538116455079
 21
79.49947357177733
 31
0.0
  0
LINE
  8
0
 62
0
 10
-48.445381164550795
 20
91.49958038330077
 30
0.0
 11
-48.445381164550795
 21
88.4000778198242
 31
0.0
  0
LINE
  8
0
 62
0
 10
-14.645209312438967
 20
15.499527931213366
 30
0.0
 11
-14.645209312438967
 21
16.499628067016587
 31
0.0
  0
LINE
  8
0
 62
0
 10
-14.645209312438965
 20
6.599922657012926
 30
0.0
 11
-14.645209312438967
 21
12.40002632141112
 31
0.0
  0
LINE
  8
0
 62
0
 10
-14.645209312438965
 20
2.5003206729888783
 30
0.0
 11
-14.645209312438965
 21
3.499421119689928
 31
0.0
  0
LINE
  8
0
 62
0
 10
-14.645209312438968
 20
34.49954223632811
 30
0.0
 11
-14.645209312438968
 21
35.49964141845702
 31
0.0
  0
LINE
  8
0
 62
0
 10
-14.645209312438968
 20
25.599935531616197
 30
0.0
 11
-14.645209312438968
 21
31.40003967285155
 31
0.0
  0
LINE
  8
0
 62
0
 10
-14.645209312438967
 20
21.500333786010728
 30
0.0
 11
-14.645209312438968
 21
22.49943351745604
 31
0.0
  0
LINE
  8
0
 62
0
 10
-14.645209312438972
 20
53.49955368041991
 30
0.0
 11
-14.645209312438972
 21
54.499652862548814
 31
0.0
  0
LINE
  8
0
 62
0
 10
-14.64520931243897
 20
44.599948883056626
 30
0.0
 11
-14.64520931243897
 21
50.400051116943345
 31
0.0
  0
LINE
  8
0
 62
0
 10
-14.64520931243897
 20
40.50034713745116
 30
0.0
 11
-14.64520931243897
 21
41.49944686889647
 31
0.0
  0
LINE
  8
0
 62
0
 10
-14.645209312438974
 20
72.4995651245117
 30
0.0
 11
-14.645209312438974
 21
73.49966430664061
 31
0.0
  0
LINE
  8
0
 62
0
 10
-14.645209312438972
 20
63.59996032714842
 30
0.0
 11
-14.645209312438974
 21
69.40006256103514
 31
0.0
  0
LINE
  8
0
 62
0
 10
-14.645209312438972
 20
59.500358581542955
 30
0.0
 11
-14.645209312438972
 21
60.49945831298827
 31
0.0
  0
LINE
  8
0
 62
0
 10
-14.645209312438976
 20
91.49958038330077
 30
0.0
 11
-14.645209312438976
 21
92.49967956542967
 31
0.0
  0
LINE
  8
0
 62
0
 10
-14.645209312438976
 20
82.59997558593749
 30
0.0
 11
-14.645209312438976
 21
88.4000778198242
 31
0.0
  0
LINE
  8
0
 62
0
 10
-14.645209312438974
 20
78.50037384033202
 30
0.0
 11
-14.645209312438974
 21
79.49947357177733
 31
0.0
  0
LINE
  8
0
 62
0
 10
-13.845948219299318
 20
12.40002632141112
 30
0.0
 11
-13.845948219299318
 21
15.499527931213366
 31
0.0
  0
LINE
  8
0
 62
0
 10
-13.845948219299316
 20
3.4994211196899285
 30
0.0
 11
-13.845948219299316
 21
6.599922657012926
 31
0.0
  0
LINE
  8
0
 62
0
 10
-13.84594821929932
 20
31.40003967285155
 30
0.0
 11
-13.84594821929932
 21
34.49954223632811
 31
0.0
  0
LINE
  8
0
 62
0
 10
-13.84594821929932
 20
22.49943351745604
 30
0.0
 11
-13.84594821929932
 21
25.599935531616197
 31
0.0
  0
LINE
  8
0
 62
0
 10
-13.845948219299322
 20
50.400051116943345
 30
0.0
 11
-13.845948219299324
 21
53.49955368041991
 31
0.0
  0
LINE
  8
0
 62
0
 10
-13.845948219299322
 20
41.49944686889647
 30
0.0
 11
-13.845948219299322
 21
44.599948883056626
 31
0.0
  0
LINE
  8
0
 62
0
 10
-13.845948219299325
 20
69.40006256103514
 30
0.0
 11
-13.845948219299325
 21
72.4995651245117
 31
0.0
  0
LINE
  8
0
 62
0
 10
-13.845948219299324
 20
60.49945831298827
 30
0.0
 11
-13.845948219299324
 21
63.59996032714842
 31
0.0
  0
LINE
  8
0
 62
0
 10
-13.845948219299327
 20
88.4000778198242
 30
0.0
 11
-13.845948219299327
 21
91.49958038330077
 31
0.0
  0
LINE
  8
0
 62
0
 10
-13.845948219299325
 20
79.49947357177733
 30
0.0
 11
-13.845948219299327
 21
82.59997558593749
 31
0.0
  0
LINE
  8
0
 62
0
 10
-28.64476585388184
 20
22.49943351745604
 30
0.0
 11
-28.64476585388184
 21
21.500333786010728
 31
0.0
  0
LINE
  8
0
 62
0
 10
-28.64476585388184
 20
31.40003967285155
 30
0.0
 11
-28.64476585388184
 21
25.599935531616197
 31
0.0
  0
LINE
  8
0
 62
0
 10
-28.64476585388184
 20
35.49964141845702
 30
0.0
 11
-28.64476585388184
 21
34.49954223632811
 31
0.0
  0
LINE
  8
0
 62
0
 10
-28.64476585388184
 20
41.49944686889647
 30
0.0
 11
-28.64476585388184
 21
40.50034713745116
 31
0.0
  0
LINE
  8
0
 62
0
 10
-28.644765853881843
 20
50.400051116943345
 30
0.0
 11
-28.644765853881843
 21
44.599948883056626
 31
0.0
  0
LINE
  8
0
 62
0
 10
-28.644765853881843
 20
54.499652862548814
 30
0.0
 11
-28.644765853881843
 21
53.49955368041991
 31
0.0
  0
LINE
  8
0
 62
0
 10
-28.644765853881843
 20
60.49945831298827
 30
0.0
 11
-28.644765853881843
 21
59.500358581542955
 31
0.0
  0
LINE
  8
0
 62
0
 10
-28.644765853881843
 20
69.40006256103514
 30
0.0
 11
-28.644765853881843
 21
63.59996032714842
 31
0.0
  0
LINE
  8
0
 62
0
 10
-28.644765853881847
 20
73.49966430664061
 30
0.0
 11
-28.644765853881843
 21
72.4995651245117
 31
0.0
  0
LINE
  8
0
 62
0
 10
-28.644765853881847
 20
79.49947357177733
 30
0.0
 11
-28.644765853881847
 21
78.50037384033202
 31
0.0
  0
LINE
  8
0
 62
0
 10
-28.644765853881847
 20
88.4000778198242
 30
0.0
 11
-28.644765853881847
 21
82.59997558593749
 31
0.0
  0
LINE
  8
0
 62
0
 10
-28.644765853881847
 20
92.49967956542967
 30
0.0
 11
-28.644765853881847
 21
91.49958038330077
 31
0.0
  0
LINE
  8
0
 62
0
 10
-29.445367813110355
 20
25.599935531616197
 30
0.0
 11
-29.445367813110355
 21
22.49943351745604
 31
0.0
  0
LINE
  8
0
 62
0
 10
-29.445367813110355
 20
34.49954223632811
 30
0.0
 11
-29.445367813110355
 21
31.40003967285155
 31
0.0
  0
LINE
  8
0
 62
0
 10
-29.44536781311036
 20
44.599948883056626
 30
0.0
 11
-29.445367813110355
 21
41.49944686889647
 31
0.0
  0
LINE
  8
0
 62
0
 10
-29.44536781311036
 20
53.49955368041991
 30
0.0
 11
-29.44536781311036
 21
50.400051116943345
 31
0.0
  0
LINE
  8
0
 62
0
 10
-29.44536781311036
 20
63.59996032714842
 30
0.0
 11
-29.44536781311036
 21
60.49945831298827
 31
0.0
  0
LINE
  8
0
 62
0
 10
-29.44536781311036
 20
72.4995651245117
 30
0.0
 11
-29.44536781311036
 21
69.40006256103514
 31
0.0
  0
LINE
  8
0
 62
0
 10
-29.445367813110362
 20
82.59997558593749
 30
0.0
 11
-29.445367813110362
 21
79.49947357177733
 31
0.0
  0
LINE
  8
0
 62
0
 10
-29.445367813110362
 20
91.49958038330077
 30
0.0
 11
-29.445367813110362
 21
88.4000778198242
 31
0.0
  0
LINE
  8
0
 62
0
 10
4.354804039001463
 20
15.499527931213368
 30
0.0
 11
4.354804039001463
 21
16.49962806701659
 31
0.0
  0
LINE
  8
0
 62
0
 10
4.354804039001464
 20
6.599922657012929
 30
0.0
 11
4.354804039001463
 21
12.400026321411122
 31
0.0
  0
LINE
  8
0
 62
0
 10
4.354804039001465
 20
2.500320672988881
 30
0.0
 11
4.354804039001465
 21
3.4994211196899307
 31
0.0
  0
LINE
  8
0
 62
0
 10
4.35480403900146
 20
34.49954223632811
 30
0.0
 11
4.35480403900146
 21
35.49964141845702
 31
0.0
  0
LINE
  8
0
 62
0
 10
4.354804039001461
 20
25.5999355316162
 30
0.0
 11
4.354804039001461
 21
31.400039672851552
 31
0.0
  0
LINE
  8
0
 62
0
 10
4.354804039001462
 20
21.50033378601073
 30
0.0
 11
4.354804039001462
 21
22.499433517456044
 31
0.0
  0
LINE
  8
0
 62
0
 10
4.354804039001459
 20
53.49955368041991
 30
0.0
 11
4.354804039001458
 21
54.499652862548814
 31
0.0
  0
LINE
  8
0
 62
0
 10
4.3548040390014595
 20
44.599948883056626
 30
0.0
 11
4.354804039001459
 21
50.400051116943345
 31
0.0
  0
LINE
  8
0
 62
0
 10
4.3548040390014595
 20
40.50034713745116
 30
0.0
 11
4.3548040390014595
 21
41.49944686889647
 31
0.0
  0
LINE
  8
0
 62
0
 10
4.354804039001456
 20
72.4995651245117
 30
0.0
 11
4.354804039001456
 21
73.49966430664061
 31
0.0
  0
LINE
  8
0
 62
0
 10
4.354804039001457
 20
63.59996032714842
 30
0.0
 11
4.354804039001456
 21
69.40006256103514
 31
0.0
  0
LINE
  8
0
 62
0
 10
4.354804039001458
 20
59.500358581542955
 30
0.0
 11
4.354804039001458
 21
60.49945831298827
 31
0.0
  0
LINE
  8
0
 62
0
 10
4.354804039001453
 20
91.49958038330077
 30
0.0
 11
4.354804039001453
 21
92.49967956542967
 31
0.0
  0
LINE
  8
0
 62
0
 10
4.354804039001455
 20
82.59997558593749
 30
0.0
 11
4.354804039001454
 21
88.4000778198242
 31
0.0
  0
LINE
  8
0
 62
0
 10
4.354804039001455
 20
78.50037384033202
 30
0.0
 11
4.354804039001455
 21
79.49947357177733
 31
0.0
  0
LINE
  8
0
 62
0
 10
5.154064178466795
 20
12.400026321411122
 30
0.0
 11
5.154064178466795
 21
15.499527931213368
 31
0.0
  0
LINE
  8
0
 62
0
 10
5.154064178466797
 20
3.4994211196899307
 30
0.0
 11
5.154064178466796
 21
6.599922657012929
 31
0.0
  0
LINE
  8
0
 62
0
 10
5.154064178466793
 20
31.400039672851552
 30
0.0
 11
5.154064178466792
 21
34.49954223632811
 31
0.0
  0
LINE
  8
0
 62
0
 10
5.154064178466794
 20
22.499433517456044
 30
0.0
 11
5.154064178466793
 21
25.5999355316162
 31
0.0
  0
LINE
  8
0
 62
0
 10
5.154064178466791
 20
50.400051116943345
 30
0.0
 11
5.154064178466791
 21
53.49955368041991
 31
0.0
  0
LINE
  8
0
 62
0
 10
5.1540641784667915
 20
41.49944686889647
 30
0.0
 11
5.1540641784667915
 21
44.599948883056626
 31
0.0
  0
LINE
  8
0
 62
0
 10
5.154064178466788
 20
69.40006256103514
 30
0.0
 11
5.154064178466788
 21
72.4995651245117
 31
0.0
  0
LINE
  8
0
 62
0
 10
5.15406417846679
 20
60.49945831298827
 30
0.0
 11
5.154064178466789
 21
63.59996032714842
 31
0.0
  0
LINE
  8
0
 62
0
 10
5.154064178466786
 20
88.4000778198242
 30
0.0
 11
5.154064178466785
 21
91.49958038330077
 31
0.0
  0
LINE
  8
0
 62
0
 10
5.154064178466787
 20
79.49947357177733
 30
0.0
 11
5.154064178466787
 21
82.59997558593749
 31
0.0
  0
LINE
  8
0
 62
0
 10
-9.644753456115723
 20
3.499421119689929
 30
0.0
 11
-9.644753456115723
 21
2.500320672988879
 31
0.0
  0
LINE
  8
0
 62
0
 10
-9.644753456115724
 20
12.40002632141112
 30
0.0
 11
-9.644753456115723
 21
6.599922657012927
 31
0.0
  0
LINE
  8
0
 62
0
 10
-9.644753456115724
 20
16.499628067016587
 30
0.0
 11
-9.644753456115724
 21
15.499527931213366
 31
0.0
  0
LINE
  8
0
 62
0
 10
-9.644753456115726
 20
22.49943351745604
 30
0.0
 11
-9.644753456115724
 21
21.500333786010728
 31
0.0
  0
LINE
  8
0
 62
0
 10
-9.644753456115726
 20
31.40003967285155
 30
0.0
 11
-9.644753456115726
 21
25.599935531616197
 31
0.0
  0
LINE
  8
0
 62
0
 10
-9.644753456115726
 20
35.49964141845702
 30
0.0
 11
-9.644753456115726
 21
34.49954223632811
 31
0.0
  0
LINE
  8
0
 62
0
 10
-9.644753456115728
 20
41.49944686889647
 30
0.0
 11
-9.644753456115728
 21
40.50034713745116
 31
0.0
  0
LINE
  8
0
 62
0
 10
-9.644753456115728
 20
50.400051116943345
 30
0.0
 11
-9.644753456115728
 21
44.599948883056626
 31
0.0
  0
LINE
  8
0
 62
0
 10
-9.64475345611573
 20
54.499652862548814
 30
0.0
 11
-9.64475345611573
 21
53.49955368041991
 31
0.0
  0
LINE
  8
0
 62
0
 10
-9.64475345611573
 20
60.49945831298827
 30
0.0
 11
-9.64475345611573
 21
59.500358581542955
 31
0.0
  0
LINE
  8
0
 62
0
 10
-9.644753456115732
 20
69.40006256103514
 30
0.0
 11
-9.64475345611573
 21
63.59996032714842
 31
0.0
  0
LINE
  8
0
 62
0
 10
-9.644753456115732
 20
73.49966430664061
 30
0.0
 11
-9.644753456115732
 21
72.4995651245117
 31
0.0
  0
LINE
  8
0
 62
0
 10
-9.644753456115732
 20
79.49947357177733
 30
0.0
 11
-9.644753456115732
 21
78.50037384033202
 31
0.0
  0
LINE
  8
0
 62
0
 10
-9.644753456115733
 20
88.4000778198242
 30
0.0
 11
-9.644753456115733
 21
82.59997558593749
 31
0.0
  0
LINE
  8
0
 62
0
 10
-9.644753456115733
 20
92.49967956542967
 30
0.0
 11
-9.644753456115733
 21
91.49958038330077
 31
0.0
  0
LINE
  8
0
 62
0
 10
-10.445354461669922
 20
6.599922657012927
 30
0.0
 11
-10.445354461669922
 21
3.499421119689929
 31
0.0
  0
LINE
  8
0
 62
0
 10
-10.445354461669924
 20
15.499527931213366
 30
0.0
 11
-10.445354461669924
 21
12.40002632141112
 31
0.0
  0
LINE
  8
0
 62
0
 10
-10.445354461669925
 20
25.599935531616197
 30
0.0
 11
-10.445354461669925
 21
22.49943351745604
 31
0.0
  0
LINE
  8
0
 62
0
 10
-10.445354461669925
 20
34.49954223632811
 30
0.0
 11
-10.445354461669925
 21
31.40003967285155
 31
0.0
  0
LINE
  8
0
 62
0
 10
-10.445354461669927
 20
44.599948883056626
 30
0.0
 11
-10.445354461669927
 21
41.49944686889647
 31
0.0
  0
LINE
  8
0
 62
0
 10
-10.445354461669929
 20
53.49955368041991
 30
0.0
 11
-10.445354461669927
 21
50.400051116943345
 31
0.0
  0
LINE
  8
0
 62
0
 10
-10.445354461669929
 20
63.59996032714842
 30
0.0
 11
-10.445354461669929
 21
60.49945831298827
 31
0.0
  0
LINE
  8
0
 62
0
 10
-10.44535446166993
 20
72.4995651245117
 30
0.0
 11
-10.44535446166993
 21
69.40006256103514
 31
0.0
  0
LINE
  8
0
 62
0
 10
-10.445354461669933
 20
82.59997558593749
 30
0.0
 11
-10.44535446166993
 21
79.49947357177733
 31
0.0
  0
LINE
  8
0
 62
0
 10
-10.445354461669933
 20
91.49958038330077
 30
0.0
 11
-10.445354461669933
 21
88.4000778198242
 31
0.0
  0
LINE
  8
0
 62
0
 10
23.354816436767575
 20
15.49952793121337
 30
0.0
 11
23.354816436767575
 21
16.499628067016594
 31
0.0
  0
LINE
  8
0
 62
0
 10
23.354816436767578
 20
6.599922657012931
 30
0.0
 11
23.354816436767578
 21
12.400026321411124
 31
0.0
  0
LINE
  8
0
 62
0
 10
23.354816436767578
 20
2.500320672988883
 30
0.0
 11
23.354816436767578
 21
3.499421119689933
 31
0.0
  0
LINE
  8
0
 62
0
 10
23.354816436767575
 20
34.49954223632812
 30
0.0
 11
23.354816436767575
 21
35.499641418457024
 31
0.0
  0
LINE
  8
0
 62
0
 10
23.354816436767575
 20
25.599935531616204
 30
0.0
 11
23.354816436767575
 21
31.400039672851555
 31
0.0
  0
LINE
  8
0
 62
0
 10
23.354816436767575
 20
21.500333786010735
 30
0.0
 11
23.354816436767575
 21
22.499433517456048
 31
0.0
  0
LINE
  8
0
 62
0
 10
23.35481643676757
 20
53.499553680419915
 30
0.0
 11
23.35481643676757
 21
54.49965286254882
 31
0.0
  0
LINE
  8
0
 62
0
 10
23.35481643676757
 20
44.59994888305663
 30
0.0
 11
23.35481643676757
 21
50.40005111694335
 31
0.0
  0
LINE
  8
0
 62
0
 10
23.354816436767575
 20
40.500347137451165
 30
0.0
 11
23.354816436767575
 21
41.49944686889648
 31
0.0
  0
LINE
  8
0
 62
0
 10
23.35481643676757
 20
72.4995651245117
 30
0.0
 11
23.354816436767567
 21
73.49966430664061
 31
0.0
  0
LINE
  8
0
 62
0
 10
23.35481643676757
 20
63.59996032714843
 30
0.0
 11
23.35481643676757
 21
69.40006256103514
 31
0.0
  0
LINE
  8
0
 62
0
 10
23.35481643676757
 20
59.50035858154296
 30
0.0
 11
23.35481643676757
 21
60.499458312988274
 31
0.0
  0
LINE
  8
0
 62
0
 10
23.354816436767567
 20
91.49958038330077
 30
0.0
 11
23.354816436767567
 21
92.49967956542967
 31
0.0
  0
LINE
  8
0
 62
0
 10
23.354816436767567
 20
82.59997558593749
 30
0.0
 11
23.354816436767567
 21
88.4000778198242
 31
0.0
  0
LINE
  8
0
 62
0
 10
23.354816436767567
 20
78.50037384033202
 30
0.0
 11
23.354816436767567
 21
79.49947357177733
 31
0.0
  0
LINE
  8
0
 62
0
 10
24.154077529907227
 20
12.400026321411124
 30
0.0
 11
24.154077529907223
 21
15.49952793121337
 31
0.0
  0
LINE
  8
0
 62
0
 10
24.154077529907227
 20
3.499421119689933
 30
0.0
 11
24.154077529907227
 21
6.5999226570129315
 31
0.0
  0
LINE
  8
0
 62
0
 10
24.154077529907223
 20
31.400039672851555
 30
0.0
 11
24.154077529907223
 21
34.49954223632812
 31
0.0
  0
LINE
  8
0
 62
0
 10
24.154077529907223
 20
22.499433517456048
 30
0.0
 11
24.154077529907223
 21
25.599935531616204
 31
0.0
  0
LINE
  8
0
 62
0
 10
24.15407752990722
 20
50.40005111694335
 30
0.0
 11
24.15407752990722
 21
53.499553680419915
 31
0.0
  0
LINE
  8
0
 62
0
 10
24.154077529907223
 20
41.49944686889648
 30
0.0
 11
24.15407752990722
 21
44.59994888305663
 31
0.0
  0
LINE
  8
0
 62
0
 10
24.15407752990722
 20
69.40006256103514
 30
0.0
 11
24.15407752990722
 21
72.4995651245117
 31
0.0
  0
LINE
  8
0
 62
0
 10
24.15407752990722
 20
60.499458312988274
 30
0.0
 11
24.15407752990722
 21
63.59996032714843
 31
0.0
  0
LINE
  8
0
 62
0
 10
24.154077529907216
 20
88.4000778198242
 30
0.0
 11
24.154077529907216
 21
91.49958038330077
 31
0.0
  0
LINE
  8
0
 62
0
 10
24.154077529907216
 20
79.49947357177733
 30
0.0
 11
24.154077529907216
 21
82.59997558593749
 31
0.0
  0
LINE
  8
0
 62
0
 10
9.35525894165039
 20
3.499421119689931
 30
0.0
 11
9.35525894165039
 21
2.5003206729888814
 31
0.0
  0
LINE
  8
0
 62
0
 10
9.355258941650389
 20
12.400026321411122
 30
0.0
 11
9.35525894165039
 21
6.599922657012929
 31
0.0
  0
LINE
  8
0
 62
0
 10
9.355258941650389
 20
16.49962806701659
 30
0.0
 11
9.355258941650389
 21
15.499527931213368
 31
0.0
  0
LINE
  8
0
 62
0
 10
9.355258941650387
 20
22.499433517456044
 30
0.0
 11
9.355258941650389
 21
21.50033378601073
 31
0.0
  0
LINE
  8
0
 62
0
 10
9.355258941650387
 20
31.400039672851552
 30
0.0
 11
9.355258941650387
 21
25.5999355316162
 31
0.0
  0
LINE
  8
0
 62
0
 10
9.355258941650387
 20
35.499641418457024
 30
0.0
 11
9.355258941650387
 21
34.49954223632812
 31
0.0
  0
LINE
  8
0
 62
0
 10
9.355258941650385
 20
41.49944686889648
 30
0.0
 11
9.355258941650385
 21
40.500347137451165
 31
0.0
  0
LINE
  8
0
 62
0
 10
9.355258941650385
 20
50.40005111694335
 30
0.0
 11
9.355258941650385
 21
44.59994888305663
 31
0.0
  0
LINE
  8
0
 62
0
 10
9.355258941650384
 20
54.49965286254882
 30
0.0
 11
9.355258941650384
 21
53.499553680419915
 31
0.0
  0
LINE
  8
0
 62
0
 10
9.355258941650384
 20
60.499458312988274
 30
0.0
 11
9.355258941650384
 21
59.50035858154296
 31
0.0
  0
LINE
  8
0
 62
0
 10
9.355258941650382
 20
69.40006256103514
 30
0.0
 11
9.355258941650384
 21
63.59996032714843
 31
0.0
  0
LINE
  8
0
 62
0
 10
9.355258941650382
 20
73.49966430664061
 30
0.0
 11
9.355258941650382
 21
72.4995651245117
 31
0.0
  0
LINE
  8
0
 62
0
 10
9.355258941650382
 20
79.49947357177733
 30
0.0
 11
9.355258941650382
 21
78.50037384033202
 31
0.0
  0
LINE
  8
0
 62
0
 10
9.35525894165038
 20
88.4000778198242
 30
0.0
 11
9.35525894165038
 21
82.59997558593749
 31
0.0
  0
LINE
  8
0
 62
0
 10
9.35525894165038
 20
92.49967956542967
 30
0.0
 11
9.35525894165038
 21
91.49958038330077
 31
0.0
  0
LINE
  8
0
 62
0
 10
8.554658889770508
 20
6.599922657012929
 30
0.0
 11
8.554658889770508
 21
3.499421119689931
 31
0.0
  0
LINE
  8
0
 62
0
 10
8.554658889770506
 20
15.499527931213368
 30
0.0
 11
8.554658889770506
 21
12.400026321411122
 31
0.0
  0
LINE
  8
0
 62
0
 10
8.554658889770504
 20
25.5999355316162
 30
0.0
 11
8.554658889770504
 21
22.499433517456044
 31
0.0
  0
LINE
  8
0
 62
0
 10
8.554658889770504
 20
34.49954223632812
 30
0.0
 11
8.554658889770504
 21
31.400039672851552
 31
0.0
  0
LINE
  8
0
 62
0
 10
8.554658889770502
 20
44.59994888305663
 30
0.0
 11
8.554658889770502
 21
41.49944686889648
 31
0.0
  0
LINE
  8
0
 62
0
 10
8.5546588897705
 20
53.499553680419915
 30
0.0
 11
8.554658889770502
 21
50.40005111694335
 31
0.0
  0
LINE
  8
0
 62
0
 10
8.5546588897705
 20
63.59996032714843
 30
0.0
 11
8.5546588897705
 21
60.499458312988274
 31
0.0
  0
LINE
  8
0
 62
0
 10
8.554658889770499
 20
72.4995651245117
 30
0.0
 11
8.554658889770499
 21
69.40006256103514
 31
0.0
  0
LINE
  8
0
 62
0
 10
8.554658889770497
 20
82.59997558593749
 30
0.0
 11
8.554658889770499
 21
79.49947357177733
 31
0.0
  0
LINE
  8
0
 62
0
 10
8.554658889770497
 20
91.49958038330077
 30
0.0
 11
8.554658889770497
 21
88.4000778198242
 31
0.0
  0
LINE
  8
0
 62
0
 10
42.354827880859375
 20
15.499527931213374
 30
0.0
 11
42.354827880859375
 21
16.499628067016594
 31
0.0
  0
LINE
  8
0
 62
0
 10
42.354827880859375
 20
6.599922657012933
 30
0.0
 11
42.354827880859375
 21
12.400026321411127
 31
0.0
  0
LINE
  8
0
 62
0
 10
42.354827880859375
 20
2.5003206729888854
 30
0.0
 11
42.354827880859375
 21
3.499421119689935
 31
0.0
  0
LINE
  8
0
 62
0
 10
42.35482788085937
 20
34.49954223632812
 30
0.0
 11
42.35482788085937
 21
35.499641418457024
 31
0.0
  0
LINE
  8
0
 62
0
 10
42.354827880859375
 20
25.599935531616204
 30
0.0
 11
42.35482788085937
 21
31.400039672851555
 31
0.0
  0
LINE
  8
0
 62
0
 10
42.354827880859375
 20
21.500333786010735
 30
0.0
 11
42.354827880859375
 21
22.499433517456048
 31
0.0
  0
LINE
  8
0
 62
0
 10
42.35482788085937
 20
53.499553680419915
 30
0.0
 11
42.35482788085937
 21
54.49965286254882
 31
0.0
  0
LINE
  8
0
 62
0
 10
42.35482788085937
 20
44.59994888305663
 30
0.0
 11
42.35482788085937
 21
50.40005111694335
 31
0.0
  0
LINE
  8
0
 62
0
 10
42.35482788085937
 20
40.500347137451165
 30
0.0
 11
42.35482788085937
 21
41.49944686889648
 31
0.0
  0
LINE
  8
0
 62
0
 10
42.35482788085937
 20
72.49956512451172
 30
0.0
 11
42.35482788085937
 21
73.49966430664062
 31
0.0
  0
LINE
  8
0
 62
0
 10
42.35482788085937
 20
63.59996032714843
 30
0.0
 11
42.35482788085937
 21
69.40006256103516
 31
0.0
  0
LINE
  8
0
 62
0
 10
42.35482788085937
 20
59.50035858154296
 30
0.0
 11
42.35482788085937
 21
60.499458312988274
 31
0.0
  0
LINE
  8
0
 62
0
 10
42.35482788085936
 20
91.49958038330078
 30
0.0
 11
42.35482788085936
 21
92.49967956542969
 31
0.0
  0
LINE
  8
0
 62
0
 10
42.35482788085937
 20
82.5999755859375
 30
0.0
 11
42.35482788085936
 21
88.40007781982422
 31
0.0
  0
LINE
  8
0
 62
0
 10
42.35482788085937
 20
78.50037384033203
 30
0.0
 11
42.35482788085937
 21
79.49947357177734
 31
0.0
  0
LINE
  8
0
 62
0
 10
43.154090881347656
 20
12.400026321411127
 30
0.0
 11
43.154090881347656
 21
15.499527931213374
 31
0.0
  0
LINE
  8
0
 62
0
 10
43.154090881347656
 20
3.499421119689935
 30
0.0
 11
43.154090881347656
 21
6.599922657012933
 31
0.0
  0
LINE
  8
0
 62
0
 10
43.15409088134765
 20
31.400039672851555
 30
0.0
 11
43.15409088134765
 21
34.49954223632812
 31
0.0
  0
LINE
  8
0
 62
0
 10
43.154090881347656
 20
22.499433517456048
 30
0.0
 11
43.154090881347656
 21
25.599935531616204
 31
0.0
  0
LINE
  8
0
 62
0
 10
43.15409088134765
 20
50.40005111694335
 30
0.0
 11
43.15409088134765
 21
53.499553680419915
 31
0.0
  0
LINE
  8
0
 62
0
 10
43.15409088134765
 20
41.49944686889648
 30
0.0
 11
43.15409088134765
 21
44.59994888305663
 31
0.0
  0
LINE
  8
0
 62
0
 10
43.15409088134765
 20
69.40006256103516
 30
0.0
 11
43.15409088134765
 21
72.49956512451172
 31
0.0
  0
LINE
  8
0
 62
0
 10
43.15409088134765
 20
60.499458312988274
 30
0.0
 11
43.15409088134765
 21
63.59996032714843
 31
0.0
  0
LINE
  8
0
 62
0
 10
43.15409088134764
 20
88.40007781982422
 30
0.0
 11
43.15409088134764
 21
91.49958038330078
 31
0.0
  0
LINE
  8
0
 62
0
 10
43.15409088134765
 20
79.49947357177734
 30
0.0
 11
43.15409088134765
 21
82.5999755859375
 31
0.0
  0
LINE
  8
0
 62
0
 10
28.35527229309082
 20
3.4994211196899334
 30
0.0
 11
28.35527229309082
 21
2.5003206729888836
 31
0.0
  0
LINE
  8
0
 62
0
 10
28.35527229309082
 20
12.400026321411126
 30
0.0
 11
28.35527229309082
 21
6.5999226570129315
 31
0.0
  0
LINE
  8
0
 62
0
 10
28.355272293090817
 20
16.499628067016594
 30
0.0
 11
28.355272293090817
 21
15.499527931213372
 31
0.0
  0
LINE
  8
0
 62
0
 10
28.355272293090817
 20
22.499433517456048
 30
0.0
 11
28.355272293090817
 21
21.500333786010735
 31
0.0
  0
LINE
  8
0
 62
0
 10
28.355272293090817
 20
31.400039672851555
 30
0.0
 11
28.355272293090817
 21
25.599935531616204
 31
0.0
  0
LINE
  8
0
 62
0
 10
28.355272293090817
 20
35.499641418457024
 30
0.0
 11
28.355272293090817
 21
34.49954223632812
 31
0.0
  0
LINE
  8
0
 62
0
 10
28.355272293090817
 20
41.49944686889648
 30
0.0
 11
28.355272293090817
 21
40.500347137451165
 31
0.0
  0
LINE
  8
0
 62
0
 10
28.355272293090813
 20
50.40005111694335
 30
0.0
 11
28.355272293090813
 21
44.59994888305663
 31
0.0
  0
LINE
  8
0
 62
0
 10
28.355272293090813
 20
54.49965286254882
 30
0.0
 11
28.355272293090813
 21
53.499553680419915
 31
0.0
  0
LINE
  8
0
 62
0
 10
28.355272293090813
 20
60.499458312988274
 30
0.0
 11
28.355272293090813
 21
59.50035858154296
 31
0.0
  0
LINE
  8
0
 62
0
 10
28.355272293090813
 20
69.40006256103514
 30
0.0
 11
28.355272293090813
 21
63.59996032714843
 31
0.0
  0
LINE
  8
0
 62
0
 10
28.35527229309081
 20
73.49966430664061
 30
0.0
 11
28.355272293090813
 21
72.4995651245117
 31
0.0
  0
LINE
  8
0
 62
0
 10
28.35527229309081
 20
79.49947357177733
 30
0.0
 11
28.35527229309081
 21
78.50037384033202
 31
0.0
  0
LINE
  8
0
 62
0
 10
28.35527229309081
 20
88.4000778198242
 30
0.0
 11
28.35527229309081
 21
82.59997558593749
 31
0.0
  0
LINE
  8
0
 62
0
 10
28.35527229309081
 20
92.49967956542967
 30
0.0
 11
28.35527229309081
 21
91.49958038330077
 31
0.0
  0
LINE
  8
0
 62
0
 10
27.554672241210938
 20
6.5999226570129315
 30
0.0
 11
27.554672241210938
 21
3.4994211196899334
 31
0.0
  0
LINE
  8
0
 62
0
 10
27.554672241210934
 20
15.499527931213372
 30
0.0
 11
27.554672241210938
 21
12.400026321411126
 31
0.0
  0
LINE
  8
0
 62
0
 10
27.554672241210934
 20
25.599935531616204
 30
0.0
 11
27.554672241210934
 21
22.499433517456048
 31
0.0
  0
LINE
  8
0
 62
0
 10
27.554672241210934
 20
34.49954223632812
 30
0.0
 11
27.554672241210934
 21
31.400039672851555
 31
0.0
  0
LINE
  8
0
 62
0
 10
27.55467224121093
 20
44.59994888305663
 30
0.0
 11
27.554672241210934
 21
41.49944686889648
 31
0.0
  0
LINE
  8
0
 62
0
 10
27.55467224121093
 20
53.499553680419915
 30
0.0
 11
27.55467224121093
 21
50.40005111694335
 31
0.0
  0
LINE
  8
0
 62
0
 10
27.55467224121093
 20
63.59996032714843
 30
0.0
 11
27.55467224121093
 21
60.499458312988274
 31
0.0
  0
LINE
  8
0
 62
0
 10
27.55467224121093
 20
72.4995651245117
 30
0.0
 11
27.55467224121093
 21
69.40006256103514
 31
0.0
  0
LINE
  8
0
 62
0
 10
27.554672241210927
 20
82.59997558593749
 30
0.0
 11
27.554672241210927
 21
79.49947357177733
 31
0.0
  0
LINE
  8
0
 62
0
 10
27.554672241210927
 20
91.49958038330077
 30
0.0
 11
27.554672241210927
 21
88.4000778198242
 31
0.0
  0
LINE
  8
0
 62
0
 10
61.35484313964844
 20
15.499527931213375
 30
0.0
 11
61.35484313964844
 21
16.499628067016598
 31
0.0
  0
LINE
  8
0
 62
0
 10
61.35484313964844
 20
6.599922657012936
 30
0.0
 11
61.35484313964844
 21
12.40002632141113
 31
0.0
  0
LINE
  8
0
 62
0
 10
61.35484313964844
 20
2.5003206729888876
 30
0.0
 11
61.35484313964844
 21
3.4994211196899374
 31
0.0
  0
LINE
  8
0
 62
0
 10
61.35484313964843
 20
34.49954223632812
 30
0.0
 11
61.35484313964843
 21
35.499641418457024
 31
0.0
  0
LINE
  8
0
 62
0
 10
61.35484313964844
 20
25.599935531616207
 30
0.0
 11
61.35484313964843
 21
31.40003967285156
 31
0.0
  0
LINE
  8
0
 62
0
 10
61.35484313964844
 20
21.50033378601074
 30
0.0
 11
61.35484313964844
 21
22.49943351745605
 31
0.0
  0
LINE
  8
0
 62
0
 10
61.35484313964843
 20
53.499553680419915
 30
0.0
 11
61.35484313964843
 21
54.49965286254882
 31
0.0
  0
LINE
  8
0
 62
0
 10
61.35484313964843
 20
44.59994888305663
 30
0.0
 11
61.35484313964843
 21
50.40005111694335
 31
0.0
  0
LINE
  8
0
 62
0
 10
61.35484313964843
 20
40.500347137451165
 30
0.0
 11
61.35484313964843
 21
41.49944686889648
 31
0.0
  0
LINE
  8
0
 62
0
 10
61.35484313964843
 20
72.49956512451172
 30
0.0
 11
61.35484313964843
 21
73.49966430664062
 31
0.0
  0
LINE
  8
0
 62
0
 10
61.35484313964843
 20
63.59996032714843
 30
0.0
 11
61.35484313964843
 21
69.40006256103516
 31
0.0
  0
LINE
  8
0
 62
0
 10
61.35484313964843
 20
59.50035858154296
 30
0.0
 11
61.35484313964843
 21
60.499458312988274
 31
0.0
  0
LINE
  8
0
 62
0
 10
61.35484313964842
 20
91.49958038330078
 30
0.0
 11
61.35484313964842
 21
92.49967956542969
 31
0.0
  0
LINE
  8
0
 62
0
 10
61.35484313964843
 20
82.5999755859375
 30
0.0
 11
61.35484313964842
 21
88.40007781982422
 31
0.0
  0
LINE
  8
0
 62
0
 10
61.35484313964843
 20
78.50037384033203
 30
0.0
 11
61.35484313964843
 21
79.49947357177734
 31
0.0
  0
LINE
  8
0
 62
0
 10
62.15410232543945
 20
12.40002632141113
 30
0.0
 11
62.15410232543945
 21
15.499527931213375
 31
0.0
  0
LINE
  8
0
 62
0
 10
62.15410232543945
 20
3.499421119689938
 30
0.0
 11
62.15410232543945
 21
6.599922657012936
 31
0.0
  0
LINE
  8
0
 62
0
 10
62.154102325439446
 20
31.40003967285156
 30
0.0
 11
62.154102325439446
 21
34.49954223632812
 31
0.0
  0
LINE
  8
0
 62
0
 10
62.15410232543945
 20
22.49943351745605
 30
0.0
 11
62.15410232543945
 21
25.599935531616207
 31
0.0
  0
LINE
  8
0
 62
0
 10
62.154102325439446
 20
50.40005111694335
 30
0.0
 11
62.154102325439446
 21
53.499553680419915
 31
0.0
  0
LINE
  8
0
 62
0
 10
62.154102325439446
 20
41.49944686889648
 30
0.0
 11
62.154102325439446
 21
44.59994888305663
 31
0.0
  0
LINE
  8
0
 62
0
 10
62.154102325439446
 20
69.40006256103516
 30
0.0
 11
62.154102325439446
 21
72.49956512451172
 31
0.0
  0
LINE
  8
0
 62
0
 10
62.154102325439446
 20
60.499458312988274
 30
0.0
 11
62.154102325439446
 21
63.59996032714843
 31
0.0
  0
LINE
  8
0
 62
0
 10
62.15410232543944
 20
88.40007781982422
 30
0.0
 11
62.15410232543944
 21
91.49958038330078
 31
0.0
  0
LINE
  8
0
 62
0
 10
62.154102325439446
 20
79.49947357177734
 30
0.0
 11
62.154102325439446
 21
82.5999755859375
 31
0.0
  0
LINE
  8
0
 62
0
 10
47.35528564453125
 20
3.4994211196899356
 30
0.0
 11
47.35528564453125
 21
2.500320672988886
 31
0.0
  0
LINE
  8
0
 62
0
 10
47.35528564453125
 20
12.400026321411127
 30
0.0
 11
47.35528564453125
 21
6.599922657012934
 31
0.0
  0
LINE
  8
0
 62
0
 10
47.35528564453125
 20
16.499628067016594
 30
0.0
 11
47.35528564453125
 21
15.499527931213374
 31
0.0
  0
LINE
  8
0
 62
0
 10
47.35528564453125
 20
22.499433517456048
 30
0.0
 11
47.35528564453125
 21
21.500333786010735
 31
0.0
  0
LINE
  8
0
 62
0
 10
47.35528564453124
 20
31.400039672851555
 30
0.0
 11
47.35528564453125
 21
25.599935531616204
 31
0.0
  0
LINE
  8
0
 62
0
 10
47.35528564453124
 20
35.499641418457024
 30
0.0
 11
47.35528564453124
 21
34.49954223632812
 31
0.0
  0
LINE
  8
0
 62
0
 10
47.35528564453124
 20
41.49944686889648
 30
0.0
 11
47.35528564453124
 21
40.500347137451165
 31
0.0
  0
LINE
  8
0
 62
0
 10
47.35528564453124
 20
50.40005111694335
 30
0.0
 11
47.35528564453124
 21
44.59994888305663
 31
0.0
  0
LINE
  8
0
 62
0
 10
47.35528564453124
 20
54.49965286254882
 30
0.0
 11
47.35528564453124
 21
53.499553680419915
 31
0.0
  0
LINE
  8
0
 62
0
 10
47.35528564453124
 20
60.499458312988274
 30
0.0
 11
47.35528564453124
 21
59.50035858154296
 31
0.0
  0
LINE
  8
0
 62
0
 10
47.35528564453124
 20
69.40006256103516
 30
0.0
 11
47.35528564453124
 21
63.59996032714843
 31
0.0
  0
LINE
  8
0
 62
0
 10
47.35528564453124
 20
73.49966430664062
 30
0.0
 11
47.35528564453124
 21
72.49956512451172
 31
0.0
  0
LINE
  8
0
 62
0
 10
47.35528564453124
 20
79.49947357177734
 30
0.0
 11
47.35528564453124
 21
78.50037384033203
 31
0.0
  0
LINE
  8
0
 62
0
 10
47.355285644531236
 20
88.40007781982422
 30
0.0
 11
47.35528564453124
 21
82.5999755859375
 31
0.0
  0
LINE
  8
0
 62
0
 10
47.355285644531236
 20
92.49967956542969
 30
0.0
 11
47.355285644531236
 21
91.49958038330078
 31
0.0
  0
LINE
  8
0
 62
0
 10
46.554683685302734
 20
6.599922657012934
 30
0.0
 11
46.554683685302734
 21
3.4994211196899356
 31
0.0
  0
LINE
  8
0
 62
0
 10
46.554683685302734
 20
15.499527931213374
 30
0.0
 11
46.554683685302734
 21
12.400026321411127
 31
0.0
  0
LINE
  8
0
 62
0
 10
46.554683685302734
 20
25.599935531616204
 30
0.0
 11
46.554683685302734
 21
22.499433517456048
 31
0.0
  0
LINE
  8
0
 62
0
 10
46.55468368530273
 20
34.49954223632812
 30
0.0
 11
46.55468368530273
 21
31.400039672851555
 31
0.0
  0
LINE
  8
0
 62
0
 10
46.55468368530273
 20
44.59994888305663
 30
0.0
 11
46.55468368530273
 21
41.49944686889648
 31
0.0
  0
LINE
  8
0
 62
0
 10
46.55468368530273
 20
53.499553680419915
 30
0.0
 11
46.55468368530273
 21
50.40005111694335
 31
0.0
  0
LINE
  8
0
 62
0
 10
46.55468368530273
 20
63.59996032714843
 30
0.0
 11
46.55468368530273
 21
60.499458312988274
 31
0.0
  0
LINE
  8
0
 62
0
 10
46.55468368530273
 20
72.49956512451172
 30
0.0
 11
46.55468368530273
 21
69.40006256103516
 31
0.0
  0
LINE
  8
0
 62
0
 10
46.55468368530273
 20
82.5999755859375
 30
0.0
 11
46.55468368530273
 21
79.49947357177734
 31
0.0
  0
LINE
  8
0
 62
0
 10
46.55468368530272
 20
91.49958038330078
 30
0.0
 11
46.55468368530272
 21
88.40007781982422
 31
0.0
  0
LINE
  8
0
 62
0
 10
-147.64529418945312
 20
92.49967956542966
 30
0.0
 11
-161.6448516845703
 21
92.49967956542966
 31
0.0
  0
LINE
  8
0
 62
0
 10
-128.64527893066406
 20
92.49967956542966
 30
0.0
 11
-142.64483642578125
 21
92.49967956542966
 31
0.0
  0
LINE
  8
0
 62
0
 10
-109.64527130126955
 20
92.49967956542966
 30
0.0
 11
-123.64482879638673
 21
92.49967956542966
 31
0.0
  0
LINE
  8
0
 62
0
 10
-90.64526367187501
 20
92.49967956542966
 30
0.0
 11
-104.6448211669922
 21
92.49967956542966
 31
0.0
  0
LINE
  8
0
 62
0
 10
-71.64524841308595
 20
92.49967956542967
 30
0.0
 11
-85.64480590820314
 21
92.49967956542966
 31
0.0
  0
LINE
  8
0
 62
0
 10
-52.64523315429689
 20
92.49967956542967
 30
0.0
 11
-66.64479064941408
 21
92.49967956542967
 31
0.0
  0
LINE
  8
0
 62
0
 10
-33.64522171020509
 20
92.49967956542967
 30
0.0
 11
-47.64477920532228
 21
92.49967956542967
 31
0.0
  0
LINE
  8
0
 62
0
 10
-14.645209312438976
 20
92.49967956542967
 30
0.0
 11
-28.644765853881847
 21
92.49967956542967
 31
0.0
  0
LINE
  8
0
 62
0
 10
4.354804039001453
 20
92.49967956542967
 30
0.0
 11
-9.644753456115733
 21
92.49967956542967
 31
0.0
  0
LINE
  8
0
 62
0
 10
23.354816436767567
 20
92.49967956542967
 30
0.0
 11
9.35525894165038
 21
92.49967956542967
 31
0.0
  0
LINE
  8
0
 62
0
 10
42.35482788085936
 20
92.49967956542969
 30
0.0
 11
28.35527229309081
 21
92.49967956542967
 31
0.0
  0
LINE
  8
0
 62
0
 10
61.35484313964842
 20
92.49967956542969
 30
0.0
 11
47.355285644531236
 21
92.49967956542969
 31
0.0
  0
LINE
  8
0
 62
0
 10
-147.64529418945312
 20
91.49958038330075
 30
0.0
 11
-147.64529418945312
 21
92.49967956542966
 31
0.0
  0
LINE
  8
0
 62
0
 10
-147.64529418945312
 20
82.59997558593747
 30
0.0
 11
-147.64529418945312
 21
88.40007781982419
 31
0.0
  0
LINE
  8
0
 62
0
 10
-147.64529418945312
 20
78.500373840332
 30
0.0
 11
-147.64529418945312
 21
79.49947357177732
 31
0.0
  0
LINE
  8
0
 62
0
 10
-147.64529418945312
 20
15.499527931213349
 30
0.0
 11
-147.64529418945312
 21
16.499628067016573
 31
0.0
  0
LINE
  8
0
 62
0
 10
-147.64529418945312
 20
6.59992265701291
 30
0.0
 11
-147.64529418945312
 21
12.400026321411103
 31
0.0
  0
LINE
  8
0
 62
0
 10
-147.64529418945312
 20
2.5003206729888623
 30
0.0
 11
-147.64529418945312
 21
3.499421119689912
 31
0.0
  0
LINE
  8
0
 62
0
 10
-147.64529418945312
 20
34.4995422363281
 30
0.0
 11
-147.64529418945312
 21
35.499641418457
 31
0.0
  0
LINE
  8
0
 62
0
 10
-147.64529418945312
 20
25.599935531616183
 30
0.0
 11
-147.64529418945312
 21
31.400039672851534
 31
0.0
  0
LINE
  8
0
 62
0
 10
-147.64529418945312
 20
21.500333786010714
 30
0.0
 11
-147.64529418945312
 21
22.499433517456026
 31
0.0
  0
LINE
  8
0
 62
0
 10
-147.64529418945312
 20
53.49955368041989
 30
0.0
 11
-147.64529418945312
 21
54.4996528625488
 31
0.0
  0
LINE
  8
0
 62
0
 10
-147.64529418945312
 20
44.59994888305661
 30
0.0
 11
-147.64529418945312
 21
50.40005111694333
 31
0.0
  0
LINE
  8
0
 62
0
 10
-147.64529418945312
 20
40.50034713745114
 30
0.0
 11
-147.64529418945312
 21
41.499446868896456
 31
0.0
  0
LINE
  8
0
 62
0
 10
-147.64529418945312
 20
72.49956512451169
 30
0.0
 11
-147.64529418945312
 21
73.4996643066406
 31
0.0
  0
LINE
  8
0
 62
0
 10
-147.64529418945312
 20
63.59996032714841
 30
0.0
 11
-147.64529418945312
 21
69.40006256103513
 31
0.0
  0
LINE
  8
0
 62
0
 10
-147.64529418945312
 20
59.50035858154294
 30
0.0
 11
-147.64529418945312
 21
60.49945831298825
 31
0.0
  0
LINE
  8
0
 62
0
 10
-146.84603881835938
 20
91.49958038330075
 30
0.0
 11
-147.64529418945312
 21
91.49958038330075
 31
0.0
  0
LINE
  8
0
 62
0
 10
-161.6448516845703
 20
91.49958038330075
 30
0.0
 11
-162.44544982910156
 21
91.49958038330075
 31
0.0
  0
LINE
  8
0
 62
0
 10
-127.84602355957033
 20
91.49958038330075
 30
0.0
 11
-128.64527893066406
 21
91.49958038330075
 31
0.0
  0
LINE
  8
0
 62
0
 10
-142.64483642578125
 20
91.49958038330075
 30
0.0
 11
-143.44544982910156
 21
91.49958038330075
 31
0.0
  0
LINE
  8
0
 62
0
 10
-108.8460159301758
 20
91.49958038330075
 30
0.0
 11
-109.64527130126955
 21
91.49958038330075
 31
0.0
  0
LINE
  8
0
 62
0
 10
-123.64482879638673
 20
91.49958038330075
 30
0.0
 11
-124.44543457031251
 21
91.49958038330075
 31
0.0
  0
LINE
  8
0
 62
0
 10
-89.84600067138673
 20
91.49958038330075
 30
0.0
 11
-90.64526367187501
 21
91.49958038330075
 31
0.0
  0
LINE
  8
0
 62
0
 10
-104.6448211669922
 20
91.49958038330075
 30
0.0
 11
-105.44541931152345
 21
91.49958038330075
 31
0.0
  0
LINE
  8
0
 62
0
 10
-70.84598541259767
 20
91.49958038330077
 30
0.0
 11
-71.64524841308595
 21
91.49958038330077
 31
0.0
  0
LINE
  8
0
 62
0
 10
-85.64480590820314
 20
91.49958038330075
 30
0.0
 11
-86.44540405273439
 21
91.49958038330075
 31
0.0
  0
LINE
  8
0
 62
0
 10
-51.845973968505874
 20
91.49958038330077
 30
0.0
 11
-52.64523315429689
 21
91.49958038330077
 31
0.0
  0
LINE
  8
0
 62
0
 10
-66.64479064941408
 20
91.49958038330077
 30
0.0
 11
-67.44538879394533
 21
91.49958038330077
 31
0.0
  0
LINE
  8
0
 62
0
 10
-32.84596252441408
 20
91.49958038330077
 30
0.0
 11
-33.64522171020509
 21
91.49958038330077
 31
0.0
  0
LINE
  8
0
 62
0
 10
-47.64477920532228
 20
91.49958038330077
 30
0.0
 11
-48.445381164550795
 21
91.49958038330077
 31
0.0
  0
LINE
  8
0
 62
0
 10
-13.845948219299327
 20
91.49958038330077
 30
0.0
 11
-14.645209312438976
 21
91.49958038330077
 31
0.0
  0
LINE
  8
0
 62
0
 10
-28.644765853881847
 20
91.49958038330077
 30
0.0
 11
-29.445367813110362
 21
91.49958038330077
 31
0.0
  0
LINE
  8
0
 62
0
 10
5.154064178466785
 20
91.49958038330077
 30
0.0
 11
4.354804039001453
 21
91.49958038330077
 31
0.0
  0
LINE
  8
0
 62
0
 10
-9.644753456115733
 20
91.49958038330077
 30
0.0
 11
-10.445354461669933
 21
91.49958038330077
 31
0.0
  0
LINE
  8
0
 62
0
 10
24.154077529907216
 20
91.49958038330077
 30
0.0
 11
23.354816436767567
 21
91.49958038330077
 31
0.0
  0
LINE
  8
0
 62
0
 10
9.35525894165038
 20
91.49958038330077
 30
0.0
 11
8.554658889770497
 21
91.49958038330077
 31
0.0
  0
LINE
  8
0
 62
0
 10
43.15409088134764
 20
91.49958038330078
 30
0.0
 11
42.35482788085936
 21
91.49958038330078
 31
0.0
  0
LINE
  8
0
 62
0
 10
28.35527229309081
 20
91.49958038330077
 30
0.0
 11
27.554672241210927
 21
91.49958038330077
 31
0.0
  0
LINE
  8
0
 62
0
 10
62.15410232543944
 20
91.49958038330078
 30
0.0
 11
61.35484313964842
 21
91.49958038330078
 31
0.0
  0
LINE
  8
0
 62
0
 10
47.355285644531236
 20
91.49958038330078
 30
0.0
 11
46.55468368530272
 21
91.49958038330078
 31
0.0
  0
LINE
  8
0
 62
0
 10
-146.84603881835938
 20
88.40007781982419
 30
0.0
 11
-146.84603881835938
 21
91.49958038330075
 31
0.0
  0
LINE
  8
0
 62
0
 10
-146.84603881835938
 20
79.49947357177732
 30
0.0
 11
-146.84603881835938
 21
82.59997558593747
 31
0.0
  0
LINE
  8
0
 62
0
 10
-146.84603881835938
 20
12.400026321411103
 30
0.0
 11
-146.84603881835938
 21
15.499527931213349
 31
0.0
  0
LINE
  8
0
 62
0
 10
-146.84603881835938
 20
3.499421119689912
 30
0.0
 11
-146.84603881835938
 21
6.59992265701291
 31
0.0
  0
LINE
  8
0
 62
0
 10
-146.84603881835938
 20
31.400039672851534
 30
0.0
 11
-146.84603881835938
 21
34.4995422363281
 31
0.0
  0
LINE
  8
0
 62
0
 10
-146.84603881835938
 20
22.499433517456026
 30
0.0
 11
-146.84603881835938
 21
25.599935531616183
 31
0.0
  0
LINE
  8
0
 62
0
 10
-146.84603881835938
 20
50.40005111694333
 30
0.0
 11
-146.84603881835938
 21
53.49955368041989
 31
0.0
  0
LINE
  8
0
 62
0
 10
-146.84603881835938
 20
41.499446868896456
 30
0.0
 11
-146.84603881835938
 21
44.59994888305661
 31
0.0
  0
LINE
  8
0
 62
0
 10
-146.84603881835938
 20
69.40006256103513
 30
0.0
 11
-146.84603881835938
 21
72.49956512451169
 31
0.0
  0
LINE
  8
0
 62
0
 10
-146.84603881835938
 20
60.49945831298825
 30
0.0
 11
-146.84603881835938
 21
63.59996032714841
 31
0.0
  0
LINE
  8
0
 62
0
 10
-147.64529418945312
 20
88.40007781982419
 30
0.0
 11
-146.84603881835938
 21
88.40007781982419
 31
0.0
  0
LINE
  8
0
 62
0
 10
-162.44544982910156
 20
88.40007781982419
 30
0.0
 11
-161.6448516845703
 21
88.40007781982419
 31
0.0
  0
LINE
  8
0
 62
0
 10
-128.64527893066406
 20
88.40007781982419
 30
0.0
 11
-127.84602355957033
 21
88.40007781982419
 31
0.0
  0
LINE
  8
0
 62
0
 10
-143.44544982910156
 20
88.40007781982419
 30
0.0
 11
-142.64483642578125
 21
88.40007781982419
 31
0.0
  0
LINE
  8
0
 62
0
 10
-109.64527130126955
 20
88.40007781982419
 30
0.0
 11
-108.8460159301758
 21
88.40007781982419
 31
0.0
  0
LINE
  8
0
 62
0
 10
-124.44543457031251
 20
88.40007781982419
 30
0.0
 11
-123.64482879638673
 21
88.40007781982419
 31
0.0
  0
LINE
  8
0
 62
0
 10
-90.64526367187501
 20
88.40007781982419
 30
0.0
 11
-89.84600067138673
 21
88.40007781982419
 31
0.0
  0
LINE
  8
0
 62
0
 10
-105.44541931152345
 20
88.40007781982419
 30
0.0
 11
-104.6448211669922
 21
88.40007781982419
 31
0.0
  0
LINE
  8
0
 62
0
 10
-71.64524841308595
 20
88.4000778198242
 30
0.0
 11
-70.84598541259767
 21
88.4000778198242
 31
0.0
  0
LINE
  8
0
 62
0
 10
-86.44540405273439
 20
88.40007781982419
 30
0.0
 11
-85.64480590820314
 21
88.40007781982419
 31
0.0
  0
LINE
  8
0
 62
0
 10
-52.64523315429689
 20
88.4000778198242
 30
0.0
 11
-51.845973968505874
 21
88.4000778198242
 31
0.0
  0
LINE
  8
0
 62
0
 10
-67.44538879394533
 20
88.4000778198242
 30
0.0
 11
-66.64479064941408
 21
88.4000778198242
 31
0.0
  0
LINE
  8
0
 62
0
 10
-33.64522171020509
 20
88.4000778198242
 30
0.0
 11
-32.84596252441408
 21
88.4000778198242
 31
0.0
  0
LINE
  8
0
 62
0
 10
-48.445381164550795
 20
88.4000778198242
 30
0.0
 11
-47.64477920532228
 21
88.4000778198242
 31
0.0
  0
LINE
  8
0
 62
0
 10
-14.645209312438976
 20
88.4000778198242
 30
0.0
 11
-13.845948219299327
 21
88.4000778198242
 31
0.0
  0
LINE
  8
0
 62
0
 10
-29.445367813110362
 20
88.4000778198242
 30
0.0
 11
-28.644765853881847
 21
88.4000778198242
 31
0.0
  0
LINE
  8
0
 62
0
 10
4.354804039001454
 20
88.4000778198242
 30
0.0
 11
5.154064178466786
 21
88.4000778198242
 31
0.0
  0
LINE
  8
0
 62
0
 10
-10.445354461669933
 20
88.4000778198242
 30
0.0
 11
-9.644753456115733
 21
88.4000778198242
 31
0.0
  0
LINE
  8
0
 62
0
 10
23.354816436767567
 20
88.4000778198242
 30
0.0
 11
24.154077529907216
 21
88.4000778198242
 31
0.0
  0
LINE
  8
0
 62
0
 10
8.554658889770497
 20
88.4000778198242
 30
0.0
 11
9.35525894165038
 21
88.4000778198242
 31
0.0
  0
LINE
  8
0
 62
0
 10
42.35482788085936
 20
88.40007781982422
 30
0.0
 11
43.15409088134764
 21
88.40007781982422
 31
0.0
  0
LINE
  8
0
 62
0
 10
27.554672241210927
 20
88.4000778198242
 30
0.0
 11
28.35527229309081
 21
88.4000778198242
 31
0.0
  0
LINE
  8
0
 62
0
 10
61.35484313964842
 20
88.40007781982422
 30
0.0
 11
62.15410232543944
 21
88.40007781982422
 31
0.0
  0
LINE
  8
0
 62
0
 10
46.55468368530272
 20
88.40007781982422
 30
0.0
 11
47.355285644531236
 21
88.40007781982422
 31
0.0
  0
LINE
  8
0
 62
0
 10
-146.84603881835938
 20
82.59997558593747
 30
0.0
 11
-147.64529418945312
 21
82.59997558593747
 31
0.0
  0
LINE
  8
0
 62
0
 10
-161.6448516845703
 20
82.59997558593747
 30
0.0
 11
-162.44544982910156
 21
82.59997558593747
 31
0.0
  0
LINE
  8
0
 62
0
 10
-127.84602355957033
 20
82.59997558593747
 30
0.0
 11
-128.64527893066406
 21
82.59997558593747
 31
0.0
  0
LINE
  8
0
 62
0
 10
-142.64483642578125
 20
82.59997558593747
 30
0.0
 11
-143.44544982910156
 21
82.59997558593747
 31
0.0
  0
LINE
  8
0
 62
0
 10
-108.8460159301758
 20
82.59997558593747
 30
0.0
 11
-109.64527130126955
 21
82.59997558593747
 31
0.0
  0
LINE
  8
0
 62
0
 10
-123.64482879638673
 20
82.59997558593747
 30
0.0
 11
-124.44543457031251
 21
82.59997558593747
 31
0.0
  0
LINE
  8
0
 62
0
 10
-89.84600067138673
 20
82.59997558593747
 30
0.0
 11
-90.64526367187501
 21
82.59997558593747
 31
0.0
  0
LINE
  8
0
 62
0
 10
-104.6448211669922
 20
82.59997558593747
 30
0.0
 11
-105.44541931152345
 21
82.59997558593747
 31
0.0
  0
LINE
  8
0
 62
0
 10
-70.84598541259767
 20
82.59997558593749
 30
0.0
 11
-71.64524841308595
 21
82.59997558593749
 31
0.0
  0
LINE
  8
0
 62
0
 10
-85.64480590820314
 20
82.59997558593747
 30
0.0
 11
-86.44540405273439
 21
82.59997558593747
 31
0.0
  0
LINE
  8
0
 62
0
 10
-51.84597396850587
 20
82.59997558593749
 30
0.0
 11
-52.64523315429688
 21
82.59997558593749
 31
0.0
  0
LINE
  8
0
 62
0
 10
-66.64479064941408
 20
82.59997558593749
 30
0.0
 11
-67.44538879394533
 21
82.59997558593749
 31
0.0
  0
LINE
  8
0
 62
0
 10
-32.84596252441407
 20
82.59997558593749
 30
0.0
 11
-33.645221710205085
 21
82.59997558593749
 31
0.0
  0
LINE
  8
0
 62
0
 10
-47.64477920532227
 20
82.59997558593749
 30
0.0
 11
-48.44538116455079
 21
82.59997558593749
 31
0.0
  0
LINE
  8
0
 62
0
 10
-13.845948219299327
 20
82.59997558593749
 30
0.0
 11
-14.645209312438976
 21
82.59997558593749
 31
0.0
  0
LINE
  8
0
 62
0
 10
-28.644765853881847
 20
82.59997558593749
 30
0.0
 11
-29.445367813110362
 21
82.59997558593749
 31
0.0
  0
LINE
  8
0
 62
0
 10
5.154064178466787
 20
82.59997558593749
 30
0.0
 11
4.354804039001455
 21
82.59997558593749
 31
0.0
  0
LINE
  8
0
 62
0
 10
-9.644753456115733
 20
82.59997558593749
 30
0.0
 11
-10.445354461669933
 21
82.59997558593749
 31
0.0
  0
LINE
  8
0
 62
0
 10
24.154077529907216
 20
82.59997558593749
 30
0.0
 11
23.354816436767567
 21
82.59997558593749
 31
0.0
  0
LINE
  8
0
 62
0
 10
9.35525894165038
 20
82.59997558593749
 30
0.0
 11
8.554658889770497
 21
82.59997558593749
 31
0.0
  0
LINE
  8
0
 62
0
 10
43.15409088134765
 20
82.5999755859375
 30
0.0
 11
42.35482788085937
 21
82.5999755859375
 31
0.0
  0
LINE
  8
0
 62
0
 10
28.35527229309081
 20
82.59997558593749
 30
0.0
 11
27.554672241210927
 21
82.59997558593749
 31
0.0
  0
LINE
  8
0
 62
0
 10
62.154102325439446
 20
82.5999755859375
 30
0.0
 11
61.35484313964843
 21
82.5999755859375
 31
0.0
  0
LINE
  8
0
 62
0
 10
47.35528564453124
 20
82.5999755859375
 30
0.0
 11
46.55468368530273
 21
82.5999755859375
 31
0.0
  0
LINE
  8
0
 62
0
 10
-147.64529418945312
 20
79.49947357177732
 30
0.0
 11
-146.84603881835938
 21
79.49947357177732
 31
0.0
  0
LINE
  8
0
 62
0
 10
-162.44544982910156
 20
79.49947357177732
 30
0.0
 11
-161.6448516845703
 21
79.49947357177732
 31
0.0
  0
LINE
  8
0
 62
0
 10
-128.64527893066406
 20
79.49947357177732
 30
0.0
 11
-127.84602355957033
 21
79.49947357177732
 31
0.0
  0
LINE
  8
0
 62
0
 10
-143.44544982910156
 20
79.49947357177732
 30
0.0
 11
-142.64483642578125
 21
79.49947357177732
 31
0.0
  0
LINE
  8
0
 62
0
 10
-109.64527130126955
 20
79.49947357177732
 30
0.0
 11
-108.8460159301758
 21
79.49947357177732
 31
0.0
  0
LINE
  8
0
 62
0
 10
-124.44543457031251
 20
79.49947357177732
 30
0.0
 11
-123.64482879638673
 21
79.49947357177732
 31
0.0
  0
LINE
  8
0
 62
0
 10
-90.64526367187501
 20
79.49947357177732
 30
0.0
 11
-89.84600067138673
 21
79.49947357177732
 31
0.0
  0
LINE
  8
0
 62
0
 10
-105.44541931152345
 20
79.49947357177732
 30
0.0
 11
-104.6448211669922
 21
79.49947357177732
 31
0.0
  0
LINE
  8
0
 62
0
 10
-71.64524841308595
 20
79.49947357177733
 30
0.0
 11
-70.84598541259767
 21
79.49947357177733
 31
0.0
  0
LINE
  8
0
 62
0
 10
-86.44540405273439
 20
79.49947357177732
 30
0.0
 11
-85.64480590820314
 21
79.49947357177732
 31
0.0
  0
LINE
  8
0
 62
0
 10
-52.64523315429688
 20
79.49947357177733
 30
0.0
 11
-51.84597396850587
 21
79.49947357177733
 31
0.0
  0
LINE
  8
0
 62
0
 10
-67.44538879394533
 20
79.49947357177733
 30
0.0
 11
-66.64479064941408
 21
79.49947357177733
 31
0.0
  0
LINE
  8
0
 62
0
 10
-33.645221710205085
 20
79.49947357177733
 30
0.0
 11
-32.84596252441407
 21
79.49947357177733
 31
0.0
  0
LINE
  8
0
 62
0
 10
-48.44538116455079
 20
79.49947357177733
 30
0.0
 11
-47.64477920532227
 21
79.49947357177733
 31
0.0
  0
LINE
  8
0
 62
0
 10
-14.645209312438974
 20
79.49947357177733
 30
0.0
 11
-13.845948219299325
 21
79.49947357177733
 31
0.0
  0
LINE
  8
0
 62
0
 10
-29.445367813110362
 20
79.49947357177733
 30
0.0
 11
-28.644765853881847
 21
79.49947357177733
 31
0.0
  0
LINE
  8
0
 62
0
 10
4.354804039001455
 20
79.49947357177733
 30
0.0
 11
5.154064178466787
 21
79.49947357177733
 31
0.0
  0
LINE
  8
0
 62
0
 10
-10.44535446166993
 20
79.49947357177733
 30
0.0
 11
-9.644753456115732
 21
79.49947357177733
 31
0.0
  0
LINE
  8
0
 62
0
 10
23.354816436767567
 20
79.49947357177733
 30
0.0
 11
24.154077529907216
 21
79.49947357177733
 31
0.0
  0
LINE
  8
0
 62
0
 10
8.554658889770499
 20
79.49947357177733
 30
0.0
 11
9.355258941650382
 21
79.49947357177733
 31
0.0
  0
LINE
  8
0
 62
0
 10
42.35482788085937
 20
79.49947357177734
 30
0.0
 11
43.15409088134765
 21
79.49947357177734
 31
0.0
  0
LINE
  8
0
 62
0
 10
27.554672241210927
 20
79.49947357177733
 30
0.0
 11
28.35527229309081
 21
79.49947357177733
 31
0.0
  0
LINE
  8
0
 62
0
 10
61.35484313964843
 20
79.49947357177734
 30
0.0
 11
62.154102325439446
 21
79.49947357177734
 31
0.0
  0
LINE
  8
0
 62
0
 10
46.55468368530273
 20
79.49947357177734
 30
0.0
 11
47.35528564453124
 21
79.49947357177734
 31
0.0
  0
LINE
  8
0
 62
0
 10
-161.6448516845703
 20
78.500373840332
 30
0.0
 11
-147.64529418945312
 21
78.500373840332
 31
0.0
  0
LINE
  8
0
 62
0
 10
-142.64483642578125
 20
78.500373840332
 30
0.0
 11
-128.64527893066406
 21
78.500373840332
 31
0.0
  0
LINE
  8
0
 62
0
 10
-123.64482879638673
 20
78.500373840332
 30
0.0
 11
-109.64527130126955
 21
78.500373840332
 31
0.0
  0
LINE
  8
0
 62
0
 10
-104.6448211669922
 20
78.500373840332
 30
0.0
 11
-90.64526367187501
 21
78.500373840332
 31
0.0
  0
LINE
  8
0
 62
0
 10
-85.64480590820314
 20
78.500373840332
 30
0.0
 11
-71.64524841308595
 21
78.50037384033202
 31
0.0
  0
LINE
  8
0
 62
0
 10
-66.64479064941408
 20
78.50037384033202
 30
0.0
 11
-52.64523315429688
 21
78.50037384033202
 31
0.0
  0
LINE
  8
0
 62
0
 10
-47.64477920532227
 20
78.50037384033202
 30
0.0
 11
-33.645221710205085
 21
78.50037384033202
 31
0.0
  0
LINE
  8
0
 62
0
 10
-28.644765853881847
 20
78.50037384033202
 30
0.0
 11
-14.645209312438974
 21
78.50037384033202
 31
0.0
  0
LINE
  8
0
 62
0
 10
-9.644753456115732
 20
78.50037384033202
 30
0.0
 11
4.354804039001456
 21
78.50037384033202
 31
0.0
  0
LINE
  8
0
 62
0
 10
9.355258941650382
 20
78.50037384033202
 30
0.0
 11
23.354816436767567
 21
78.50037384033202
 31
0.0
  0
LINE
  8
0
 62
0
 10
28.35527229309081
 20
78.50037384033202
 30
0.0
 11
42.35482788085937
 21
78.50037384033203
 31
0.0
  0
LINE
  8
0
 62
0
 10
47.35528564453124
 20
78.50037384033203
 30
0.0
 11
61.35484313964843
 21
78.50037384033203
 31
0.0
  0
LINE
  8
0
 62
0
 10
-161.6448516845703
 20
79.49947357177732
 30
0.0
 11
-161.6448516845703
 21
78.500373840332
 31
0.0
  0
LINE
  8
0
 62
0
 10
-161.6448516845703
 20
88.40007781982419
 30
0.0
 11
-161.6448516845703
 21
82.59997558593747
 31
0.0
  0
LINE
  8
0
 62
0
 10
-161.6448516845703
 20
92.49967956542966
 30
0.0
 11
-161.6448516845703
 21
91.49958038330075
 31
0.0
  0
LINE
  8
0
 62
0
 10
-161.6448516845703
 20
3.4994211196899103
 30
0.0
 11
-161.6448516845703
 21
2.5003206729888605
 31
0.0
  0
LINE
  8
0
 62
0
 10
-161.6448516845703
 20
12.4000263214111
 30
0.0
 11
-161.6448516845703
 21
6.599922657012908
 31
0.0
  0
LINE
  8
0
 62
0
 10
-161.6448516845703
 20
16.49962806701657
 30
0.0
 11
-161.6448516845703
 21
15.499527931213347
 31
0.0
  0
LINE
  8
0
 62
0
 10
-161.6448516845703
 20
22.499433517456023
 30
0.0
 11
-161.6448516845703
 21
21.50033378601071
 31
0.0
  0
LINE
  8
0
 62
0
 10
-161.6448516845703
 20
31.40003967285153
 30
0.0
 11
-161.6448516845703
 21
25.59993553161618
 31
0.0
  0
LINE
  8
0
 62
0
 10
-161.6448516845703
 20
35.499641418457
 30
0.0
 11
-161.6448516845703
 21
34.4995422363281
 31
0.0
  0
LINE
  8
0
 62
0
 10
-161.6448516845703
 20
41.499446868896456
 30
0.0
 11
-161.6448516845703
 21
40.50034713745114
 31
0.0
  0
LINE
  8
0
 62
0
 10
-161.6448516845703
 20
50.40005111694333
 30
0.0
 11
-161.6448516845703
 21
44.59994888305661
 31
0.0
  0
LINE
  8
0
 62
0
 10
-161.6448516845703
 20
54.4996528625488
 30
0.0
 11
-161.6448516845703
 21
53.49955368041989
 31
0.0
  0
LINE
  8
0
 62
0
 10
-161.6448516845703
 20
60.49945831298825
 30
0.0
 11
-161.6448516845703
 21
59.50035858154294
 31
0.0
  0
LINE
  8
0
 62
0
 10
-161.6448516845703
 20
69.40006256103513
 30
0.0
 11
-161.6448516845703
 21
63.59996032714841
 31
0.0
  0
LINE
  8
0
 62
0
 10
-161.6448516845703
 20
73.4996643066406
 30
0.0
 11
-161.6448516845703
 21
72.49956512451169
 31
0.0
  0
LINE
  8
0
 62
0
 10
-162.44544982910156
 20
82.59997558593747
 30
0.0
 11
-162.44544982910156
 21
79.49947357177732
 31
0.0
  0
LINE
  8
0
 62
0
 10
-162.44544982910156
 20
91.49958038330075
 30
0.0
 11
-162.44544982910156
 21
88.40007781982419
 31
0.0
  0
LINE
  8
0
 62
0
 10
-162.44544982910156
 20
6.599922657012908
 30
0.0
 11
-162.44544982910156
 21
3.4994211196899103
 31
0.0
  0
LINE
  8
0
 62
0
 10
-162.44544982910156
 20
15.499527931213347
 30
0.0
 11
-162.44544982910156
 21
12.4000263214111
 31
0.0
  0
LINE
  8
0
 62
0
 10
-162.44544982910156
 20
25.59993553161618
 30
0.0
 11
-162.44544982910156
 21
22.499433517456023
 31
0.0
  0
LINE
  8
0
 62
0
 10
-162.44544982910156
 20
34.4995422363281
 30
0.0
 11
-162.44544982910156
 21
31.40003967285153
 31
0.0
  0
LINE
  8
0
 62
0
 10
-162.44544982910156
 20
44.59994888305661
 30
0.0
 11
-162.44544982910156
 21
41.499446868896456
 31
0.0
  0
LINE
  8
0
 62
0
 10
-162.44544982910156
 20
53.49955368041989
 30
0.0
 11
-162.44544982910156
 21
50.40005111694333
 31
0.0
  0
LINE
  8
0
 62
0
 10
-162.44544982910156
 20
63.59996032714841
 30
0.0
 11
-162.44544982910156
 21
60.49945831298825
 31
0.0
  0
LINE
  8
0
 62
0
 10
-162.44544982910156
 20
72.49956512451169
 30
0.0
 11
-162.44544982910156
 21
69.40006256103513
 31
0.0
  0
LINE
  8
0
 62
0
 10
-128.64527893066406
 20
91.49958038330075
 30
0.0
 11
-128.64527893066406
 21
92.49967956542966
 31
0.0
  0
LINE
  8
0
 62
0
 10
-128.64527893066406
 20
82.59997558593747
 30
0.0
 11
-128.64527893066406
 21
88.40007781982419
 31
0.0
  0
LINE
  8
0
 62
0
 10
-128.64527893066406
 20
78.500373840332
 30
0.0
 11
-128.64527893066406
 21
79.49947357177732
 31
0.0
  0
LINE
  8
0
 62
0
 10
-128.64527893066406
 20
15.499527931213352
 30
0.0
 11
-128.64527893066406
 21
16.499628067016573
 31
0.0
  0
LINE
  8
0
 62
0
 10
-128.64527893066406
 20
6.599922657012912
 30
0.0
 11
-128.64527893066406
 21
12.400026321411106
 31
0.0
  0
LINE
  8
0
 62
0
 10
-128.64527893066406
 20
2.5003206729888645
 30
0.0
 11
-128.64527893066406
 21
3.4994211196899143
 31
0.0
  0
LINE
  8
0
 62
0
 10
-128.64527893066406
 20
34.4995422363281
 30
0.0
 11
-128.64527893066406
 21
35.499641418457
 31
0.0
  0
LINE
  8
0
 62
0
 10
-128.64527893066406
 20
25.599935531616183
 30
0.0
 11
-128.64527893066406
 21
31.400039672851534
 31
0.0
  0
LINE
  8
0
 62
0
 10
-128.64527893066406
 20
21.500333786010714
 30
0.0
 11
-128.64527893066406
 21
22.499433517456026
 31
0.0
  0
LINE
  8
0
 62
0
 10
-128.64527893066406
 20
53.49955368041989
 30
0.0
 11
-128.64527893066406
 21
54.4996528625488
 31
0.0
  0
LINE
  8
0
 62
0
 10
-128.64527893066406
 20
44.59994888305661
 30
0.0
 11
-128.64527893066406
 21
50.40005111694333
 31
0.0
  0
LINE
  8
0
 62
0
 10
-128.64527893066406
 20
40.50034713745114
 30
0.0
 11
-128.64527893066406
 21
41.499446868896456
 31
0.0
  0
LINE
  8
0
 62
0
 10
-128.64527893066406
 20
72.49956512451169
 30
0.0
 11
-128.64527893066406
 21
73.4996643066406
 31
0.0
  0
LINE
  8
0
 62
0
 10
-128.64527893066406
 20
63.59996032714841
 30
0.0
 11
-128.64527893066406
 21
69.40006256103513
 31
0.0
  0
LINE
  8
0
 62
0
 10
-128.64527893066406
 20
59.50035858154294
 30
0.0
 11
-128.64527893066406
 21
60.49945831298825
 31
0.0
  0
LINE
  8
0
 62
0
 10
-127.84602355957033
 20
88.40007781982419
 30
0.0
 11
-127.84602355957033
 21
91.49958038330075
 31
0.0
  0
LINE
  8
0
 62
0
 10
-127.84602355957033
 20
79.49947357177732
 30
0.0
 11
-127.84602355957033
 21
82.59997558593747
 31
0.0
  0
LINE
  8
0
 62
0
 10
-127.84602355957031
 20
12.400026321411106
 30
0.0
 11
-127.84602355957031
 21
15.499527931213352
 31
0.0
  0
LINE
  8
0
 62
0
 10
-127.84602355957031
 20
3.4994211196899143
 30
0.0
 11
-127.84602355957031
 21
6.599922657012913
 31
0.0
  0
LINE
  8
0
 62
0
 10
-127.84602355957031
 20
31.400039672851534
 30
0.0
 11
-127.84602355957031
 21
34.4995422363281
 31
0.0
  0
LINE
  8
0
 62
0
 10
-127.84602355957031
 20
22.499433517456026
 30
0.0
 11
-127.84602355957031
 21
25.599935531616183
 31
0.0
  0
LINE
  8
0
 62
0
 10
-127.84602355957031
 20
50.40005111694333
 30
0.0
 11
-127.84602355957031
 21
53.49955368041989
 31
0.0
  0
LINE
  8
0
 62
0
 10
-127.84602355957031
 20
41.499446868896456
 30
0.0
 11
-127.84602355957031
 21
44.59994888305661
 31
0.0
  0
LINE
  8
0
 62
0
 10
-127.84602355957033
 20
69.40006256103513
 30
0.0
 11
-127.84602355957033
 21
72.49956512451169
 31
0.0
  0
LINE
  8
0
 62
0
 10
-127.84602355957033
 20
60.49945831298825
 30
0.0
 11
-127.84602355957033
 21
63.59996032714841
 31
0.0
  0
LINE
  8
0
 62
0
 10
-142.64483642578125
 20
79.49947357177732
 30
0.0
 11
-142.64483642578125
 21
78.500373840332
 31
0.0
  0
LINE
  8
0
 62
0
 10
-142.64483642578125
 20
88.40007781982419
 30
0.0
 11
-142.64483642578125
 21
82.59997558593747
 31
0.0
  0
LINE
  8
0
 62
0
 10
-142.64483642578125
 20
92.49967956542966
 30
0.0
 11
-142.64483642578125
 21
91.49958038330075
 31
0.0
  0
LINE
  8
0
 62
0
 10
-142.64483642578125
 20
3.4994211196899125
 30
0.0
 11
-142.64483642578125
 21
2.5003206729888627
 31
0.0
  0
LINE
  8
0
 62
0
 10
-142.64483642578125
 20
12.400026321411104
 30
0.0
 11
-142.64483642578125
 21
6.599922657012911
 31
0.0
  0
LINE
  8
0
 62
0
 10
-142.64483642578125
 20
16.499628067016573
 30
0.0
 11
-142.64483642578125
 21
15.49952793121335
 31
0.0
  0
LINE
  8
0
 62
0
 10
-142.64483642578125
 20
22.499433517456026
 30
0.0
 11
-142.64483642578125
 21
21.500333786010714
 31
0.0
  0
LINE
  8
0
 62
0
 10
-142.64483642578125
 20
31.400039672851534
 30
0.0
 11
-142.64483642578125
 21
25.599935531616183
 31
0.0
  0
LINE
  8
0
 62
0
 10
-142.64483642578125
 20
35.499641418457
 30
0.0
 11
-142.64483642578125
 21
34.4995422363281
 31
0.0
  0
LINE
  8
0
 62
0
 10
-142.64483642578125
 20
41.499446868896456
 30
0.0
 11
-142.64483642578125
 21
40.50034713745114
 31
0.0
  0
LINE
  8
0
 62
0
 10
-142.64483642578125
 20
50.40005111694333
 30
0.0
 11
-142.64483642578125
 21
44.59994888305661
 31
0.0
  0
LINE
  8
0
 62
0
 10
-142.64483642578125
 20
54.4996528625488
 30
0.0
 11
-142.64483642578125
 21
53.49955368041989
 31
0.0
  0
LINE
  8
0
 62
0
 10
-142.64483642578125
 20
60.49945831298825
 30
0.0
 11
-142.64483642578125
 21
59.50035858154294
 31
0.0
  0
LINE
  8
0
 62
0
 10
-142.64483642578125
 20
69.40006256103513
 30
0.0
 11
-142.64483642578125
 21
63.59996032714841
 31
0.0
  0
LINE
  8
0
 62
0
 10
-142.64483642578125
 20
73.4996643066406
 30
0.0
 11
-142.64483642578125
 21
72.49956512451169
 31
0.0
  0
LINE
  8
0
 62
0
 10
-143.44544982910156
 20
82.59997558593747
 30
0.0
 11
-143.44544982910156
 21
79.49947357177732
 31
0.0
  0
LINE
  8
0
 62
0
 10
-143.44544982910156
 20
91.49958038330075
 30
0.0
 11
-143.44544982910156
 21
88.40007781982419
 31
0.0
  0
LINE
  8
0
 62
0
 10
-143.44544982910156
 20
6.59992265701291
 30
0.0
 11
-143.44544982910156
 21
3.4994211196899125
 31
0.0
  0
LINE
  8
0
 62
0
 10
-143.44544982910156
 20
15.49952793121335
 30
0.0
 11
-143.44544982910156
 21
12.400026321411104
 31
0.0
  0
LINE
  8
0
 62
0
 10
-143.44544982910156
 20
25.599935531616183
 30
0.0
 11
-143.44544982910156
 21
22.499433517456026
 31
0.0
  0
LINE
  8
0
 62
0
 10
-143.44544982910156
 20
34.4995422363281
 30
0.0
 11
-143.44544982910156
 21
31.400039672851534
 31
0.0
  0
LINE
  8
0
 62
0
 10
-143.44544982910156
 20
44.59994888305661
 30
0.0
 11
-143.44544982910156
 21
41.499446868896456
 31
0.0
  0
LINE
  8
0
 62
0
 10
-143.44544982910156
 20
53.49955368041989
 30
0.0
 11
-143.44544982910156
 21
50.40005111694333
 31
0.0
  0
LINE
  8
0
 62
0
 10
-143.44544982910156
 20
63.59996032714841
 30
0.0
 11
-143.44544982910156
 21
60.49945831298825
 31
0.0
  0
LINE
  8
0
 62
0
 10
-143.44544982910156
 20
72.49956512451169
 30
0.0
 11
-143.44544982910156
 21
69.40006256103513
 31
0.0
  0
ENDBLK
  0
ENDSEC
  0
SECTION
  2
ENTITIES
  0
INSERT
  2
HI_PRO_PLATE_MX_2X2U_REV3001_SOLID001
  8
0
 62
0
 10
0.0
 20
0.0
 30
0.0
  0
ENDSEC
  0
EOF
